<svg width="791" height="457" viewBox="0 0 791 457" fill="none" xmlns="http://www.w3.org/2000/svg">
<g clip-path="url(#clip0_359_75)">
<rect width="791" height="457" fill="#D9D9D9"/>
<path d="M791 0H0V457H791V0Z" fill="url(#paint0_linear_359_75)"/>
<path opacity="0.64" d="M395.744 290.325C460.186 290.325 512.426 238.085 512.426 173.643C512.426 109.201 460.186 56.9604 395.744 56.9604C331.302 56.9604 279.061 109.201 279.061 173.643C279.061 238.085 331.302 290.325 395.744 290.325Z" fill="white"/>
<path d="M438.365 104.754L423.415 129.058C422.744 130.148 419.426 129.321 415.999 127.213C412.575 125.105 410.338 122.516 411.009 121.425L425.958 97.1216C425.287 98.2119 427.524 100.802 430.948 102.909C434.372 105.017 437.693 105.844 438.365 104.754Z" fill="#381B42"/>
<path d="M422.162 130.151C420.433 130.151 417.89 129.087 415.683 127.728C413.974 126.677 412.492 125.47 411.511 124.333C410.062 122.655 410.158 121.651 410.494 121.106L425.443 96.8018L426.48 97.44C426.404 97.563 426.42 98.1215 427.381 99.2351C428.285 100.282 429.665 101.403 431.271 102.39C434.798 104.557 437.534 104.946 437.849 104.434L438.887 105.073L423.937 129.376C423.601 129.922 422.97 130.154 422.162 130.154V130.151ZM425.613 98.8462L411.528 121.744C411.451 121.867 411.468 122.425 412.429 123.539C413.333 124.586 414.712 125.706 416.318 126.694C419.845 128.861 422.581 129.25 422.897 128.738L436.975 105.85C435.25 105.797 432.78 104.753 430.629 103.43C428.92 102.38 427.438 101.173 426.457 100.036C426.078 99.5975 425.802 99.2019 425.613 98.8528V98.8462Z" fill="#381B42"/>
<path d="M437.111 105.847C435.383 105.847 432.84 104.783 430.632 103.424C428.924 102.373 427.441 101.166 426.46 100.03C425.011 98.3508 425.107 97.3469 425.443 96.8017C426.494 95.093 430.459 96.456 433.697 98.4472C435.406 99.4977 436.889 100.704 437.869 101.841C439.319 103.52 439.222 104.524 438.886 105.069C438.551 105.614 437.919 105.847 437.111 105.847ZM427.158 97.2372C426.796 97.2372 426.56 97.3103 426.48 97.44C426.404 97.563 426.42 98.1215 427.381 99.2351C428.285 100.282 429.665 101.403 431.271 102.39C434.798 104.557 437.533 104.946 437.849 104.434C437.926 104.311 437.909 103.753 436.948 102.639C436.044 101.592 434.665 100.475 433.059 99.4877C430.426 97.8688 428.232 97.2405 427.162 97.2405L427.158 97.2372Z" fill="#381B42"/>
<path d="M359.971 231.652C358.133 231.652 355.198 230.193 353.359 229.059C351.657 228.012 350.161 226.849 349.147 225.775C347.927 224.485 347.532 223.468 347.977 222.746L410.494 121.106L411.531 121.745C411.444 122.127 412.791 124.092 416.514 126.382C420.237 128.673 422.601 128.985 422.91 128.722L423.937 129.374L361.421 231.014C361.141 231.466 360.626 231.652 359.971 231.652ZM410.756 123.001L349.014 223.381C348.908 223.853 350.517 225.881 353.998 228.019C357.721 230.309 360.078 230.622 360.393 230.359L422.125 129.989C421.713 129.952 421.238 129.853 420.703 129.693C419.29 129.271 417.574 128.463 415.872 127.416C414.147 126.355 411.734 124.57 410.753 122.998L410.756 123.001Z" fill="#381B42"/>
<path d="M444.448 94.0928L443.035 93.2385C442.975 93.2019 442.902 93.1986 442.839 93.2252L441.333 93.9067C441.174 93.9798 441.001 93.8369 441.041 93.6673L441.416 92.0584C441.433 91.9919 441.416 91.9188 441.366 91.8689L440.253 90.6456C440.136 90.5159 440.216 90.3065 440.392 90.2932L442.038 90.1536C442.108 90.1469 442.171 90.107 442.204 90.0472L443.022 88.6111C443.108 88.4582 443.331 88.4715 443.401 88.6344L444.042 90.1569C444.069 90.22 444.126 90.2666 444.195 90.2832L445.814 90.619C445.987 90.6555 446.044 90.8716 445.911 90.9846L444.661 92.065C444.608 92.1116 444.581 92.1781 444.588 92.2479L444.77 93.8901C444.79 94.0629 444.601 94.1859 444.451 94.0928H444.448Z" fill="#381B42"/>
<path d="M451.067 121.542L448.849 120.202C448.756 120.146 448.64 120.139 448.54 120.182L446.177 121.249C445.927 121.362 445.655 121.14 445.718 120.87L446.306 118.347C446.329 118.241 446.303 118.128 446.23 118.048L444.485 116.13C444.298 115.927 444.428 115.598 444.701 115.575L447.284 115.355C447.393 115.345 447.49 115.286 447.543 115.189L448.826 112.939C448.962 112.699 449.311 112.719 449.421 112.975L450.428 115.365C450.472 115.465 450.561 115.538 450.668 115.561L453.207 116.087C453.477 116.143 453.566 116.482 453.357 116.662L451.396 118.357C451.313 118.427 451.269 118.537 451.283 118.643L451.569 121.219C451.598 121.492 451.303 121.681 451.067 121.538V121.542Z" fill="#381B42"/>
<path d="M418.063 92.3708L416.358 92.291C416.285 92.2877 416.218 92.3209 416.175 92.3774L415.141 93.7371C415.031 93.88 414.805 93.8368 414.755 93.6639L414.303 92.0151C414.283 91.9453 414.234 91.8888 414.164 91.8655L412.551 91.3037C412.382 91.2439 412.352 91.0145 412.505 90.9148L413.934 89.9773C413.994 89.9374 414.031 89.8709 414.034 89.7978L414.071 88.0891C414.074 87.9096 414.283 87.8099 414.426 87.9229L415.759 88.99C415.816 89.0365 415.889 89.0498 415.959 89.0299L417.594 88.5379C417.767 88.4847 417.927 88.6542 417.86 88.8238L417.255 90.4228C417.229 90.4892 417.239 90.5657 417.279 90.6255L418.253 92.0284C418.356 92.178 418.243 92.3808 418.063 92.3708Z" fill="#381B42"/>
<path d="M456.143 101.995L450.465 103.182C449.621 103.358 449.717 104.272 450.598 104.438L456.02 105.462C456.528 105.559 457.007 105.313 457.05 104.934L457.306 102.72C457.359 102.254 456.741 101.865 456.143 101.992V101.995Z" fill="#381B42"/>
<path d="M411.119 99.6375L413.845 99.7605C414.25 99.7771 414.214 100.1 413.795 100.203L411.212 100.834C410.969 100.894 410.74 100.834 410.713 100.705L410.57 99.95C410.54 99.7904 410.833 99.6242 411.119 99.6375Z" fill="#381B42"/>
<path d="M443.78 105.253C444.11 105.253 444.378 104.985 444.378 104.654C444.378 104.324 444.11 104.056 443.78 104.056C443.449 104.056 443.181 104.324 443.181 104.654C443.181 104.985 443.449 105.253 443.78 105.253Z" fill="#381B42"/>
<path d="M410.298 110.316C410.858 110.316 411.312 109.862 411.312 109.302C411.312 108.742 410.858 108.288 410.298 108.288C409.738 108.288 409.284 108.742 409.284 109.302C409.284 109.862 409.738 110.316 410.298 110.316Z" fill="#381B42"/>
<path d="M436.466 123.234C436.734 123.234 436.952 123.017 436.952 122.749C436.952 122.481 436.734 122.263 436.466 122.263C436.198 122.263 435.981 122.481 435.981 122.749C435.981 123.017 436.198 123.234 436.466 123.234Z" fill="#381B42"/>
<path d="M395.744 290.372C331.379 290.372 279.015 238.007 279.015 173.643C279.015 109.278 331.379 56.9138 395.744 56.9138C460.109 56.9138 512.473 109.278 512.473 173.643C512.473 238.007 460.109 290.372 395.744 290.372ZM395.744 58.1272C332.051 58.1272 280.232 109.946 280.232 173.639C280.232 237.333 332.051 289.152 395.744 289.152C459.437 289.152 511.256 237.333 511.256 173.639C511.256 109.946 459.437 58.1272 395.744 58.1272Z" fill="#381B42"/>
<path d="M395.744 291.286C330.874 291.286 278.101 238.51 278.101 173.643C278.101 108.776 330.877 56 395.744 56C460.611 56 513.387 108.776 513.387 173.643C513.387 238.51 460.611 291.286 395.744 291.286ZM395.744 59.0417C332.553 59.0417 281.146 110.452 281.146 173.64C281.146 236.828 332.556 288.238 395.744 288.238C458.932 288.238 510.342 236.828 510.342 173.64C510.342 110.452 458.932 59.0417 395.744 59.0417Z" fill="#381B42"/>
<path d="M422.694 205.875L413.685 192.169C413.662 192.133 413.639 192.096 413.615 192.056L397.908 164.85L374.362 124.417L365.852 110.552L357.678 97.5769C357.255 96.922 356.743 97.5137 356.95 97.9858L363.744 111.785L370.848 126.425L392.237 168.038L406.701 195.929C406.721 195.969 406.741 196.009 406.757 196.049L413.446 211.018C413.446 211.018 421.939 232.805 429.582 231.047C429.898 230.974 430.193 230.824 430.449 230.621C434.542 227.583 430.709 218.98 427.122 212.77C424.858 208.847 422.691 205.879 422.691 205.879L422.694 205.875ZM427.93 225.964C426.773 226.632 423.628 223.348 420.905 218.631C418.183 213.914 416.91 209.549 418.067 208.881C419.223 208.212 422.368 211.497 425.091 216.214C427.813 220.931 429.087 225.296 427.93 225.964Z" fill="#381B42"/>
<path d="M333.703 222.261C333.68 222.284 333.66 222.307 333.636 222.331C330.797 225.206 327.071 227.111 324.335 230.086C324.255 230.173 324.172 230.279 324.195 230.392C324.212 230.482 324.288 230.545 324.362 230.601C325.389 231.406 326.419 232.207 327.446 233.011C327.802 233.287 328.175 233.59 328.327 234.012C328.48 234.434 328.304 235.013 327.865 235.116C327.516 235.199 327.177 234.966 326.895 234.747C325.262 233.48 323.63 232.21 322.001 230.944C320.954 230.129 321.323 229.445 322.201 228.71C325.126 226.263 328.052 223.813 330.98 221.366C331.336 221.071 331.705 220.765 332.154 220.655C332.782 220.499 333.497 220.795 333.832 221.347C333.919 221.489 333.985 221.656 333.962 221.822C333.939 221.995 333.829 222.134 333.709 222.264L333.703 222.261Z" fill="#381B42"/>
<path d="M335.391 229.342C335.747 228.9 336.445 228.713 336.595 228.122C336.715 227.653 336.884 227.271 337.389 227.121C337.559 227.071 337.682 227.118 337.788 227.251C338.134 227.693 338.22 228.314 338.034 228.843C337.831 229.418 337.203 229.661 336.638 229.734C336.176 229.794 335.711 229.751 335.249 229.711C335.265 229.568 335.302 229.458 335.391 229.342Z" fill="#381B42"/>
<path d="M334.969 234.733C335.471 234.504 335.94 234.215 336.419 233.939C337.037 233.58 337.672 233.251 338.307 232.922C339.175 232.47 340.069 232.044 340.96 231.639C341.641 231.329 342.595 230.954 343.237 231.542C343.313 231.612 343.406 231.698 343.499 231.782C344.015 232.254 343.732 233.098 343.37 233.577C342.572 234.624 341.804 235.698 341.033 236.765C340.328 237.745 339.387 238.736 338.919 239.856C338.776 240.195 338.855 240.544 338.566 240.83C338.457 240.937 338.324 241.016 338.204 241.113C337.918 241.349 337.738 241.681 337.562 242.007C337.001 243.051 336.439 244.095 335.877 245.138C335.491 245.853 334.933 245.923 334.175 245.783C333.563 245.67 333.497 245.212 333.51 244.66C333.527 243.885 334.082 243.224 334.534 242.645C335.149 241.857 335.993 240.97 336.216 239.973C336.336 239.444 335.681 239.235 335.298 239.102C334.85 238.945 334.414 238.743 333.999 238.507C333.37 238.147 332.952 237.888 332.247 238.244C331.525 238.606 330.881 239.095 330.176 239.487C329.69 239.756 328.58 240.381 328.058 239.906C327.769 239.643 327.829 239.245 328.135 239.058C328.58 238.789 329.045 238.55 329.491 238.28C330.282 237.808 331.053 237.296 331.828 236.795C332.007 236.678 332.19 236.558 332.317 236.386C332.446 236.209 332.639 235.425 332.965 235.555C333.048 235.588 333.104 235.661 333.164 235.727C333.35 235.937 333.51 235.894 333.673 235.688C333.985 235.289 334.398 234.976 334.863 234.773C334.9 234.757 334.933 234.743 334.969 234.727V234.733ZM337.217 235.382C337.18 235.398 337.147 235.415 337.11 235.428C336.376 235.757 335.561 236.007 335.039 236.662C334.65 237.15 336.409 237.981 336.698 238.167C336.914 238.307 337.15 238.344 337.376 238.197C337.539 238.091 337.652 237.928 337.765 237.772C338.297 237.011 338.802 236.213 339.391 235.498C339.527 235.332 340.498 234.168 340.248 233.939C340.029 233.74 339.657 233.995 339.47 234.128C338.766 234.624 338.001 235.026 337.217 235.382Z" fill="#381B42"/>
<path d="M346.348 246.199C346.165 246.073 345.916 246.076 345.71 246.156C345.687 246.163 345.66 246.169 345.637 246.179C345.411 246.282 345.221 246.452 345.029 246.598C344.54 246.964 343.988 247.206 343.42 247.396C342.951 247.556 342.313 247.821 341.811 247.821C341.724 247.821 341.634 247.778 341.598 247.698C341.575 247.645 341.581 247.589 341.585 247.529C341.761 246.379 342.761 245.411 343.523 244.6C344.297 243.779 345.125 242.925 345.461 241.818C345.547 241.545 345.594 241.253 345.541 240.97C345.461 240.591 345.195 240.282 344.912 240.009C344.876 239.979 344.839 239.943 344.796 239.92C344.779 239.906 344.753 239.896 344.729 239.89C344.643 239.87 344.56 239.896 344.48 239.926C344.164 240.059 343.882 240.272 343.609 240.491C343.054 240.944 342.512 241.416 341.997 241.911C340.504 243.33 339.135 245.125 339.477 247.319C339.573 247.964 339.946 248.609 340.554 248.865C341.256 249.151 342.047 248.865 342.741 248.566C343.35 248.303 343.955 248.031 344.55 247.752C345.128 247.479 345.707 247.203 346.285 246.931C346.338 246.901 346.388 246.877 346.438 246.841C346.628 246.678 346.561 246.342 346.352 246.203L346.348 246.199ZM348.047 238.031C347.961 237.842 347.804 237.689 347.651 237.549C347.615 237.52 347.578 237.483 347.542 237.453C347.499 237.423 347.449 237.4 347.402 237.387C347.292 237.363 347.176 237.403 347.086 237.473C346.707 237.752 346.288 238.527 346.741 238.902C346.903 239.035 347.143 239.079 347.349 239.029C347.781 238.932 348.263 238.5 348.05 238.031H348.047Z" fill="#381B42"/>
<path d="M346.348 246.199C346.166 246.072 345.916 246.076 345.71 246.156C345.614 246.229 345.521 246.302 345.431 246.382C345.022 246.747 344.683 247.229 344.547 247.751C345.125 247.479 345.703 247.203 346.282 246.93C346.335 246.9 346.385 246.877 346.435 246.84C346.624 246.677 346.558 246.342 346.348 246.202V246.199ZM350.873 248.323L350.856 248.36L350.879 248.353L350.873 248.323Z" fill="#381B42"/>
<path d="M354.184 251.873C353.775 251.777 353.356 251.783 352.94 251.757C352.764 251.743 352.538 251.684 352.515 251.507C352.502 251.381 352.601 251.275 352.698 251.192C353.386 250.553 354.074 249.918 354.762 249.287C355.251 248.841 355.773 248.326 355.809 247.668C355.852 246.857 354.975 246.139 354.19 246.351C354.064 246.381 353.934 246.438 353.808 246.418C353.522 246.375 353.399 246.046 353.283 245.783C352.831 244.786 351.651 244.284 350.56 244.317C349.47 244.34 348.436 244.792 347.435 245.231C346.837 245.5 346.229 245.766 345.707 246.155C345.913 246.076 346.162 246.069 346.345 246.199C346.551 246.338 346.618 246.674 346.431 246.837C346.382 246.873 346.335 246.897 346.278 246.927C345.7 247.199 345.122 247.475 344.543 247.748C344.483 247.96 344.457 248.18 344.477 248.406C344.533 249.18 345.185 249.915 345.956 249.892C346.491 249.879 346.953 249.533 347.422 249.277C348.094 248.918 348.842 248.728 349.583 248.565C350.673 248.323 351.764 248.12 352.864 247.957C352.162 249.194 351.358 250.367 350.457 251.471C350.244 251.733 350.018 251.996 349.726 252.166C349.42 252.348 349.061 252.415 348.715 252.488C346.987 252.877 345.341 253.608 343.795 254.493C341.591 255.743 337.552 258.681 339.241 261.68C339.57 262.265 340.222 262.714 340.887 262.611C341.379 262.537 341.781 262.192 342.146 261.863C343.067 261.041 343.985 260.214 344.892 259.379C345.494 258.824 346.106 258.266 346.621 257.624C346.81 257.391 346.987 257.142 347.183 256.906C347.342 256.717 347.505 256.534 347.671 256.344C347.934 256.058 348.197 255.766 348.463 255.473C348.695 255.211 348.931 254.948 349.164 254.695C349.42 254.629 349.699 254.533 349.802 254.287C349.809 254.273 349.816 254.263 349.822 254.25C349.859 254.134 349.859 254.014 349.912 253.908C349.972 253.804 350.081 253.738 350.191 253.682C351.538 252.963 353.163 252.797 354.626 253.236C354.759 253.273 354.905 253.316 355.035 253.273C355.297 253.183 355.314 252.797 355.181 252.555C354.985 252.182 354.583 251.969 354.184 251.873ZM352.551 247.003C352.149 247.119 351.687 247.093 351.265 247.186C350.431 247.345 349.603 247.568 348.768 247.734C348.416 247.801 348.064 247.861 347.708 247.924C347.548 247.947 346.96 248.143 346.857 247.977C346.717 247.751 347.272 247.568 347.385 247.515C348.419 247.023 349.443 246.548 350.593 246.408C350.903 246.371 352.206 246.195 352.678 246.451C352.774 246.504 352.837 246.574 352.847 246.671C352.867 246.83 352.701 246.956 352.548 247.006L352.551 247.003ZM348.113 254.363C348.097 254.429 348.06 254.506 348 254.579C347.562 255.124 347.123 255.669 346.684 256.215C346.139 256.889 345.514 257.491 344.939 258.139C344.394 258.754 343.802 259.329 343.167 259.848C342.569 260.34 341.857 260.958 341.106 261.181C340.82 261.264 340.498 261.268 340.238 261.121C339.53 260.719 339.999 259.788 340.285 259.27C340.644 258.618 341.129 258.04 341.678 257.541C342.482 256.81 343.416 256.241 344.367 255.716C345.098 255.314 345.843 254.935 346.591 254.559C346.953 254.376 347.316 254.193 347.705 254.08C348.02 253.991 348.167 254.147 348.117 254.36L348.113 254.363Z" fill="#381B42"/>
<path d="M367.015 256.65C366.577 256.481 366.061 256.79 365.669 257.092C364.399 258.066 363.126 259.04 361.856 260.014C361.71 260.127 361.467 260.227 361.364 260.071C361.301 259.971 361.354 259.845 361.407 259.739C362.458 257.711 363.894 255.906 364.978 253.898C365.28 253.339 365.553 252.644 365.234 252.096C364.635 251.065 363.628 251.754 362.99 252.302C362.255 252.934 361.477 253.532 360.593 253.928C359.709 254.327 358.572 254.593 357.628 254.25C357.554 254.224 357.478 254.19 357.431 254.127C357.388 254.067 357.375 253.994 357.372 253.921C357.345 253.472 357.554 253.05 357.757 252.651C358.253 251.677 358.748 250.703 359.243 249.729C359.33 249.563 359.416 249.387 359.423 249.201C359.436 248.955 359.31 248.719 359.137 248.546C358.964 248.373 358.748 248.246 358.535 248.123C358.442 248.07 358.342 248.017 358.236 248.02C357.96 248.03 357.787 248.423 357.648 248.619C357.405 248.951 357.185 249.3 356.973 249.656C356.531 250.394 356.145 251.165 355.816 251.956C355.311 253.18 354.509 254.978 355.716 256.059C356.474 256.737 357.717 256.816 358.688 256.667C359.24 256.584 359.785 256.371 360.224 256.022C360.447 255.846 361.125 254.895 361.464 255.098C361.623 255.194 361.527 255.533 361.497 255.67C361.394 256.132 361.148 256.547 360.959 256.976C360.669 257.628 360.407 258.292 360.181 258.971C360.011 259.476 359.861 260.008 359.955 260.533C360.048 261.055 360.46 261.56 360.988 261.587C361.347 261.607 361.68 261.414 361.969 261.205C362.777 260.626 363.445 259.871 364.18 259.203C365.014 258.445 365.945 257.79 366.939 257.259C367.118 257.162 367.331 256.979 367.231 256.803C367.205 256.76 367.162 256.727 367.118 256.7C367.085 256.68 367.052 256.664 367.019 256.65H367.015Z" fill="#381B42"/>
<path d="M370.978 249.61C370.636 249.501 370.466 249.889 370.406 250.086C370.29 250.445 370.23 251.109 370.705 251.262C371.224 251.432 371.636 250.976 371.789 250.514C371.949 250.016 371.407 249.863 370.978 249.614V249.61ZM367.012 256.651C366.916 256.608 366.816 256.591 366.72 256.598C366.56 256.94 366.447 257.196 366.414 257.299C366.377 257.409 366.347 257.519 366.321 257.628C366.68 257.429 367.025 257.219 367.245 256.99C367.331 256.801 367.142 256.718 367.009 256.654L367.012 256.651Z" fill="#381B42"/>
<path d="M376.802 249.56C377.088 249.619 377.351 249.683 377.587 249.772C377.434 249.889 377.308 249.882 377.168 249.852C377.081 249.835 377.005 249.799 376.925 249.779C376.865 249.766 376.796 249.772 376.756 249.762C376.776 249.703 376.792 249.603 376.806 249.563L376.802 249.56Z" fill="#381B42"/>
<path d="M385.768 248.819C385.774 248.992 385.728 249.174 385.671 249.337C385.349 250.295 384.804 251.166 384.375 252.077C383.125 254.723 382.433 257.595 381.16 260.228C379.94 262.857 378.002 265.67 378.767 268.721C378.84 269.014 378.98 269.336 379.269 269.416C379.475 269.472 379.698 269.376 379.847 269.227C380.266 268.818 380.492 268.126 380.695 267.594C381.539 265.397 382.384 263.2 383.228 261.002C383.311 262.797 382.882 264.569 382.247 266.235C381.922 267.086 381.546 267.913 381.144 268.731C380.791 269.453 380.469 270.35 379.96 270.982C379.801 271.181 379.578 271.341 379.322 271.374C378.677 271.454 378.212 270.759 378.009 270.24C377.487 268.897 377.45 267.408 377.63 265.979C377.873 264.057 378.494 262.206 379.182 260.401C379.578 259.363 380.007 258.293 379.937 257.186C377.65 259.839 375.808 262.88 374.522 266.138C374.382 266.491 374.206 266.886 373.847 266.999C373.554 267.089 373.229 266.949 373.022 266.72C372.65 266.311 372.534 265.643 372.411 265.121C372.261 264.489 372.171 263.845 372.142 263.196C372.095 262.212 372.261 261.278 372.374 260.311C372.394 260.148 372.397 259.869 372.161 259.875C372.055 259.875 371.962 259.942 371.879 260.005C370.928 260.723 370.237 261.757 369.203 262.372C368.069 263.047 366.846 262.448 366.344 261.278C366.121 260.763 366.048 260.198 366.035 259.639C366.028 259.387 366.018 259.134 366.028 258.881C366.038 258.629 366.091 258.389 366.161 258.137C366.291 257.658 366.424 257.179 366.617 256.724C366.716 256.491 366.833 256.268 366.966 256.049C367.099 255.83 367.185 255.58 367.308 255.354C367.461 255.068 367.627 254.789 367.79 254.51C368.093 253.991 368.495 253.074 369.136 252.891C370.137 252.608 370.433 254.423 370.373 255.055C370.184 257.036 368.638 258.705 368.495 260.69C368.395 262.083 370.513 260.191 370.782 259.905C371.586 259.041 372.481 258.263 373.039 257.199C374.066 255.245 374.681 253.084 375.622 251.083C375.974 250.335 376.357 249.597 376.766 248.879C376.975 248.506 377.194 248.141 377.42 247.778C377.553 247.565 377.75 247.067 378.002 246.974C378.082 246.927 378.182 246.927 378.275 246.941C378.617 246.994 378.933 247.213 379.099 247.516C379.548 248.333 378.677 249.251 378.295 249.939C377.507 251.362 376.47 252.605 375.745 254.071C375.014 255.554 374.336 257.143 373.943 258.755C373.717 259.683 373.657 260.65 373.621 261.597C373.584 262.545 373.458 263.456 373.365 264.38C373.342 264.599 373.415 264.942 373.717 264.812C374.126 264.636 374.365 264.077 374.565 263.715C375.742 261.591 377.085 259.556 378.571 257.638C379.967 255.836 381.556 254.058 382.603 251.993C383.148 250.92 383.554 249.76 384.305 248.822C384.471 248.616 384.661 248.413 384.907 248.317C385.153 248.22 385.469 248.254 385.638 248.456C385.725 248.559 385.758 248.686 385.764 248.822L385.768 248.819Z" fill="#381B42"/>
<path d="M391.452 261.261C391.399 261.261 391.346 261.261 391.293 261.271C390.728 261.368 390.252 261.743 389.797 262.092C388.46 263.12 387.048 264.054 385.578 264.882C385.346 265.015 385.05 265.141 384.827 264.998C384.681 264.905 384.621 264.722 384.578 264.556C384.348 263.662 384.352 262.711 384.584 261.817C384.624 261.67 384.681 261.507 384.817 261.438C384.96 261.368 385.129 261.424 385.282 261.468C386.05 261.69 386.898 261.511 387.596 261.118C388.294 260.726 388.859 260.134 389.355 259.506C389.727 259.034 390.083 258.472 390 257.877C389.896 257.143 389.185 256.671 388.54 256.308C388.198 256.115 387.829 255.919 387.437 255.926C387.084 255.933 386.755 256.102 386.456 256.285C383.78 257.921 381.403 261.757 382.806 264.928C383.231 265.885 384.249 266.66 385.279 266.464C385.771 266.371 386.197 266.082 386.599 265.786C387.593 265.051 388.534 264.243 389.408 263.369C389.983 262.794 390.558 262.172 391.316 261.876C391.532 261.793 391.811 261.634 391.728 261.418C391.688 261.311 391.575 261.268 391.456 261.261H391.452ZM388.444 257.472C388.863 257.515 388.889 258.11 388.853 258.466C388.713 259.799 386.868 260.178 386.1 260.224C385.771 260.151 385.668 260.138 385.685 259.992C385.741 259.43 387.068 257.329 388.444 257.472Z" fill="#381B42"/>
<path d="M406.528 265.745C406.544 265.792 406.554 265.842 406.558 265.895C406.574 266.194 406.335 266.46 406.056 266.576C405.777 266.693 405.467 266.686 405.168 266.686C403.689 266.686 402.213 266.799 400.75 267.032C400.258 267.112 399.69 267.181 399.311 266.856C398.988 266.576 398.925 266.111 398.889 265.686C398.513 261.593 398.297 257.488 398.081 253.386C398.061 253.027 398.061 252.621 398.31 252.365C398.583 252.089 399.025 252.109 399.411 252.139C401.063 252.272 402.728 252.262 404.38 252.106C404.753 252.069 405.138 252.029 405.494 252.149C405.85 252.269 406.162 252.598 406.132 252.97C406.106 253.283 405.843 253.532 405.554 253.645C405.265 253.758 404.939 253.755 404.626 253.751C403.29 253.738 401.95 253.721 400.614 253.708C400.488 253.708 400.348 253.708 400.258 253.798C400.158 253.898 400.162 254.057 400.175 254.197C400.295 255.527 400.411 256.856 400.531 258.186C400.544 258.352 400.564 258.528 400.677 258.655C400.87 258.871 401.216 258.811 401.501 258.754C402.143 258.628 402.808 258.625 403.45 258.741C403.719 258.791 404.031 258.904 404.098 259.17C404.184 259.512 403.802 259.778 403.469 259.901C402.964 260.087 402.436 260.207 401.9 260.25C401.638 260.274 401.355 260.284 401.139 260.437C400.744 260.716 400.77 261.301 400.837 261.783C400.99 262.863 401.139 263.944 401.292 265.024C401.312 265.17 401.335 265.327 401.415 265.45C401.728 265.945 402.592 265.556 403.031 265.506C403.725 265.426 404.424 265.34 405.118 265.26C405.411 265.227 405.713 265.194 405.996 265.277C406.229 265.346 406.445 265.519 406.524 265.742L406.528 265.745Z" fill="#381B42"/>
<path d="M418.126 259.004C418.076 259.011 418.03 259.027 417.987 259.04C418.06 259.443 418.073 259.862 418.126 260.277C418.302 259.875 418.455 259.399 418.419 259.18C418.389 259.04 418.273 258.974 418.126 259.004Z" fill="#381B42"/>
<path d="M417.634 261.557C417.628 261.583 417.618 261.61 417.611 261.633C417.249 262.936 417.415 264.336 417.092 265.645C416.95 266.227 416.634 266.852 416.052 266.998C415.64 267.102 415.194 266.922 414.888 266.626C414.583 266.33 414.4 265.931 414.257 265.529C413.373 263.039 413.875 260.24 413.127 257.707C411.73 259.13 411.857 261.523 410.593 263.066C410.377 263.332 410.115 263.568 409.792 263.687C409.47 263.807 409.084 263.784 408.818 263.571C408.556 263.362 408.453 263.016 408.366 262.69C408.074 261.56 407.851 260.41 407.705 259.25C407.595 258.395 407.206 257.019 408.064 256.417C408.33 256.231 408.722 256.201 408.978 256.404C409.197 256.577 409.274 256.869 409.334 257.142C409.633 258.522 409.739 259.944 409.653 261.354C410.434 260.686 410.783 259.662 411.268 258.754C411.717 257.917 412.306 257.152 413.004 256.504C413.266 256.258 413.582 256.018 413.941 256.038C414.363 256.062 414.679 256.441 414.845 256.829C415.191 257.654 415.088 258.588 415.055 259.482C414.992 261.224 415.231 262.979 415.756 264.642C416.288 263.039 416.82 261.44 417.348 259.838C417.455 259.515 417.631 259.14 417.967 259.113C418.279 259.894 417.867 260.745 417.628 261.557H417.634Z" fill="#381B42"/>
<path d="M425.413 256.438C425.31 256.225 424.934 256.324 424.728 256.491C422.993 257.9 422.441 260.397 420.713 261.813C420.623 261.886 420.523 261.959 420.407 261.972C420.171 261.999 419.994 261.773 419.878 261.567C418.878 259.808 418.711 257.601 419.433 255.713C419.639 255.171 419.928 254.642 420.37 254.27C420.486 254.174 420.659 254.091 420.776 254.184C420.836 254.234 420.855 254.313 420.869 254.386C420.922 254.642 420.952 254.915 421.092 255.138C421.231 255.36 421.524 255.517 421.76 255.404C421.979 255.297 422.049 255.025 422.076 254.785C422.122 254.357 422.102 253.918 422.019 253.492C421.982 253.299 421.926 253.103 421.796 252.96C421.61 252.758 421.314 252.704 421.042 252.661C420.5 252.578 419.911 252.498 419.426 252.751C419.11 252.914 418.874 253.203 418.668 253.496C416.943 255.956 416.667 259.512 418.186 262.132C418.688 262.996 419.552 263.831 420.54 263.684C421.444 263.548 422.016 262.667 422.468 261.869C423.425 260.181 424.383 258.492 425.34 256.803C425.396 256.703 425.453 256.59 425.426 256.481C425.423 256.464 425.416 256.451 425.41 256.434L425.413 256.438Z" fill="#381B42"/>
<path d="M434.754 253.898C434.495 255.6 434.611 257.382 434.718 259.117C434.738 259.446 434.748 259.812 434.535 260.064C434.279 260.37 433.797 260.374 433.425 260.231C432.76 259.975 432.294 259.37 431.929 258.758C430.955 257.139 430.403 255.304 429.515 253.635C428.674 254.51 428.225 255.7 428.039 256.9C427.853 258.1 427.916 259.32 427.979 260.533C427.677 260.606 427.371 260.679 427.062 260.653C426.753 260.626 426.437 260.483 426.284 260.217C426.198 260.071 426.168 259.898 426.138 259.732C425.357 255.258 424.639 250.773 423.977 246.282C423.924 245.913 423.901 245.461 424.206 245.245C424.363 245.135 424.562 245.122 424.752 245.112C424.931 245.105 425.134 245.108 425.257 245.238C425.347 245.338 425.367 245.481 425.38 245.614C425.719 248.998 426.045 252.365 426.547 255.723C426.573 255.902 426.653 256.128 426.836 256.125C427.202 255.324 427.564 254.523 427.93 253.722C428.109 253.329 428.289 252.931 428.574 252.608C428.857 252.282 429.263 252.04 429.691 252.046C430.406 252.063 430.921 252.738 431.214 253.393C432.088 255.364 432.028 257.811 433.518 259.37C434.535 256.95 433.631 254.067 434.545 251.604C434.605 251.441 434.678 251.275 434.811 251.165C434.944 251.056 435.153 251.019 435.29 251.129C435.482 251.288 435.399 251.594 435.306 251.827C435.044 252.498 434.871 253.19 434.764 253.895L434.754 253.898Z" fill="#381B42"/>
<path d="M447.576 254.932C446.931 252.525 445.957 250.128 445.914 247.668C445.901 247.316 445.914 246.96 445.951 246.608C445.97 246.455 445.98 246.272 445.871 246.162C445.681 245.973 445.352 246.182 445.219 246.412C445.176 246.485 445.139 246.558 445.109 246.631C444.94 247.077 444.95 247.589 444.983 248.074C445.106 249.889 445.452 251.684 445.964 253.426C446.14 254.024 446.336 254.679 446.087 255.254C444.764 253.901 443.896 252.173 443.211 250.414C442.523 248.656 441.995 246.834 441.233 245.099C440.997 244.563 440.588 243.942 440.003 244.008C439.638 244.045 439.358 244.351 439.146 244.653C438.654 245.348 438.281 246.133 438.062 246.96C437.39 246.588 436.533 246.595 435.871 246.984C434.502 247.781 434.495 249.613 434.731 251.252C434.804 251.787 434.907 252.299 435 252.745V252.751C435.03 252.891 435.057 253.02 435.08 253.147C435.19 253.702 435.306 254.28 435.536 254.792C435.622 254.988 435.725 255.175 435.851 255.354C436.313 255.989 437.174 256.408 437.902 256.122C438.65 255.823 438.979 254.915 438.973 254.108C438.966 253.296 438.724 252.499 438.73 251.691C438.737 251.192 438.833 250.697 438.87 250.205C438.913 249.68 438.883 249.151 438.943 248.632C439.029 247.928 439.272 247.25 439.515 246.581C439.545 246.495 439.581 246.405 439.661 246.369C439.837 246.279 440.007 246.502 440.08 246.684C441.293 249.759 442.32 252.987 444.385 255.564C444.804 256.092 445.299 256.611 445.944 256.8C446.595 256.996 447.417 256.734 447.636 256.099C447.769 255.726 447.679 255.314 447.576 254.935V254.932ZM437.966 248.636C437.916 249.201 437.769 249.749 437.65 250.305C437.414 251.388 437.267 252.495 437.211 253.606C437.211 253.679 437.204 253.758 437.161 253.818C437.125 253.878 437.035 253.915 436.972 253.871C436.942 253.848 436.922 253.812 436.912 253.775C436.297 252.203 435.805 249.573 437.321 248.343C437.48 248.217 437.71 248.107 437.863 248.233C437.972 248.33 437.979 248.496 437.966 248.636Z" fill="#381B42"/>
<path d="M445.871 246.162C445.681 245.973 445.352 246.182 445.219 246.412C445.176 246.485 445.139 246.558 445.109 246.631C445.372 246.983 445.638 247.332 445.914 247.665C445.901 247.313 445.914 246.957 445.95 246.604C445.97 246.452 445.98 246.269 445.871 246.159V246.162Z" fill="#381B42"/>
<path d="M464.64 224.196C464.616 224.139 464.593 224.083 464.573 224.026C464.264 223.215 463.938 222.128 464.091 221.257C464.314 219.987 465.803 218.565 467.163 219.123C468.283 219.582 468.729 220.922 468.795 222.035C468.832 222.647 468.772 223.278 468.576 223.864C468.486 224.126 468.373 224.385 468.217 224.618C468.074 224.831 467.638 225.137 467.718 225.413C467.738 225.482 467.791 225.542 467.841 225.596C468.26 226.038 470.328 227.69 470.923 226.932C471.042 226.779 471.069 226.573 471.069 226.377C471.069 225.06 471.032 223.731 470.849 222.424C470.72 221.493 470.534 220.543 470.74 219.628C470.776 219.459 470.893 219.253 471.059 219.293C471.212 219.329 471.242 219.532 471.242 219.692C471.248 221.965 472.329 224.123 472.395 226.397C472.409 226.832 472.379 227.281 472.192 227.677C471.87 228.358 471.105 228.757 470.354 228.8C469.603 228.843 468.862 228.581 468.197 228.225C466.584 227.361 465.321 225.895 464.633 224.203L464.64 224.196ZM466.801 220.862C466.511 220.656 465.983 220.386 465.74 220.729C464.942 221.859 466.116 224.043 466.578 224.369C466.697 224.452 466.757 224.369 466.987 224.12C467.319 223.431 467.894 221.633 466.801 220.862Z" fill="#381B42"/>
<path d="M454.683 244.846C454.208 243.676 453.959 242.409 453.945 241.143C453.945 240.946 453.939 240.734 453.793 240.607C453.593 240.438 453.257 240.577 453.141 240.813C453.025 241.046 453.061 241.325 453.098 241.588C453.334 243.263 453.573 244.942 453.809 246.618C452.609 245.587 451.854 244.151 451.123 242.745L450.229 241.01C450.039 240.637 449.84 240.262 449.527 239.986C449.218 239.713 448.766 239.554 448.377 239.706C447.922 239.889 447.712 240.411 447.579 240.887C447.227 242.183 447.068 243.536 447.124 244.882C447.144 245.394 447.167 245.966 446.825 246.348C446.349 245.125 445.698 243.968 444.9 242.921C444.667 242.628 444.411 242.323 444.052 242.22C442.354 241.714 443.7 244.52 443.999 245.002C444.352 245.557 444.724 246.099 445.106 246.628C445.136 246.554 445.173 246.481 445.216 246.408C445.349 246.175 445.678 245.969 445.867 246.159C445.977 246.269 445.964 246.451 445.947 246.604C445.911 246.957 445.897 247.312 445.911 247.665C446.05 247.841 446.19 248.01 446.336 248.183C446.512 248.396 446.715 248.616 446.974 248.709C447.317 248.818 447.699 248.692 447.955 248.439C448.218 248.197 448.357 247.854 448.447 247.509C448.929 245.554 447.702 243.423 448.381 241.521C450.212 243.563 450.957 246.471 453.028 248.27C453.547 248.722 454.281 249.098 454.886 248.768C455.049 248.682 455.179 248.549 455.275 248.396C455.471 248.087 455.538 247.678 455.508 247.306C455.448 246.441 455.009 245.657 454.68 244.846H454.683Z" fill="#381B42"/>
<path d="M462.007 240.281C461.711 239.347 461.272 238.46 460.704 237.662C460.614 237.532 460.428 237.399 460.321 237.512C460.262 237.575 460.275 237.672 460.291 237.758C460.561 239.125 460.83 240.488 461.099 241.854C461.162 242.166 461.109 242.628 460.767 242.761C460.295 242.947 459.826 242.456 459.557 242.146C457.522 239.803 455.664 237.31 453.929 234.737C453.699 234.394 453.463 234.032 453.423 233.62C453.377 233.094 453.656 232.602 453.925 232.15C454.344 231.452 454.76 230.754 455.179 230.056C455.302 229.85 455.428 229.637 455.465 229.398C455.501 229.158 455.425 228.889 455.219 228.763C455.009 228.633 454.727 228.693 454.53 228.839C454.334 228.985 454.205 229.202 454.078 229.414C453.603 230.222 453.124 231.027 452.649 231.834C452.582 231.944 452.509 232.064 452.386 232.1C452.22 232.154 452.051 232.031 451.928 231.911C451.695 231.682 451.495 231.416 451.246 231.203C450.997 230.99 450.678 230.83 450.352 230.87C449.933 230.924 449.75 231.286 449.727 231.668C449.697 232.117 450.003 232.526 450.302 232.828C450.648 233.174 451.053 233.49 451.229 233.945C451.436 234.487 451.266 235.096 451.06 235.637C450.784 236.365 450.445 237.07 450.046 237.738C449.933 237.928 449.837 238.21 450.023 238.33C450.079 238.367 450.149 238.373 450.212 238.373C450.747 238.383 451.256 238.074 451.588 237.655C451.924 237.236 452.11 236.718 452.243 236.199C452.273 236.086 452.31 235.96 452.41 235.9C452.569 235.804 452.765 235.937 452.898 236.066C453.42 236.578 453.839 237.183 454.258 237.782C455.056 238.925 455.85 240.069 456.648 241.212C457.21 242.017 457.778 242.831 458.513 243.479C459.248 244.128 460.178 244.606 461.162 244.613C461.608 244.613 462.11 244.48 462.319 244.084C462.419 243.898 462.436 243.679 462.442 243.466C462.482 242.389 462.329 241.309 462.003 240.281H462.007ZM451.904 232.087C451.904 232.087 451.911 232.064 451.911 232.05H451.918V232.057C451.918 232.057 451.904 232.074 451.904 232.087Z" fill="#381B42"/>
<path d="M455.813 237.482C455.813 237.482 455.819 237.476 455.819 237.469H455.79C455.79 237.469 455.81 237.476 455.813 237.482Z" fill="#381B42"/>
<path d="M458.486 225.572C459.085 224.874 458.24 223.348 457.875 222.427C457.858 222.384 457.822 222.328 457.792 222.301C457.728 222.248 457.665 222.221 457.562 222.215C457.246 223.322 457.463 224.419 457.825 225.446C458.194 225.625 458.284 225.811 458.486 225.572Z" fill="#381B42"/>
<path d="M466.933 231.339C466.741 229.793 466.358 228.25 466.481 226.698C466.494 226.538 466.494 226.346 466.358 226.263C466.242 226.193 466.079 226.259 465.999 226.369C465.919 226.479 465.899 226.625 465.886 226.761C465.66 228.985 466.069 231.259 465.64 233.453C465.607 233.619 465.557 233.805 465.411 233.895C465.258 233.988 465.065 233.938 464.896 233.879C464.008 233.563 463.207 233.004 462.605 232.283C462.495 232.153 462.389 231.984 462.442 231.824C462.479 231.714 462.582 231.645 462.672 231.575C463.34 231.063 463.689 230.218 463.755 229.381C463.822 228.543 463.632 227.705 463.383 226.904C463.28 226.568 463.16 226.223 462.921 225.963C462.588 225.598 462.067 225.455 461.575 225.475C459.304 225.571 458.952 228.054 459.311 229.8C459.726 231.811 460.92 233.669 462.625 234.826C463.213 235.225 463.875 235.551 464.583 235.614C465.291 235.677 466.052 235.444 466.501 234.892C466.88 234.424 466.993 233.792 467.023 233.19C467.053 232.572 467.006 231.957 466.93 231.339H466.933ZM461.817 230.637C461.777 230.694 461.734 230.744 461.684 230.79C461.611 230.857 461.508 230.91 461.422 230.867C461.382 230.847 461.352 230.807 461.325 230.77C460.903 230.185 460.637 229.49 460.551 228.772C460.491 228.27 460.471 227.303 461.066 227.08C461.292 226.994 461.551 227.074 461.754 227.207C462.233 227.526 462.465 228.128 462.462 228.703C462.459 229.278 462.246 229.83 461.99 230.345C461.94 230.445 461.887 230.548 461.821 230.637H461.817Z" fill="#381B42"/>
<path d="M464.091 364.351C464.037 365.304 463.719 365.661 464.412 365.885C466.448 366.546 468.96 363.373 470.606 361.76C470.681 361.684 470.772 361.557 470.804 361.467C470.866 361.283 470.862 361.128 470.783 360.897C468.126 361.211 465.968 362.658 464.091 364.351Z" fill="#381B42"/>
<path d="M315.943 358.837C315.203 358.31 314.25 358.216 313.344 358.187C311.197 358.118 309.042 358.328 306.909 358.097C304.92 357.884 299.762 355.873 298.611 358.4C298.366 358.941 298.33 359.555 298.301 360.15C297.831 369.737 297.889 379.345 298.109 388.942C298.131 389.851 298.189 390.848 298.81 391.508C299.582 392.327 300.878 392.284 302 392.197C305.559 391.934 309.132 391.898 312.695 392.089C313.323 392.122 313.965 392.161 314.561 391.974C315.16 391.786 315.712 391.313 315.802 390.692C315.91 389.96 315.329 389.263 314.644 388.989C313.958 388.715 313.185 388.751 312.446 388.798C309.919 388.949 307.389 389.101 304.862 389.252C304.516 389.274 304.076 389.238 303.953 388.913C303.798 388.505 303.967 387.664 303.92 387.213C303.826 386.336 303.675 385.463 303.549 384.589C303.26 382.597 303.133 380.612 303.372 378.612C303.429 378.132 303.516 377.623 303.837 377.266C304.39 376.649 305.353 376.724 306.183 376.735C307.483 376.75 308.782 376.472 309.959 375.927C310.648 375.605 311.399 374.905 311.081 374.212C310.908 373.837 310.478 373.656 310.081 373.537C308.594 373.083 307.01 372.949 305.465 373.144C304.667 373.245 303.675 373.35 303.245 372.671C303.058 372.375 303.047 372.007 303.04 371.657C302.975 368.51 302.913 365.362 302.848 362.211C302.845 362.016 302.841 361.811 302.935 361.641C303.155 361.23 303.736 361.233 304.198 361.287C307.504 361.695 310.836 361.933 314.167 361.995C315.051 362.013 316.087 361.941 316.578 361.208C316.86 360.789 316.856 360.27 316.676 359.797C316.531 359.418 316.268 359.071 315.939 358.837H315.943Z" fill="#381B42"/>
<path d="M430.171 381.081C428.33 384.271 426.489 387.462 424.648 390.656C422.912 385.289 426.056 379.529 425.583 373.909C425.471 372.559 424.872 370.953 423.529 370.765C422.587 370.632 421.732 371.281 421.014 371.906C417.885 374.634 414.997 377.641 412.398 380.878C412.593 377.865 412.792 374.854 412.987 371.841C413.041 371.029 413.048 370.097 412.453 369.542C411.702 368.845 410.395 369.22 409.767 370.029C409.139 370.837 409.002 371.913 408.868 372.927C407.764 381.25 405.31 389.393 401.632 396.94C398.993 388.638 402.899 379.788 403.198 371.083C403.227 370.249 403.202 369.35 402.707 368.679C401.751 367.383 399.679 367.712 398.336 368.6C396.99 369.487 395.879 370.801 394.33 371.249C393.132 369.062 389.873 368.827 387.732 370.108C385.592 371.39 384.311 373.689 383.127 375.883C380.211 381.283 377.294 386.682 374.378 392.082C372.046 387.675 374.703 382.286 374.147 377.334C373.923 375.345 372.62 373.053 370.628 373.23C369.754 373.306 369.004 373.862 368.307 374.393C366.239 375.97 364.171 377.547 362.103 379.124C364.023 371.812 365.943 364.499 367.867 357.187C368.08 356.371 368.293 355.498 368.011 354.704C367.729 353.91 366.733 353.318 366.019 353.765C365.643 354 365.456 354.44 365.3 354.859C362.561 362.229 363.019 370.711 359.071 377.511C356.515 381.911 352.354 385.145 348.005 387.783C347.499 388.09 346.853 388.389 346.355 388.075C346.019 387.862 345.886 387.444 345.796 387.058C344.392 381.091 347.106 374.378 352.264 371.068C351.841 372.068 352.805 373.299 353.891 373.292C354.978 373.284 355.891 372.259 355.974 371.177C356.057 370.094 355.436 369.036 354.57 368.383C353.05 367.235 350.885 367.224 349.142 367.993C347.402 368.762 346.038 370.198 344.951 371.761C340.858 377.648 340.028 385.661 334.802 390.569C335.231 385.029 335.661 379.492 336.094 373.952C336.191 372.696 336.025 371.05 334.805 370.747C334.094 370.57 333.38 370.989 332.773 371.404C328.929 374.05 325.558 377.381 322.866 381.189C323.364 378.063 323.382 374.858 322.909 371.729C322.101 366.351 318.26 374.631 318.166 376.619C318.044 379.186 318.686 381.73 319.513 384.159C319.838 385.119 320.328 386.191 321.306 386.451C322.49 386.765 323.555 385.708 324.313 384.748C326.941 381.431 329.456 378.023 331.857 374.537C331.654 379.713 331.452 384.888 331.25 390.064C331.189 391.641 331.145 393.302 331.864 394.706C332.582 396.11 334.347 397.117 335.776 396.445C336.859 395.936 337.372 394.709 337.787 393.59C338.808 390.844 339.833 388.093 340.855 385.347C341.201 386.895 341.566 388.48 342.421 389.819C343.276 391.154 344.745 392.215 346.33 392.14C347.68 392.075 348.849 391.234 349.91 390.396C353.022 387.949 355.96 385.282 358.695 382.423C357.826 384.195 357.634 386.292 358.168 388.191C358.324 388.747 358.569 389.321 359.056 389.631C359.854 390.144 360.973 389.696 361.554 388.949C362.135 388.198 362.334 387.234 362.597 386.325C363.766 382.315 366.593 378.814 370.263 376.818C370.256 381.846 370.805 386.874 371.895 391.779C372.234 393.309 373.194 395.215 374.732 394.908C375.717 394.709 376.251 393.663 376.641 392.739C378.03 389.454 379.42 386.166 380.81 382.882C380.561 385.174 380.553 387.989 382.528 389.18C384.231 390.209 386.538 389.306 387.83 387.794C389.118 386.282 389.696 384.307 390.472 382.477C392.23 378.319 395.164 374.667 398.845 372.054C399.044 380.73 395.51 389.707 398.452 397.875C398.838 398.947 399.365 400.022 400.267 400.715C401.173 401.408 402.538 401.607 403.44 400.91C404.119 400.383 404.393 399.495 404.628 398.669C405.891 394.193 407.158 389.718 408.421 385.242C408.948 386.455 410.637 386.765 411.85 386.235C413.062 385.704 413.9 384.592 414.683 383.524C416.881 380.528 419.079 377.536 421.277 374.54C420.844 380.297 420.689 386.076 420.819 391.851C420.844 392.944 420.887 394.074 421.349 395.067C421.811 396.059 422.808 396.886 423.901 396.806C425.338 396.702 426.211 395.218 426.81 393.908C428.915 389.31 430.748 384.592 432.3 379.781C432.26 379.76 432.217 379.745 432.177 379.731C431.391 379.46 430.611 380.337 430.171 381.099V381.081ZM392.204 374.378C392.042 374.652 391.858 374.912 391.659 375.165C391.273 375.656 390.84 376.111 390.418 376.573C388.393 378.774 386.563 381.149 384.953 383.668C384.856 383.82 384.751 383.982 384.585 384.058C384.423 384.138 384.184 384.087 384.127 383.914C384.101 383.838 384.116 383.755 384.13 383.676C384.574 381.398 385.44 379.207 386.657 377.237C387.711 375.533 389.403 372.696 391.789 373.18C391.995 373.223 392.215 373.299 392.331 373.476C392.504 373.743 392.367 374.1 392.204 374.378Z" fill="#381B42"/>
<path d="M492.489 378.551C490.504 379.72 488.865 381.38 487.154 382.925C485.938 384.026 480.466 389.61 478.817 388.368C478.355 388.021 478.146 387.437 477.99 386.877C477.604 385.48 476.673 381.593 477.951 380.424C478.337 380.07 478.94 380.193 479.459 380.269C481.358 380.539 483.3 379.803 484.805 378.616C486.31 377.428 487.429 375.822 488.396 374.169C488.93 373.252 489.443 372.231 489.287 371.184C489.071 369.737 487.696 368.791 486.425 368.069C485.577 367.589 484.686 367.113 483.715 367.03C482.491 366.921 481.289 367.448 480.286 368.159C477.788 369.924 476.337 372.667 474.814 375.371C474.818 375.41 474.821 375.45 474.821 375.49C474.821 375.685 474.803 375.811 474.908 375.667C474.901 375.66 474.821 375.382 474.814 375.374C474.02 376.778 473.031 378.45 472.013 379.673C469.501 382.705 465.921 384.636 463.019 387.296C462.561 387.715 462.109 388.162 461.535 388.4C460.962 388.639 460.233 388.617 459.803 388.169C459.586 387.946 459.471 387.646 459.373 387.35C458.709 385.361 458.529 383.214 458.861 381.142C458.897 380.907 458.948 380.658 459.103 380.478C459.637 379.846 461.12 380.381 461.842 380.344C463.022 380.283 464.167 379.85 465.156 379.218C466.469 378.381 467.541 377.212 468.509 375.995C469.151 375.187 469.765 374.339 470.126 373.375C470.757 371.697 470.367 370.123 469.075 368.903C466.141 366.135 462.091 367.098 459.619 369.834C458.699 370.852 457.648 371.834 456.995 373.057C455.533 375.808 453.472 378.168 451.567 380.619C450.56 381.914 449.553 383.21 448.542 384.506C446.048 387.711 443.821 391.255 441.594 394.652C441.341 395.042 440.944 395.482 440.504 395.341C440.165 395.233 440.028 394.839 439.941 394.493C439.522 392.782 439.313 391.021 439.309 389.259C439.385 388.527 440.641 376.349 440.97 373.891C441.161 372.74 441.305 371.581 441.399 370.419C441.457 369.686 441.507 368.91 441.933 368.315C442.265 367.845 442.781 367.549 443.294 367.282C445.896 365.929 448.74 365.037 451.65 364.658C452.278 364.575 453.072 364.366 453.137 363.734C453.158 363.529 453.09 363.33 453.014 363.135C453.01 363.124 453.007 363.114 453.003 363.103C452.602 362.056 452.155 361.385 450.913 361.63C449.206 361.966 447.744 362.312 446.167 363.02C445.257 363.428 443.417 364.362 442.572 363.37C442.186 362.915 442.424 362.229 442.554 361.645C442.774 360.666 442.576 359.544 441.843 358.862C441.049 358.122 439.735 358.172 439.017 358.992C438.162 359.963 438.284 361.547 438.32 362.742C438.364 364.095 438.248 365.647 437.176 366.474C436.642 366.885 435.963 367.037 435.335 367.279C433.69 367.914 432.296 369.231 430.546 369.452C430.228 369.491 429.903 369.495 429.607 369.61C429.312 369.726 429.041 369.989 429.041 370.307C429.041 370.578 429.232 370.809 429.434 370.989C430.297 371.754 431.531 372.003 432.675 371.859C433.82 371.715 434.892 371.216 435.884 370.628C436.317 370.372 436.898 370.105 437.277 370.437C437.49 370.621 437.541 370.931 437.559 371.213C437.617 372.148 437.598 373.736 437.541 375.331C437.541 375.331 433.964 390.783 436.292 395.774C436.989 398.849 439.425 401.145 442.424 398.669C443.998 397.37 445.626 395.998 446.463 394.136C446.463 394.136 451.447 387.498 454.017 383.337C454.017 383.405 454.017 383.474 454.017 383.546C454.032 385.737 454.602 387.996 456.013 389.674C457.424 391.353 459.781 392.324 461.886 391.714C463.593 391.219 464.87 389.83 466.054 388.501C468.332 385.946 470.606 383.391 472.883 380.835C472.97 383.106 473.06 385.412 473.778 387.567C474.475 389.66 476.023 391.725 478.21 392.006C479.936 392.23 481.603 391.288 482.953 390.194C486.83 387.054 489.342 382.427 493.409 379.54C493.68 379.345 493.994 379.092 493.962 378.76C493.9 378.168 492.998 378.258 492.485 378.561L492.489 378.551ZM484.108 370.426C485.079 370.426 485.274 371.787 485.274 372.613C485.274 375.725 481.091 377.038 479.34 377.331C478.561 377.233 478.319 377.233 478.319 376.894C478.319 375.58 480.896 370.426 484.104 370.426H484.108ZM465.34 370.426C466.311 370.426 466.505 371.787 466.505 372.613C466.505 375.725 462.322 377.038 460.572 377.331C459.792 377.233 459.55 377.233 459.55 376.894C459.55 375.58 462.127 370.426 465.336 370.426H465.34ZM442.251 362.933C442.251 362.933 442.251 362.94 442.255 362.944C442.233 362.951 442.211 362.962 442.19 362.984C442.211 362.969 442.229 362.951 442.251 362.933ZM456.049 375.483C456.049 375.53 456.042 375.558 456.035 375.584C456.002 375.187 455.966 374.956 455.966 374.956C456.01 375.133 456.049 375.306 456.049 375.483Z" fill="#381B42"/>
<path d="M384.664 326.739L383.809 325.984L382.304 327.659L382.921 328.41L384.664 326.739Z" fill="#381B42"/>
<path d="M388.678 342.714L388.111 346.81L388.678 346.262L389.068 344.385L388.678 342.714Z" fill="#381B42"/>
<path d="M322.588 325.504C322.707 325.356 322.83 325.23 322.956 325.136C323.736 324.356 324.901 323.191 324.901 322.072C324.901 321.83 324.414 321.682 324.122 321.682C322.335 321.682 321.386 323.905 320.769 325.19C319.296 328.262 318 331.416 316.856 334.628C316.845 334.628 316.838 334.625 316.824 334.621C315.607 336.956 314.005 343.861 313.272 343.861C312.106 343.861 311.471 341.187 311.471 340.263C311.471 337.592 311.594 334.574 311.713 331.867C311.821 330.896 312.041 329.619 312.077 329.186C312.171 328.056 312.262 326.923 312.355 325.793C312.399 319.108 312.63 312.424 313.045 305.754C313.077 305.256 313.07 304.671 312.677 304.368C312.536 304.26 312.359 304.206 312.186 304.162C310.85 303.837 309.074 304.415 309.197 306.054C309.703 312.68 308.75 319.292 308.75 325.919C308.75 331.745 307.407 337.603 308.392 343.414C308.851 346.121 309.684 351.848 313.716 350.838C317.441 349.903 318.22 344.973 318.506 341.598C318.513 341.616 318.524 341.638 318.531 341.656C318.932 338.628 319.48 335.621 320.18 332.647C320.733 330.304 321.209 327.543 322.577 325.511L322.588 325.504Z" fill="#381B42"/>
<path d="M329.666 315.261C329.666 315.651 329.666 315.697 330.055 316.087C331.467 314.921 333.315 313.023 333.315 311.078C333.315 309.522 331.467 307.869 329.669 307.869C329.038 307.869 328.792 309.132 328.792 309.717C328.792 310.543 329.229 310.98 329.861 312.002C329.814 313.12 329.666 314.142 329.666 315.261Z" fill="#381B42"/>
<path d="M333.149 343.056C333.149 343.399 333.196 343.778 333.452 344.006C333.946 344.446 334.715 343.977 335.159 343.482C336.531 341.966 337.494 340.082 337.917 338.079C338.238 336.556 338.321 334.831 339.447 333.755C340.06 333.167 340.898 332.878 341.71 332.618C343.497 332.052 345.308 331.561 347.135 331.142C347.373 331.088 347.636 331.037 347.853 331.156C348.037 331.258 348.142 331.456 348.225 331.647C349.69 334.914 348.961 338.79 350.148 342.168C350.614 343.493 351.625 344.861 353.025 344.857C354.288 344.854 355.292 343.666 355.541 342.432C355.79 341.194 355.472 339.923 355.165 338.7C352.866 329.431 351.321 319.978 350.553 310.461C350.455 309.233 350.34 307.931 349.603 306.945C345.63 301.621 341.053 316.236 340.356 318.304C339.028 322.241 337.209 326.017 336.206 330.045C335.563 332.633 335.264 335.304 334.462 337.845C333.935 339.516 333.192 341.165 333.152 342.912C333.152 342.959 333.152 343.009 333.152 343.056H333.149ZM340.977 327.226C341.013 326.457 341.262 325.703 341.522 324.974C342.287 322.808 343.161 320.679 344.031 318.549C344.182 318.177 345.897 314.684 346.102 315.94C346.673 319.401 347.127 322.884 347.463 326.374C347.485 326.612 347.506 326.865 347.395 327.078C347.236 327.381 346.871 327.497 346.539 327.583C344.987 327.98 343.406 328.247 341.811 328.388C341.649 328.403 341.475 328.413 341.327 328.341C341.064 328.211 340.984 327.876 340.974 327.583C340.97 327.464 340.97 327.341 340.974 327.222L340.977 327.226Z" fill="#381B42"/>
<path d="M365.311 314.192C366.574 314.192 367.159 312.879 367.159 311.76C367.159 310.543 365.845 310.594 364.726 310.348C363.9 310.348 363.802 311.319 363.802 311.807C363.802 312.684 364.142 314.189 365.311 314.189V314.192Z" fill="#381B42"/>
<path d="M430.474 314.192C431.737 314.192 432.322 312.879 432.322 311.76C432.322 310.543 431.008 310.594 429.889 310.348C429.062 310.348 428.965 311.319 428.965 311.807C428.965 312.684 429.304 314.189 430.474 314.189V314.192Z" fill="#381B42"/>
<path d="M365.459 340.992C367.145 341.385 368.931 340.577 370.151 339.35C371.371 338.122 372.136 336.523 372.88 334.957C373.096 336.126 374.562 336.7 375.713 336.404C376.865 336.108 377.756 335.22 378.586 334.369C381.849 331.023 385.115 327.673 388.378 324.328C390.06 327.908 389.201 332.225 387.368 335.729C385.534 339.234 382.827 342.19 380.561 345.431C377.251 350.167 374.829 355.837 375.36 361.59C375.515 363.268 375.948 364.983 377.009 366.293C378.07 367.603 379.875 368.408 381.492 367.928C383.531 367.318 384.524 365.062 385.184 363.037C386.682 358.461 387.819 353.765 388.584 349.008C389.147 345.496 389.53 341.88 391.056 338.667C392.58 335.451 395.557 332.647 399.112 332.481C398.831 332.495 400.289 335.332 400.462 335.549C401.137 336.39 402.018 337.076 402.974 337.57C408.258 340.302 413.275 336.906 415.257 332.127C414.889 334.437 414.719 336.776 414.744 339.111C414.759 340.393 414.853 341.732 415.52 342.822C416.343 344.161 418.119 344.785 419.404 343.684C420.682 342.587 421.263 340.837 421.941 339.35C422.501 338.115 423.107 336.902 423.76 335.715C424.183 334.95 425.493 333.441 425.367 332.51C425.634 334.462 426.07 336.44 427.146 338.093C428.222 339.743 430.044 341.017 432.015 340.97C435.848 340.88 437.815 336.44 438.869 332.755C438.883 337.274 439.562 342.118 442.597 345.46C443.438 346.384 444.658 347.214 445.857 346.871C447.502 346.398 447.82 344.251 447.936 342.544C448.416 335.419 450.888 328.442 455.003 322.606C454.053 330.048 453.133 337.754 454.364 345.067C454.707 347.102 455.216 349.109 455.937 351.069C456.371 352.246 456.912 353.444 457.883 354.242C458.854 355.039 460.359 355.31 461.359 354.552C462.239 353.884 462.474 352.679 462.636 351.585C463.3 347.124 463.842 342.645 464.261 338.155C464.964 340.389 467.444 341.909 469.754 341.522C471.162 341.288 472.389 340.454 473.522 339.588C477.64 336.437 481.17 332.521 483.877 328.096C480.383 330.803 476.89 333.51 473.392 336.217C472.436 336.957 471.356 337.736 470.155 337.631C468.083 337.451 467.166 334.614 468.101 332.755C469.036 330.896 471.06 329.886 472.984 329.095C474.908 328.305 476.973 327.533 478.247 325.887C479.456 324.328 479.723 322.093 478.918 320.292C478.113 318.491 476.269 317.203 474.302 317.066C471.216 316.849 468.53 319.249 466.939 321.902C462.178 329.821 463.947 340.006 461.196 348.828C461.037 349.336 460.824 349.889 460.359 350.145C459.164 350.798 458.125 349.037 457.933 347.691C455.764 332.532 461.651 317.52 463.744 302.35C463.914 301.123 463.712 299.42 462.481 299.286C456.49 313.427 450.502 327.569 444.51 341.71C443.251 340.956 442.684 339.436 442.345 338.007C440.944 332.088 441.904 325.854 443.539 319.993C445.174 314.135 447.477 308.465 448.827 302.535C448.95 302 449.058 301.423 448.838 300.925C448.452 300.048 447.188 299.871 446.355 300.34C445.521 300.809 445.03 301.708 444.633 302.581C442.042 308.273 441.598 314.658 440.609 320.834C439.616 327.006 437.855 333.427 433.358 337.772C431.156 333.51 433.036 328.348 432.701 323.562C432.545 321.328 431.048 318.585 428.868 319.098C427.023 319.531 426.54 321.866 426.247 323.736C425.276 329.915 422.378 335.776 418.058 340.299C418.873 334.784 419.426 329.225 419.707 323.656C419.801 321.79 419.213 319.22 417.347 319.314C415.932 319.386 415.239 321.021 414.809 322.368C413.817 325.475 412.521 328.482 410.951 331.34C410.478 332.199 409.94 333.084 409.085 333.564C406.847 334.82 404.09 332.423 403.624 329.9C403.158 327.377 404.017 324.808 404.014 322.245C404.014 320.971 403.743 319.599 402.812 318.726C401.881 317.852 400.141 317.802 399.473 318.888C399.163 319.39 399.138 320.014 399.138 320.603C399.138 322.721 399.372 324.88 398.834 326.93C398.297 328.98 396.734 330.951 394.626 331.164C394.128 331.214 393.569 331.135 393.244 330.756C393.009 330.481 392.944 330.106 392.93 329.745C392.847 327.8 393.937 326.028 394.536 324.176C395.135 322.324 395.016 319.87 393.298 318.953C392.092 318.311 390.631 318.708 389.27 318.834C386.92 319.051 384.524 318.405 382.21 318.87C378.272 319.661 375.655 323.396 374.024 327.071C372.393 330.741 371.238 334.784 368.43 337.66C366.787 335.924 366.668 333.25 367 330.886C367.332 328.518 368.015 326.136 367.618 323.779C367.325 322.039 366.188 320.224 364.495 319.56C362.312 318.704 361.864 321.325 361.334 322.978C359.969 327.237 359.944 331.925 361.337 336.181C362.027 338.285 363.308 340.497 365.463 341.003L365.459 340.992ZM387.44 342.89C387.259 344.359 387.05 345.828 386.815 347.29C386.397 349.892 385.895 352.484 385.31 355.054C384.679 357.833 383.935 360.623 382.567 363.124C381.928 364.293 380.799 365.539 379.507 365.214C378.214 364.885 377.817 363.258 377.81 361.926C377.792 358.251 378.911 354.639 380.568 351.358C381.614 349.279 382.878 347.319 384.217 345.417C384.538 344.962 387.739 340.432 387.436 342.89H387.44ZM388.7 345.265C388.7 345.265 388.555 345.168 388.555 345.121C388.555 345.023 388.602 344.976 388.75 344.976C388.784 345.008 388.801 345.04 388.801 345.074C388.801 345.171 388.75 345.269 388.703 345.269L388.7 345.265ZM474.626 320.271C475.597 320.271 475.792 321.631 475.792 322.458C475.792 325.569 471.609 326.883 469.859 327.175C469.079 327.078 468.837 327.078 468.837 326.739C468.837 325.425 471.414 320.271 474.623 320.271H474.626ZM383.545 326.883C383.448 326.883 383.448 326.785 383.448 326.688C383.495 326.641 383.545 326.641 383.545 326.591C383.592 326.638 383.592 326.688 383.643 326.735C383.643 326.832 383.592 326.879 383.545 326.879V326.883ZM377.337 330.189C377.789 329.478 378.269 328.778 378.778 328.096C380.752 325.443 383.152 323.05 386.029 321.433C386.566 321.13 387.476 320.993 387.563 321.66C387.595 321.906 387.476 322.148 387.281 322.303C383.748 325.122 380.889 328.749 377.161 331.304C376.915 330.983 377.121 330.528 377.337 330.185V330.189Z" fill="#381B42"/>
</g>
<defs>
<linearGradient id="paint0_linear_359_75" x1="395.5" y1="0" x2="395.5" y2="457" gradientUnits="userSpaceOnUse">
<stop stop-color="white"/>
<stop offset="0.99" stop-color="#F2D3F2"/>
</linearGradient>
<clipPath id="clip0_359_75">
<rect width="791" height="457" fill="white"/>
</clipPath>
</defs>
</svg>
