<svg width="376" height="401" viewBox="0 0 376 401" fill="none" xmlns="http://www.w3.org/2000/svg">
<rect width="376" height="401" fill="#F3E0F3"/>
<path d="M348 52.5H28V53.5H348V52.5Z" fill="#AE83BC" mask="url(#path-1-outside-1_359_79)"/>
<path d="M29.2557 47V37.5455H30.119V46.2244H34.6246V47H29.2557ZM39.1534 47.1477C38.541 47.1477 37.9993 46.9923 37.5284 46.6815C37.0606 46.3706 36.6944 45.9413 36.4297 45.3935C36.165 44.8426 36.0327 44.207 36.0327 43.4869C36.0327 42.7605 36.165 42.1219 36.4297 41.571C36.6944 41.017 37.0606 40.5862 37.5284 40.2784C37.9993 39.9676 38.541 39.8121 39.1534 39.8121C39.7659 39.8121 40.306 39.9676 40.7738 40.2784C41.2416 40.5893 41.6078 41.0201 41.8725 41.571C42.1403 42.1219 42.2741 42.7605 42.2741 43.4869C42.2741 44.207 42.1418 44.8426 41.8771 45.3935C41.6125 45.9413 41.2447 46.3706 40.7738 46.6815C40.306 46.9923 39.7659 47.1477 39.1534 47.1477ZM39.1534 46.3952C39.6458 46.3952 40.0629 46.2629 40.4045 45.9982C40.7461 45.7335 41.0046 45.3812 41.18 44.9411C41.3585 44.5009 41.4478 44.0162 41.4478 43.4869C41.4478 42.9575 41.3585 42.4712 41.18 42.0281C41.0046 41.5849 40.7461 41.2294 40.4045 40.9616C40.0629 40.6939 39.6458 40.56 39.1534 40.56C38.6641 40.56 38.247 40.6939 37.9023 40.9616C37.5607 41.2294 37.3007 41.5849 37.1222 42.0281C36.9467 42.4712 36.859 42.9575 36.859 43.4869C36.859 44.0162 36.9467 44.5009 37.1222 44.9411C37.3007 45.3812 37.5607 45.7335 37.9023 45.9982C38.244 46.2629 38.661 46.3952 39.1534 46.3952ZM46.7833 49.8068C46.3001 49.8068 45.8769 49.7437 45.5138 49.6175C45.1506 49.4944 44.8444 49.3252 44.5951 49.1097C44.3458 48.8943 44.1519 48.6527 44.0134 48.3849L44.6874 47.9418C44.789 48.1203 44.9244 48.2957 45.0937 48.468C45.266 48.6404 45.4891 48.7835 45.7631 48.8974C46.04 49.0112 46.3801 49.0682 46.7833 49.0682C47.4111 49.0682 47.9174 48.9112 48.3021 48.5973C48.6899 48.2834 48.8838 47.7956 48.8838 47.1339V45.5366H48.8099C48.7145 45.752 48.5776 45.9674 48.3991 46.1829C48.2206 46.3952 47.9867 46.5722 47.6974 46.7138C47.4111 46.8554 47.0557 46.9261 46.6309 46.9261C46.0647 46.9261 45.5615 46.7861 45.1214 46.506C44.6843 46.226 44.3396 45.8259 44.0873 45.3058C43.838 44.7826 43.7133 44.1593 43.7133 43.4361C43.7133 42.719 43.8349 42.0881 44.078 41.5433C44.3242 40.9986 44.6674 40.5739 45.1075 40.2692C45.5476 39.9645 46.06 39.8121 46.6448 39.8121C47.0787 39.8121 47.4388 39.8891 47.7251 40.043C48.0113 40.1938 48.2406 40.3815 48.4129 40.6062C48.5883 40.8308 48.7253 41.0494 48.8238 41.2617H48.9069V39.9091H49.7101V47.1847C49.7101 47.7848 49.5824 48.2788 49.327 48.6665C49.0715 49.0543 48.7238 49.3406 48.2836 49.5252C47.8435 49.7129 47.3434 49.8068 46.7833 49.8068ZM46.7279 46.1737C47.1834 46.1737 47.5727 46.0644 47.8959 45.8459C48.219 45.6243 48.4668 45.3073 48.6391 44.8949C48.8115 44.4825 48.8976 43.9916 48.8976 43.4222C48.8976 42.8683 48.813 42.3774 48.6437 41.9496C48.4745 41.5187 48.2282 41.1802 47.9051 40.9339C47.585 40.6847 47.1926 40.56 46.7279 40.56C46.2539 40.56 45.8538 40.6877 45.5276 40.9432C45.2014 41.1986 44.9552 41.5433 44.789 41.9773C44.6228 42.4081 44.5397 42.8898 44.5397 43.4222C44.5397 43.9639 44.6243 44.4425 44.7936 44.858C44.9629 45.2704 45.2106 45.5935 45.5368 45.8274C45.8631 46.0582 46.2601 46.1737 46.7279 46.1737ZM54.6417 47.1477C54.0292 47.1477 53.4876 46.9923 53.0167 46.6815C52.5489 46.3706 52.1826 45.9413 51.918 45.3935C51.6533 44.8426 51.521 44.207 51.521 43.4869C51.521 42.7605 51.6533 42.1219 51.918 41.571C52.1826 41.017 52.5489 40.5862 53.0167 40.2784C53.4876 39.9676 54.0292 39.8121 54.6417 39.8121C55.2541 39.8121 55.7943 39.9676 56.2621 40.2784C56.7299 40.5893 57.0961 41.0201 57.3608 41.571C57.6286 42.1219 57.7624 42.7605 57.7624 43.4869C57.7624 44.207 57.6301 44.8426 57.3654 45.3935C57.1007 45.9413 56.733 46.3706 56.2621 46.6815C55.7943 46.9923 55.2541 47.1477 54.6417 47.1477ZM54.6417 46.3952C55.1341 46.3952 55.5511 46.2629 55.8928 45.9982C56.2344 45.7335 56.4929 45.3812 56.6683 44.9411C56.8468 44.5009 56.9361 44.0162 56.9361 43.4869C56.9361 42.9575 56.8468 42.4712 56.6683 42.0281C56.4929 41.5849 56.2344 41.2294 55.8928 40.9616C55.5511 40.6939 55.1341 40.56 54.6417 40.56C54.1523 40.56 53.7353 40.6939 53.3906 40.9616C53.049 41.2294 52.7889 41.5849 52.6104 42.0281C52.435 42.4712 52.3473 42.9575 52.3473 43.4869C52.3473 44.0162 52.435 44.5009 52.6104 44.9411C52.7889 45.3812 53.049 45.7335 53.3906 45.9982C53.7322 46.2629 54.1493 46.3952 54.6417 46.3952ZM63.2226 49.6591V39.9091H64.0212V41.2617H64.1182C64.2166 41.0494 64.3521 40.8324 64.5244 40.6108C64.6968 40.3861 64.9245 40.1969 65.2077 40.043C65.4939 39.8891 65.854 39.8121 66.2879 39.8121C66.8727 39.8121 67.3836 39.966 67.8206 40.2738C68.2607 40.5785 68.6023 41.0063 68.8454 41.5572C69.0916 42.105 69.2148 42.7436 69.2148 43.473C69.2148 44.2055 69.0916 44.8472 68.8454 45.3981C68.6023 45.949 68.2607 46.3783 67.8206 46.6861C67.3836 46.9938 66.8757 47.1477 66.2971 47.1477C65.8693 47.1477 65.5108 47.0708 65.2215 46.9169C64.9353 46.763 64.7029 46.5737 64.5244 46.3491C64.349 46.1213 64.2136 45.8997 64.1182 45.6843H64.0443V49.6591H63.2226ZM64.0351 43.4592C64.0351 44.0316 64.1197 44.5394 64.289 44.9826C64.4613 45.4227 64.7075 45.7689 65.0276 46.0213C65.3508 46.2706 65.7416 46.3952 66.2002 46.3952C66.6711 46.3952 67.0681 46.266 67.3912 46.0075C67.7175 45.7459 67.9652 45.3935 68.1345 44.9503C68.3068 44.5071 68.393 44.0101 68.393 43.4592C68.393 42.9144 68.3084 42.4235 68.1391 41.9865C67.9729 41.5495 67.7267 41.2032 67.4005 40.9478C67.0742 40.6893 66.6742 40.56 66.2002 40.56C65.7385 40.56 65.3461 40.6847 65.023 40.9339C64.6998 41.1802 64.4536 41.5218 64.2844 41.9588C64.1182 42.3928 64.0351 42.8929 64.0351 43.4592ZM71.0175 47V39.9091H71.8161V40.9986H71.8762C72.0177 40.6416 72.2639 40.3538 72.6148 40.1353C72.9687 39.9137 73.3688 39.8029 73.8151 39.8029C73.8828 39.8029 73.9582 39.8045 74.0413 39.8075C74.1244 39.8106 74.1936 39.8137 74.249 39.8168V40.6523C74.2121 40.6462 74.1475 40.637 74.0551 40.6246C73.9628 40.6123 73.8628 40.6062 73.7551 40.6062C73.3857 40.6062 73.0564 40.6847 72.7671 40.8416C72.4809 40.9955 72.2547 41.2094 72.0885 41.4833C71.9223 41.7572 71.8392 42.0696 71.8392 42.4205V47H71.0175ZM75.6605 47V39.9091H76.4869V47H75.6605ZM76.0806 38.6903C75.9113 38.6903 75.7667 38.6334 75.6467 38.5195C75.5266 38.4026 75.4666 38.2625 75.4666 38.0994C75.4666 37.9363 75.5266 37.7978 75.6467 37.6839C75.7667 37.567 75.9113 37.5085 76.0806 37.5085C76.2499 37.5085 76.3945 37.567 76.5146 37.6839C76.6346 37.7978 76.6946 37.9363 76.6946 38.0994C76.6946 38.2625 76.6346 38.4026 76.5146 38.5195C76.3945 38.6334 76.2499 38.6903 76.0806 38.6903ZM79.4818 42.5682V47H78.6601V39.9091H79.4587V41.0217H79.5326C79.6988 40.6585 79.9573 40.3677 80.3081 40.1491C80.6621 39.9276 81.0991 39.8168 81.6192 39.8168C82.0963 39.8168 82.5148 39.9168 82.8749 40.1168C83.2381 40.3138 83.5197 40.6046 83.7197 40.9893C83.9229 41.3741 84.0244 41.8465 84.0244 42.4066V47H83.2027V42.4574C83.2027 41.8757 83.0396 41.4156 82.7133 41.0771C82.3902 40.7385 81.9562 40.5692 81.4115 40.5692C81.0391 40.5692 80.7082 40.6493 80.4189 40.8093C80.1296 40.9693 79.9004 41.2002 79.7311 41.5018C79.5649 41.8003 79.4818 42.1558 79.4818 42.5682ZM88.9583 47.1477C88.3243 47.1477 87.7718 46.9892 87.301 46.6722C86.8332 46.3552 86.47 45.9213 86.2115 45.3704C85.9529 44.8195 85.8237 44.1916 85.8237 43.4869C85.8237 42.7759 85.9545 42.1435 86.2161 41.5895C86.4808 41.0355 86.847 40.6016 87.3148 40.2876C87.7826 39.9706 88.3258 39.8121 88.9444 39.8121C89.4184 39.8121 89.8477 39.9045 90.2324 40.0891C90.6171 40.2707 90.9341 40.5277 91.1834 40.8601C91.4358 41.1894 91.5943 41.5741 91.6589 42.0142H90.8279C90.7418 41.6141 90.534 41.2725 90.2047 40.9893C89.8785 40.7031 89.463 40.56 88.9583 40.56C88.5059 40.56 88.1058 40.6831 87.758 40.9293C87.4102 41.1725 87.1378 41.5125 86.9409 41.9496C86.747 42.3835 86.65 42.8867 86.65 43.4592C86.65 44.0347 86.7454 44.544 86.9363 44.9872C87.1271 45.4273 87.3948 45.772 87.7395 46.0213C88.0873 46.2706 88.4935 46.3952 88.9583 46.3952C89.2722 46.3952 89.5584 46.3368 89.8169 46.2198C90.0785 46.0998 90.2971 45.9305 90.4725 45.712C90.651 45.4935 90.771 45.2334 90.8326 44.9318H91.6635C91.602 45.3596 91.4496 45.7412 91.2065 46.0767C90.9664 46.4091 90.6541 46.6707 90.2694 46.8615C89.8877 47.0523 89.4507 47.1477 88.9583 47.1477ZM93.4339 47V39.9091H94.2603V47H93.4339ZM93.854 38.6903C93.6848 38.6903 93.5401 38.6334 93.4201 38.5195C93.3001 38.4026 93.2401 38.2625 93.2401 38.0994C93.2401 37.9363 93.3001 37.7978 93.4201 37.6839C93.5401 37.567 93.6848 37.5085 93.854 37.5085C94.0233 37.5085 94.168 37.567 94.288 37.6839C94.408 37.7978 94.468 37.9363 94.468 38.0994C94.468 38.2625 94.408 38.4026 94.288 38.5195C94.168 38.6334 94.0233 38.6903 93.854 38.6903ZM96.4335 49.6591V39.9091H97.2322V41.2617H97.3291C97.4276 41.0494 97.563 40.8324 97.7354 40.6108C97.9077 40.3861 98.1354 40.1969 98.4186 40.043C98.7048 39.8891 99.0649 39.8121 99.4988 39.8121C100.084 39.8121 100.594 39.966 101.032 40.2738C101.472 40.5785 101.813 41.0063 102.056 41.5572C102.303 42.105 102.426 42.7436 102.426 43.473C102.426 44.2055 102.303 44.8472 102.056 45.3981C101.813 45.949 101.472 46.3783 101.032 46.6861C100.594 46.9938 100.087 47.1477 99.5081 47.1477C99.0803 47.1477 98.7217 47.0708 98.4324 46.9169C98.1462 46.763 97.9139 46.5737 97.7354 46.3491C97.5599 46.1213 97.4245 45.8997 97.3291 45.6843H97.2552V49.6591H96.4335ZM97.246 43.4592C97.246 44.0316 97.3306 44.5394 97.4999 44.9826C97.6723 45.4227 97.9185 45.7689 98.2385 46.0213C98.5617 46.2706 98.9526 46.3952 99.4111 46.3952C99.882 46.3952 100.279 46.266 100.602 46.0075C100.928 45.7459 101.176 45.3935 101.345 44.9503C101.518 44.5071 101.604 44.0101 101.604 43.4592C101.604 42.9144 101.519 42.4235 101.35 41.9865C101.184 41.5495 100.938 41.2032 100.611 40.9478C100.285 40.6893 99.8851 40.56 99.4111 40.56C98.9495 40.56 98.5571 40.6847 98.2339 40.9339C97.9108 41.1802 97.6646 41.5218 97.4953 41.9588C97.3291 42.3928 97.246 42.8929 97.246 43.4592ZM106.209 47.1616C105.781 47.1616 105.39 47.0785 105.036 46.9123C104.682 46.743 104.401 46.4999 104.191 46.1829C103.982 45.8628 103.878 45.475 103.878 45.0195C103.878 44.6687 103.944 44.3732 104.076 44.1332C104.208 43.8931 104.396 43.6961 104.639 43.5423C104.882 43.3884 105.17 43.2668 105.503 43.1776C105.835 43.0883 106.201 43.0191 106.601 42.9698C106.998 42.9206 107.334 42.8775 107.608 42.8406C107.885 42.8036 108.095 42.7451 108.24 42.6651C108.385 42.5851 108.457 42.4558 108.457 42.2773V42.1112C108.457 41.628 108.312 41.2479 108.023 40.9709C107.737 40.6908 107.325 40.5508 106.786 40.5508C106.275 40.5508 105.858 40.6631 105.535 40.8878C105.215 41.1125 104.99 41.3771 104.861 41.6818L104.081 41.4002C104.241 41.0124 104.462 40.7031 104.745 40.4723C105.029 40.2384 105.346 40.0707 105.696 39.9691C106.047 39.8645 106.403 39.8121 106.763 39.8121C107.034 39.8121 107.315 39.8475 107.608 39.9183C107.903 39.9891 108.177 40.1122 108.429 40.2876C108.682 40.46 108.886 40.7016 109.043 41.0124C109.2 41.3202 109.279 41.7111 109.279 42.185V47H108.457V45.8782H108.406C108.308 46.0875 108.162 46.2906 107.968 46.4876C107.774 46.6845 107.531 46.8461 107.238 46.9723C106.946 47.0985 106.603 47.1616 106.209 47.1616ZM106.32 46.4091C106.757 46.4091 107.135 46.3121 107.455 46.1183C107.775 45.9244 108.022 45.6674 108.194 45.3473C108.369 45.0241 108.457 44.6687 108.457 44.2809V43.256C108.396 43.3145 108.292 43.3668 108.148 43.413C108.006 43.4592 107.842 43.5007 107.654 43.5376C107.469 43.5715 107.285 43.6007 107.1 43.6254C106.915 43.65 106.749 43.6715 106.601 43.69C106.201 43.7392 105.86 43.8162 105.576 43.9208C105.293 44.0254 105.076 44.1701 104.926 44.3548C104.775 44.5363 104.699 44.7702 104.699 45.0565C104.699 45.4873 104.853 45.8213 105.161 46.0582C105.469 46.2921 105.855 46.4091 106.32 46.4091ZM112.286 37.5455V47H111.465V37.5455H112.286Z" fill="#AE83BC"/>
<path opacity="0.64" d="M188 218.899C227.292 218.899 259.145 187.047 259.145 147.754C259.145 108.462 227.292 76.6091 188 76.6091C148.708 76.6091 116.855 108.462 116.855 147.754C116.855 187.047 148.708 218.899 188 218.899Z" fill="white"/>
<path d="M213.982 105.755L204.866 120.57C204.458 121.232 202.43 120.724 200.346 119.446C198.263 118.156 196.896 116.58 197.304 115.918L206.42 101.103C206.012 101.764 207.379 103.352 209.463 104.63C211.546 105.909 213.574 106.416 213.982 105.755Z" fill="#381B42"/>
<path d="M204.105 121.242C203.047 121.242 201.504 120.592 200.159 119.765C199.112 119.126 198.208 118.387 197.612 117.693C196.73 116.668 196.786 116.061 196.995 115.72L206.111 100.904L206.74 101.29C206.696 101.367 206.707 101.709 207.291 102.381C207.842 103.021 208.68 103.704 209.661 104.3C211.811 105.622 213.475 105.854 213.673 105.545L214.302 105.931L205.185 120.746C204.976 121.077 204.601 121.22 204.105 121.22V121.242ZM206.211 102.15L197.623 116.106C197.579 116.183 197.59 116.524 198.175 117.197C198.726 117.836 199.564 118.52 200.545 119.115C202.694 120.438 204.359 120.669 204.557 120.361L213.144 106.405C212.097 106.372 210.587 105.733 209.275 104.928C208.228 104.288 207.324 103.55 206.729 102.855C206.497 102.591 206.332 102.348 206.211 102.128V102.15Z" fill="#381B42"/>
<path d="M213.221 106.416C212.163 106.416 210.62 105.766 209.275 104.939C208.228 104.3 207.324 103.561 206.729 102.867C205.847 101.841 205.902 101.235 206.111 100.893C206.751 99.8463 209.165 100.684 211.138 101.897C212.185 102.536 213.089 103.275 213.684 103.969C214.566 104.994 214.511 105.6 214.302 105.942C214.092 106.273 213.718 106.416 213.221 106.416ZM207.148 101.169C206.927 101.169 206.784 101.213 206.729 101.29C206.685 101.367 206.696 101.709 207.28 102.382C207.831 103.021 208.669 103.704 209.65 104.3C211.799 105.623 213.464 105.854 213.662 105.545C213.706 105.468 213.695 105.126 213.111 104.454C212.56 103.815 211.722 103.131 210.741 102.536C209.132 101.544 207.798 101.169 207.148 101.169Z" fill="#381B42"/>
<path d="M166.185 183.128C165.06 183.128 163.275 182.235 162.15 181.552C161.114 180.913 160.199 180.207 159.582 179.546C158.843 178.763 158.601 178.135 158.865 177.694L196.984 115.72L197.612 116.106C197.557 116.338 198.384 117.539 200.655 118.939C202.926 120.339 204.37 120.526 204.557 120.372L205.186 120.769L167.067 182.743C166.901 183.018 166.582 183.128 166.185 183.128ZM197.149 116.878L159.505 178.08C159.438 178.366 160.419 179.601 162.547 180.913C164.818 182.313 166.251 182.5 166.449 182.346L204.094 121.144C203.841 121.122 203.554 121.056 203.223 120.967C202.364 120.714 201.316 120.218 200.28 119.578C199.233 118.928 197.756 117.848 197.16 116.889L197.149 116.878Z" fill="#381B42"/>
<path d="M217.697 99.2511L216.837 98.733C216.837 98.733 216.76 98.711 216.716 98.733L215.801 99.1519C215.702 99.196 215.603 99.1078 215.625 99.0086L215.856 98.0275C215.856 98.0275 215.856 97.9393 215.823 97.9063L215.14 97.1567C215.063 97.0795 215.118 96.9472 215.228 96.9362L216.231 96.848C216.231 96.848 216.308 96.8149 216.33 96.7819L216.826 95.911C216.881 95.8228 217.014 95.8228 217.058 95.922L217.444 96.848C217.444 96.848 217.499 96.9141 217.532 96.9252L218.524 97.1346C218.623 97.1567 218.667 97.2889 218.579 97.3551L217.818 98.0165C217.818 98.0165 217.774 98.0826 217.774 98.1267L217.885 99.1298C217.896 99.2401 217.785 99.3062 217.686 99.2511H217.697Z" fill="#381B42"/>
<path d="M221.732 115.985L220.376 115.169C220.321 115.136 220.244 115.125 220.188 115.158L218.744 115.808C218.59 115.874 218.425 115.742 218.469 115.577L218.833 114.033C218.844 113.967 218.833 113.901 218.789 113.846L217.719 112.678C217.609 112.556 217.686 112.358 217.852 112.336L219.428 112.204C219.494 112.204 219.549 112.159 219.582 112.104L220.365 110.726C220.453 110.583 220.662 110.594 220.729 110.748L221.346 112.204C221.368 112.27 221.423 112.314 221.489 112.325L223.032 112.644C223.198 112.678 223.253 112.887 223.121 112.997L221.93 114.033C221.93 114.033 221.853 114.144 221.864 114.21L222.04 115.786C222.062 115.952 221.875 116.073 221.732 115.985Z" fill="#381B42"/>
<path d="M201.603 98.2039L200.567 98.1598C200.567 98.1598 200.479 98.1819 200.457 98.2149L199.828 99.0417C199.762 99.1299 199.619 99.1078 199.597 98.9976L199.321 97.9945C199.321 97.9945 199.277 97.9173 199.233 97.9063L198.252 97.5646C198.153 97.5315 198.131 97.3882 198.219 97.322L199.09 96.7488C199.09 96.7488 199.145 96.6827 199.145 96.6386L199.167 95.6024C199.167 95.4922 199.299 95.437 199.387 95.5032L200.203 96.1536C200.203 96.1536 200.28 96.1866 200.324 96.1756L201.316 95.878C201.427 95.8449 201.515 95.9441 201.482 96.0544L201.118 97.0244C201.118 97.0244 201.118 97.1126 201.129 97.1457L201.724 98.0055C201.79 98.0937 201.724 98.2149 201.614 98.2149L201.603 98.2039Z" fill="#381B42"/>
<path d="M224.818 104.068L221.357 104.796C220.839 104.906 220.905 105.457 221.434 105.568L224.741 106.196C225.05 106.251 225.347 106.108 225.369 105.876L225.524 104.531C225.557 104.245 225.182 104.013 224.818 104.09V104.068Z" fill="#381B42"/>
<path d="M197.37 102.635L199.035 102.713C199.277 102.713 199.255 102.922 199.001 102.977L197.425 103.363C197.282 103.396 197.138 103.363 197.116 103.286L197.028 102.823C197.006 102.724 197.183 102.624 197.359 102.635H197.37Z" fill="#381B42"/>
<path d="M217.289 106.053C217.49 106.053 217.653 105.89 217.653 105.689C217.653 105.488 217.49 105.325 217.289 105.325C217.088 105.325 216.926 105.488 216.926 105.689C216.926 105.89 217.088 106.053 217.289 106.053Z" fill="#381B42"/>
<path d="M196.874 109.139C197.215 109.139 197.491 108.863 197.491 108.522C197.491 108.181 197.215 107.904 196.874 107.904C196.533 107.904 196.257 108.181 196.257 108.522C196.257 108.863 196.533 109.139 196.874 109.139Z" fill="#381B42"/>
<path d="M212.825 117.021C212.989 117.021 213.122 116.888 213.122 116.723C213.122 116.559 212.989 116.426 212.825 116.426C212.66 116.426 212.527 116.559 212.527 116.723C212.527 116.888 212.66 117.021 212.825 117.021Z" fill="#381B42"/>
<path d="M188 218.932C148.757 218.932 116.822 187.008 116.822 147.754C116.822 108.499 148.746 76.5867 188 76.5867C227.254 76.5867 259.178 108.51 259.178 147.765C259.178 187.019 227.254 218.943 188 218.943V218.932ZM188 77.3252C149.165 77.3252 117.572 108.918 117.572 147.754C117.572 186.589 149.165 218.182 188 218.182C226.836 218.182 258.429 186.589 258.429 147.754C258.429 108.918 226.836 77.3252 188 77.3252Z" fill="#381B42"/>
<path d="M188 219.495C148.448 219.495 116.271 187.317 116.271 147.765C116.271 108.213 148.448 76.0249 188 76.0249C227.552 76.0249 259.729 108.202 259.729 147.754C259.729 187.306 227.552 219.484 188 219.484V219.495ZM188 77.8879C149.473 77.8879 118.123 109.238 118.123 147.765C118.123 186.292 149.473 217.643 188 217.643C226.527 217.643 257.877 186.292 257.877 147.765C257.877 109.238 226.527 77.8768 188 77.8768V77.8879Z" fill="#381B42"/>
<path d="M204.425 167.409L198.935 159.053C198.935 159.053 198.902 159.009 198.891 158.987L189.312 142.397L174.959 117.737L169.767 109.283L164.785 101.368C164.531 100.971 164.211 101.324 164.344 101.621L168.489 110.032L172.821 118.961L185.861 144.337L194.68 161.346C194.68 161.346 194.702 161.39 194.713 161.423L198.792 170.551C198.792 170.551 203.973 183.834 208.625 182.765C208.823 182.72 209 182.632 209.154 182.5C211.645 180.648 209.308 175.401 207.126 171.62C205.748 169.228 204.425 167.42 204.425 167.42V167.409ZM207.622 179.656C206.916 180.064 204.998 178.058 203.345 175.18C201.68 172.303 200.908 169.647 201.614 169.239C202.319 168.831 204.237 170.837 205.891 173.714C207.545 176.591 208.327 179.248 207.622 179.656Z" fill="#381B42"/>
<path d="M150.168 177.396C150.168 177.396 150.146 177.429 150.124 177.44C148.393 179.193 146.122 180.35 144.458 182.169C144.414 182.224 144.358 182.29 144.369 182.357C144.369 182.412 144.425 182.445 144.469 182.489C145.097 182.974 145.725 183.47 146.354 183.955C146.574 184.12 146.795 184.308 146.894 184.561C146.993 184.815 146.883 185.168 146.607 185.234C146.398 185.289 146.188 185.145 146.012 185.013C145.02 184.242 144.028 183.47 143.025 182.698C142.385 182.202 142.617 181.783 143.146 181.331C144.932 179.843 146.717 178.344 148.503 176.856C148.724 176.68 148.944 176.492 149.22 176.426C149.606 176.327 150.036 176.514 150.245 176.845C150.3 176.933 150.333 177.032 150.322 177.131C150.311 177.231 150.245 177.319 150.168 177.396Z" fill="#381B42"/>
<path d="M151.193 181.717C151.413 181.452 151.832 181.331 151.931 180.978C152.009 180.692 152.108 180.46 152.416 180.372C152.516 180.339 152.593 180.372 152.659 180.449C152.868 180.714 152.924 181.1 152.813 181.419C152.692 181.772 152.306 181.915 151.965 181.96C151.689 181.993 151.402 181.96 151.116 181.948C151.116 181.86 151.149 181.794 151.204 181.728L151.193 181.717Z" fill="#381B42"/>
<path d="M150.939 185.002C151.248 184.859 151.535 184.683 151.821 184.517C152.196 184.297 152.582 184.098 152.968 183.9C153.497 183.624 154.048 183.36 154.588 183.117C155.007 182.93 155.58 182.698 155.977 183.062C156.021 183.106 156.076 183.161 156.142 183.205C156.451 183.492 156.286 184.01 156.065 184.297C155.58 184.936 155.106 185.586 154.643 186.237C154.213 186.832 153.64 187.438 153.353 188.122C153.265 188.331 153.32 188.541 153.144 188.717C153.078 188.783 153.001 188.827 152.923 188.893C152.747 189.037 152.637 189.235 152.538 189.434C152.196 190.073 151.854 190.701 151.512 191.341C151.281 191.782 150.939 191.815 150.476 191.737C150.101 191.671 150.057 191.385 150.068 191.054C150.068 190.58 150.421 190.183 150.697 189.83C151.071 189.345 151.59 188.805 151.722 188.199C151.799 187.879 151.391 187.747 151.16 187.67C150.884 187.571 150.62 187.449 150.366 187.306C149.98 187.086 149.727 186.931 149.297 187.152C148.856 187.372 148.459 187.67 148.029 187.912C147.731 188.078 147.059 188.464 146.739 188.166C146.563 188.001 146.596 187.758 146.783 187.648C147.059 187.482 147.335 187.339 147.61 187.174C148.095 186.887 148.558 186.579 149.032 186.27C149.142 186.204 149.253 186.127 149.33 186.016C149.407 185.906 149.528 185.432 149.727 185.509C149.782 185.531 149.815 185.575 149.848 185.619C149.958 185.752 150.057 185.719 150.157 185.597C150.344 185.355 150.598 185.168 150.884 185.035C150.906 185.035 150.928 185.013 150.95 185.002H150.939ZM152.306 185.399C152.306 185.399 152.262 185.421 152.24 185.432C151.788 185.631 151.292 185.785 150.983 186.182C150.752 186.479 151.821 186.986 151.997 187.097C152.13 187.185 152.273 187.207 152.405 187.119C152.505 187.053 152.571 186.953 152.637 186.854C152.957 186.391 153.265 185.906 153.629 185.465C153.717 185.366 154.301 184.649 154.147 184.517C154.015 184.396 153.783 184.55 153.673 184.627C153.243 184.925 152.78 185.179 152.295 185.388L152.306 185.399Z" fill="#381B42"/>
<path d="M157.873 191.991C157.763 191.914 157.609 191.914 157.487 191.969C157.476 191.969 157.454 191.969 157.443 191.98C157.311 192.046 157.19 192.145 157.068 192.234C156.771 192.454 156.429 192.608 156.087 192.719C155.801 192.818 155.415 192.983 155.106 192.983C155.051 192.983 154.996 192.961 154.974 192.906C154.963 192.873 154.963 192.84 154.974 192.807C155.084 192.101 155.691 191.517 156.154 191.021C156.628 190.525 157.135 189.996 157.333 189.323C157.388 189.158 157.41 188.982 157.377 188.805C157.333 188.574 157.168 188.386 156.991 188.221C156.969 188.199 156.947 188.177 156.925 188.166C156.914 188.166 156.903 188.155 156.881 188.144C156.826 188.133 156.782 188.144 156.727 188.166C156.528 188.243 156.363 188.375 156.198 188.508C155.856 188.783 155.525 189.07 155.217 189.368C154.302 190.227 153.475 191.33 153.684 192.664C153.739 193.06 153.971 193.446 154.346 193.612C154.776 193.788 155.261 193.612 155.68 193.424C156.054 193.27 156.418 193.093 156.782 192.928C157.135 192.763 157.487 192.597 157.84 192.432C157.873 192.41 157.906 192.399 157.928 192.377C158.039 192.278 158.005 192.068 157.873 191.991ZM158.909 187.009C158.854 186.898 158.766 186.799 158.667 186.711C158.645 186.689 158.623 186.667 158.601 186.656C158.579 186.634 158.546 186.623 158.513 186.612C158.446 186.601 158.38 186.623 158.314 186.667C158.083 186.832 157.829 187.306 158.105 187.538C158.204 187.615 158.347 187.648 158.479 187.615C158.744 187.56 159.042 187.295 158.909 187.009Z" fill="#381B42"/>
<path d="M157.873 191.991C157.763 191.914 157.608 191.914 157.487 191.969C157.432 192.013 157.377 192.057 157.322 192.101C157.068 192.322 156.87 192.619 156.782 192.939C157.134 192.774 157.487 192.608 157.84 192.443C157.873 192.421 157.906 192.41 157.928 192.388C158.038 192.289 158.005 192.079 157.873 192.002V191.991Z" fill="#381B42"/>
<path d="M162.657 195.452C162.404 195.397 162.15 195.397 161.897 195.386C161.786 195.386 161.654 195.342 161.632 195.232C161.632 195.155 161.687 195.089 161.742 195.033C162.161 194.648 162.58 194.262 162.999 193.876C163.297 193.6 163.616 193.292 163.638 192.884C163.66 192.388 163.131 191.947 162.646 192.079C162.569 192.101 162.492 192.134 162.415 192.123C162.238 192.101 162.161 191.892 162.095 191.738C161.819 191.131 161.103 190.823 160.43 190.845C159.769 190.856 159.13 191.131 158.523 191.407C158.16 191.572 157.785 191.738 157.465 191.969C157.586 191.925 157.741 191.914 157.851 191.991C157.972 192.079 158.016 192.278 157.906 192.377C157.873 192.399 157.851 192.41 157.818 192.432C157.465 192.597 157.112 192.763 156.76 192.928C156.727 193.06 156.705 193.193 156.716 193.325C156.749 193.799 157.145 194.251 157.619 194.229C157.95 194.229 158.226 194.008 158.512 193.854C158.92 193.634 159.372 193.523 159.835 193.424C160.497 193.281 161.169 193.149 161.841 193.049C161.412 193.799 160.927 194.515 160.375 195.188C160.243 195.342 160.111 195.508 159.934 195.607C159.747 195.717 159.527 195.761 159.317 195.805C158.259 196.048 157.256 196.489 156.319 197.029C154.974 197.789 152.516 199.586 153.541 201.405C153.739 201.758 154.136 202.033 154.544 201.978C154.842 201.934 155.095 201.725 155.316 201.526C155.878 201.03 156.44 200.523 156.991 200.016C157.355 199.674 157.73 199.333 158.049 198.947C158.16 198.804 158.27 198.649 158.391 198.506C158.49 198.396 158.59 198.274 158.689 198.164C158.843 197.988 159.008 197.811 159.174 197.635C159.317 197.481 159.46 197.315 159.604 197.161C159.758 197.117 159.934 197.062 159.99 196.907C159.99 196.907 159.99 196.896 160.001 196.885C160.023 196.819 160.023 196.742 160.056 196.676C160.089 196.61 160.155 196.577 160.221 196.544C161.037 196.103 162.029 196.004 162.922 196.268C162.999 196.29 163.087 196.312 163.175 196.29C163.33 196.235 163.341 196.004 163.263 195.849C163.142 195.618 162.9 195.496 162.657 195.43V195.452ZM161.665 192.487C161.423 192.553 161.136 192.542 160.882 192.597C160.375 192.697 159.868 192.829 159.361 192.928C159.141 192.972 158.931 193.005 158.711 193.038C158.612 193.049 158.259 193.171 158.193 193.071C158.105 192.939 158.446 192.818 158.512 192.785C159.141 192.487 159.769 192.189 160.475 192.112C160.662 192.09 161.456 191.98 161.742 192.134C161.797 192.167 161.841 192.212 161.841 192.267C161.852 192.366 161.753 192.443 161.665 192.476V192.487ZM158.964 196.974C158.964 196.974 158.931 197.062 158.898 197.106C158.634 197.437 158.358 197.767 158.094 198.098C157.763 198.506 157.377 198.881 157.024 199.278C156.694 199.652 156.33 200.005 155.944 200.325C155.58 200.622 155.15 200.997 154.687 201.14C154.511 201.196 154.312 201.196 154.158 201.107C153.728 200.865 154.015 200.292 154.191 199.983C154.412 199.586 154.709 199.233 155.04 198.925C155.525 198.484 156.098 198.131 156.683 197.811C157.123 197.569 157.586 197.337 158.038 197.106C158.259 196.996 158.479 196.885 158.722 196.819C158.909 196.764 159.008 196.863 158.975 196.985L158.964 196.974Z" fill="#381B42"/>
<path d="M170.473 198.374C170.208 198.274 169.889 198.462 169.657 198.638C168.886 199.233 168.103 199.829 167.331 200.424C167.243 200.49 167.089 200.556 167.034 200.457C167.001 200.402 167.034 200.314 167.056 200.259C167.695 199.024 168.566 197.922 169.227 196.698C169.415 196.356 169.58 195.937 169.382 195.596C169.018 194.967 168.401 195.386 168.015 195.717C167.563 196.103 167.089 196.467 166.549 196.709C166.008 196.952 165.314 197.117 164.741 196.908C164.697 196.897 164.653 196.874 164.619 196.83C164.597 196.797 164.586 196.753 164.586 196.709C164.575 196.434 164.697 196.18 164.818 195.937C165.116 195.342 165.424 194.747 165.722 194.152C165.777 194.052 165.832 193.942 165.832 193.832C165.832 193.678 165.766 193.534 165.656 193.435C165.545 193.336 165.424 193.248 165.292 193.182C165.237 193.149 165.171 193.115 165.116 193.115C164.95 193.115 164.84 193.358 164.752 193.479C164.608 193.678 164.465 193.898 164.344 194.108C164.079 194.56 163.837 195.023 163.638 195.508C163.33 196.257 162.845 197.348 163.572 198.01C164.035 198.429 164.796 198.473 165.38 198.385C165.722 198.33 166.053 198.208 166.317 197.988C166.449 197.878 166.868 197.304 167.078 197.426C167.177 197.481 167.122 197.69 167.1 197.778C167.034 198.065 166.89 198.307 166.769 198.572C166.593 198.969 166.427 199.377 166.295 199.785C166.196 200.093 166.097 200.413 166.163 200.733C166.229 201.052 166.471 201.361 166.791 201.372C167.012 201.383 167.21 201.262 167.386 201.141C167.882 200.788 168.29 200.325 168.731 199.917C169.238 199.454 169.812 199.057 170.418 198.726C170.528 198.671 170.66 198.55 170.594 198.451C170.583 198.429 170.55 198.407 170.528 198.385C170.506 198.374 170.484 198.363 170.462 198.352L170.473 198.374Z" fill="#381B42"/>
<path d="M172.898 194.074C172.689 194.008 172.589 194.24 172.545 194.361C172.479 194.581 172.435 194.989 172.733 195.077C173.052 195.177 173.306 194.901 173.394 194.625C173.493 194.317 173.163 194.228 172.898 194.074ZM170.484 198.362C170.429 198.34 170.363 198.329 170.307 198.329C170.208 198.539 170.142 198.693 170.12 198.759C170.098 198.825 170.076 198.891 170.065 198.958C170.285 198.836 170.495 198.704 170.627 198.572C170.682 198.461 170.561 198.406 170.484 198.362Z" fill="#381B42"/>
<path d="M176.447 194.041C176.624 194.074 176.778 194.118 176.921 194.174C176.833 194.24 176.756 194.24 176.668 194.218C176.613 194.207 176.569 194.185 176.525 194.174C176.492 194.174 176.447 194.174 176.425 194.163C176.436 194.129 176.447 194.063 176.458 194.041H176.447Z" fill="#381B42"/>
<path d="M181.915 193.59C181.915 193.689 181.893 193.81 181.86 193.909C181.662 194.494 181.331 195.023 181.066 195.574C180.306 197.183 179.887 198.936 179.104 200.546C178.355 202.155 177.175 203.864 177.649 205.727C177.693 205.903 177.781 206.101 177.958 206.145C178.079 206.178 178.222 206.123 178.311 206.035C178.564 205.782 178.707 205.363 178.829 205.043C179.347 203.698 179.854 202.364 180.372 201.02C180.427 202.111 180.162 203.191 179.777 204.216C179.578 204.734 179.347 205.241 179.104 205.738C178.884 206.178 178.696 206.73 178.388 207.104C178.288 207.226 178.156 207.325 178.002 207.347C177.605 207.391 177.329 206.972 177.197 206.652C176.877 205.837 176.855 204.922 176.966 204.051C177.109 202.882 177.495 201.747 177.914 200.645C178.156 200.016 178.421 199.355 178.377 198.683C176.977 200.303 175.863 202.155 175.081 204.139C174.992 204.349 174.893 204.591 174.673 204.668C174.496 204.723 174.298 204.635 174.166 204.503C173.934 204.249 173.868 203.842 173.791 203.533C173.703 203.147 173.648 202.75 173.626 202.364C173.593 201.769 173.703 201.196 173.769 200.601C173.78 200.501 173.78 200.336 173.637 200.336C173.57 200.336 173.515 200.38 173.46 200.413C172.876 200.854 172.457 201.483 171.829 201.857C171.134 202.265 170.396 201.901 170.087 201.196C169.955 200.876 169.911 200.535 169.9 200.193C169.9 200.038 169.9 199.884 169.9 199.73C169.9 199.575 169.944 199.432 169.977 199.278C170.054 198.991 170.142 198.694 170.252 198.418C170.308 198.275 170.385 198.142 170.462 198.01C170.539 197.878 170.594 197.724 170.671 197.591C170.77 197.415 170.87 197.25 170.969 197.073C171.156 196.753 171.399 196.202 171.785 196.081C172.391 195.905 172.578 197.018 172.534 197.404C172.424 198.616 171.476 199.631 171.388 200.843C171.322 201.692 172.622 200.535 172.777 200.369C173.273 199.84 173.813 199.366 174.155 198.716C174.783 197.525 175.158 196.202 175.731 194.99C175.94 194.538 176.183 194.086 176.425 193.645C176.558 193.413 176.69 193.193 176.822 192.972C176.9 192.84 177.021 192.543 177.175 192.476C177.219 192.443 177.285 192.443 177.34 192.454C177.55 192.487 177.737 192.62 177.848 192.807C178.123 193.303 177.594 193.865 177.362 194.284C176.877 195.155 176.249 195.905 175.808 196.809C175.367 197.713 174.948 198.683 174.706 199.664C174.574 200.226 174.529 200.821 174.507 201.394C174.485 201.968 174.408 202.53 174.353 203.092C174.342 203.224 174.386 203.434 174.563 203.356C174.816 203.246 174.959 202.905 175.081 202.684C175.797 201.394 176.613 200.149 177.528 198.98C178.377 197.878 179.347 196.798 179.986 195.541C180.317 194.891 180.57 194.174 181.022 193.612C181.121 193.491 181.243 193.358 181.386 193.303C181.529 193.248 181.728 193.259 181.827 193.391C181.882 193.457 181.904 193.535 181.904 193.612L181.915 193.59Z" fill="#381B42"/>
<path d="M185.376 201.185C185.376 201.185 185.31 201.185 185.277 201.185C184.935 201.24 184.638 201.471 184.362 201.681C183.547 202.309 182.687 202.871 181.794 203.378C181.65 203.456 181.474 203.533 181.331 203.445C181.243 203.389 181.21 203.279 181.176 203.169C181.033 202.629 181.033 202.045 181.176 201.504C181.199 201.416 181.232 201.317 181.32 201.273C181.408 201.229 181.507 201.273 181.606 201.295C182.08 201.427 182.587 201.317 183.017 201.086C183.447 200.854 183.789 200.49 184.087 200.104C184.318 199.818 184.528 199.476 184.483 199.112C184.417 198.66 183.987 198.374 183.591 198.153C183.381 198.032 183.161 197.911 182.918 197.922C182.698 197.922 182.499 198.032 182.323 198.142C180.691 199.134 179.236 201.482 180.096 203.411C180.35 203.996 180.978 204.47 181.606 204.348C181.904 204.293 182.169 204.117 182.411 203.93C183.017 203.478 183.591 202.993 184.12 202.452C184.472 202.1 184.825 201.725 185.288 201.538C185.42 201.482 185.586 201.394 185.542 201.262C185.52 201.196 185.443 201.174 185.376 201.163V201.185ZM183.547 198.87C183.8 198.892 183.822 199.256 183.8 199.476C183.712 200.292 182.587 200.523 182.124 200.545C181.926 200.501 181.86 200.49 181.871 200.402C181.904 200.06 182.709 198.782 183.558 198.87H183.547Z" fill="#381B42"/>
<path d="M194.57 203.918C194.57 203.918 194.592 203.974 194.592 204.007C194.592 204.194 194.46 204.348 194.283 204.425C194.107 204.503 193.92 204.492 193.743 204.492C192.839 204.492 191.935 204.558 191.053 204.701C190.756 204.745 190.403 204.789 190.172 204.591C189.973 204.425 189.94 204.139 189.918 203.874C189.687 201.383 189.554 198.881 189.422 196.378C189.411 196.158 189.411 195.915 189.565 195.761C189.731 195.596 190.006 195.607 190.238 195.629C191.241 195.706 192.266 195.706 193.269 195.607C193.501 195.585 193.732 195.563 193.953 195.629C194.173 195.695 194.36 195.904 194.338 196.125C194.327 196.312 194.162 196.467 193.986 196.533C193.809 196.599 193.611 196.599 193.424 196.599C192.608 196.599 191.792 196.577 190.976 196.577C190.899 196.577 190.811 196.577 190.756 196.632C190.69 196.687 190.701 196.786 190.701 196.874C190.778 197.69 190.844 198.495 190.921 199.311C190.921 199.41 190.943 199.52 191.009 199.597C191.131 199.73 191.34 199.696 191.516 199.652C191.902 199.575 192.31 199.575 192.707 199.652C192.872 199.685 193.06 199.752 193.104 199.917C193.159 200.126 192.927 200.292 192.718 200.358C192.409 200.468 192.09 200.545 191.759 200.567C191.594 200.578 191.428 200.589 191.296 200.678C191.053 200.854 191.076 201.207 191.109 201.493C191.197 202.155 191.296 202.816 191.384 203.466C191.395 203.555 191.406 203.654 191.461 203.731C191.649 204.029 192.178 203.797 192.442 203.764C192.861 203.72 193.291 203.665 193.71 203.61C193.887 203.588 194.074 203.566 194.25 203.61C194.394 203.654 194.526 203.753 194.57 203.896V203.918Z" fill="#381B42"/>
<path d="M201.647 199.807C201.647 199.807 201.592 199.818 201.559 199.829C201.603 200.071 201.614 200.325 201.647 200.578C201.757 200.336 201.845 200.038 201.823 199.906C201.801 199.818 201.735 199.784 201.647 199.796V199.807Z" fill="#381B42"/>
<path d="M201.338 201.361C201.338 201.361 201.338 201.394 201.327 201.405C201.107 202.198 201.206 203.047 201.008 203.852C200.92 204.205 200.732 204.59 200.379 204.679C200.126 204.745 199.861 204.635 199.674 204.447C199.487 204.26 199.376 204.028 199.288 203.775C198.748 202.253 199.057 200.556 198.605 199.002C197.756 199.872 197.833 201.328 197.061 202.264C196.929 202.43 196.764 202.573 196.576 202.639C196.389 202.705 196.146 202.694 195.981 202.573C195.816 202.441 195.761 202.231 195.706 202.033C195.529 201.339 195.397 200.644 195.298 199.939C195.232 199.42 194.989 198.583 195.518 198.208C195.683 198.098 195.915 198.076 196.08 198.208C196.213 198.318 196.257 198.494 196.301 198.66C196.477 199.498 196.543 200.368 196.499 201.228C196.973 200.82 197.183 200.192 197.48 199.641C197.756 199.134 198.109 198.66 198.538 198.274C198.704 198.12 198.891 197.976 199.112 197.987C199.365 197.998 199.564 198.23 199.663 198.472C199.872 198.98 199.806 199.542 199.795 200.093C199.762 201.151 199.905 202.22 200.225 203.235C200.545 202.253 200.875 201.283 201.195 200.302C201.261 200.104 201.372 199.872 201.57 199.861C201.757 200.335 201.504 200.854 201.361 201.35L201.338 201.361Z" fill="#381B42"/>
<path d="M206.089 198.241C206.023 198.109 205.792 198.175 205.671 198.274C204.612 199.134 204.282 200.655 203.223 201.515C203.168 201.559 203.113 201.604 203.036 201.615C202.893 201.626 202.782 201.493 202.716 201.372C202.11 200.303 202 198.958 202.441 197.8C202.562 197.47 202.738 197.15 203.014 196.919C203.08 196.863 203.19 196.808 203.256 196.863C203.29 196.897 203.301 196.941 203.312 196.985C203.345 197.139 203.367 197.304 203.444 197.448C203.521 197.591 203.708 197.679 203.852 197.613C203.984 197.547 204.028 197.382 204.039 197.238C204.072 196.974 204.061 196.709 204.006 196.456C203.984 196.334 203.951 196.224 203.874 196.136C203.764 196.015 203.576 195.982 203.411 195.949C203.08 195.893 202.727 195.849 202.43 196.004C202.231 196.103 202.088 196.279 201.967 196.456C200.908 197.955 200.743 200.126 201.669 201.725C201.978 202.254 202.507 202.761 203.102 202.673C203.653 202.596 204.006 202.055 204.282 201.57C204.866 200.545 205.45 199.509 206.034 198.484C206.067 198.429 206.1 198.352 206.089 198.285V198.263V198.241Z" fill="#381B42"/>
<path d="M211.777 196.687C211.623 197.724 211.689 198.815 211.755 199.873C211.766 200.072 211.777 200.292 211.645 200.446C211.491 200.634 211.193 200.634 210.973 200.546C210.565 200.391 210.289 200.016 210.058 199.642C209.463 198.65 209.132 197.536 208.581 196.522C208.074 197.051 207.798 197.779 207.677 198.517C207.555 199.256 207.6 199.994 207.644 200.733C207.456 200.777 207.269 200.821 207.081 200.81C206.894 200.799 206.696 200.711 206.607 200.546C206.552 200.457 206.541 200.347 206.519 200.248C206.045 197.525 205.604 194.791 205.196 192.047C205.163 191.826 205.152 191.551 205.34 191.418C205.439 191.352 205.56 191.341 205.67 191.341C205.781 191.341 205.902 191.341 205.979 191.418C206.034 191.473 206.045 191.562 206.056 191.65C206.266 193.711 206.464 195.761 206.773 197.812C206.784 197.922 206.839 198.054 206.949 198.054C207.17 197.569 207.39 197.073 207.622 196.588C207.732 196.346 207.842 196.103 208.018 195.905C208.195 195.706 208.437 195.552 208.702 195.563C209.143 195.563 209.452 195.982 209.628 196.39C210.157 197.591 210.124 199.079 211.028 200.039C211.645 198.561 211.094 196.809 211.656 195.309C211.689 195.21 211.733 195.111 211.822 195.045C211.91 194.979 212.031 194.957 212.108 195.023C212.229 195.122 212.174 195.309 212.108 195.453C211.943 195.861 211.844 196.28 211.777 196.709V196.687Z" fill="#381B42"/>
<path d="M219.604 197.326C219.207 195.86 218.612 194.394 218.59 192.895C218.59 192.674 218.59 192.465 218.612 192.244C218.623 192.156 218.634 192.035 218.568 191.969C218.458 191.858 218.248 191.98 218.171 192.123C218.149 192.167 218.127 192.211 218.105 192.255C218.006 192.531 218.006 192.84 218.028 193.137C218.105 194.239 218.314 195.342 218.623 196.4C218.733 196.764 218.854 197.161 218.7 197.513C217.895 196.687 217.366 195.639 216.947 194.559C216.528 193.49 216.209 192.377 215.746 191.318C215.602 190.988 215.349 190.613 214.996 190.657C214.776 190.679 214.599 190.866 214.478 191.054C214.18 191.473 213.949 191.958 213.817 192.465C213.409 192.233 212.88 192.244 212.483 192.476C211.645 192.961 211.645 194.085 211.788 195.077C211.832 195.408 211.899 195.717 211.954 195.992C211.976 196.08 211.987 196.158 211.998 196.235C212.064 196.576 212.13 196.929 212.273 197.238C212.329 197.359 212.384 197.469 212.472 197.58C212.758 197.965 213.277 198.219 213.729 198.043C214.18 197.855 214.39 197.304 214.379 196.819C214.379 196.323 214.225 195.838 214.236 195.342C214.236 195.033 214.302 194.736 214.324 194.438C214.346 194.118 214.324 193.799 214.368 193.479C214.423 193.049 214.566 192.641 214.721 192.222C214.743 192.167 214.765 192.112 214.809 192.09C214.919 192.035 215.018 192.167 215.062 192.288C215.801 194.162 216.429 196.136 217.686 197.701C217.939 198.021 218.248 198.34 218.634 198.45C219.031 198.572 219.538 198.406 219.67 198.021C219.747 197.789 219.692 197.547 219.637 197.315L219.604 197.326ZM213.74 193.49C213.706 193.832 213.618 194.173 213.541 194.504C213.398 195.165 213.31 195.838 213.277 196.521C213.277 196.565 213.277 196.61 213.243 196.654C213.221 196.687 213.166 196.709 213.133 196.687C213.111 196.676 213.1 196.654 213.1 196.632C212.725 195.673 212.428 194.074 213.354 193.325C213.453 193.247 213.596 193.181 213.684 193.258C213.751 193.314 213.751 193.413 213.751 193.501L213.74 193.49Z" fill="#381B42"/>
<path d="M218.557 191.969C218.447 191.859 218.237 191.98 218.16 192.123C218.138 192.167 218.116 192.212 218.094 192.256C218.248 192.476 218.414 192.686 218.579 192.884C218.579 192.664 218.579 192.454 218.601 192.234C218.612 192.145 218.623 192.024 218.557 191.958V191.969Z" fill="#381B42"/>
<path d="M229.999 178.587C229.999 178.587 229.966 178.52 229.955 178.487C229.768 177.991 229.569 177.33 229.657 176.801C229.79 176.029 230.705 175.158 231.531 175.5C232.215 175.776 232.49 176.591 232.524 177.275C232.546 177.65 232.513 178.035 232.391 178.388C232.336 178.553 232.27 178.708 232.171 178.851C232.083 178.983 231.818 179.171 231.873 179.336C231.884 179.38 231.917 179.413 231.95 179.446C232.204 179.711 233.472 180.725 233.824 180.262C233.901 180.174 233.913 180.042 233.913 179.92C233.913 179.116 233.89 178.311 233.78 177.506C233.703 176.944 233.593 176.36 233.714 175.798C233.736 175.698 233.802 175.566 233.913 175.588C234.012 175.61 234.023 175.731 234.023 175.831C234.023 177.22 234.684 178.531 234.728 179.92C234.728 180.185 234.728 180.461 234.607 180.703C234.409 181.122 233.946 181.364 233.483 181.386C233.02 181.409 232.568 181.254 232.171 181.034C231.19 180.505 230.418 179.612 229.999 178.587ZM231.322 176.558C231.146 176.437 230.826 176.272 230.672 176.481C230.187 177.165 230.903 178.498 231.179 178.697C231.256 178.752 231.289 178.697 231.432 178.542C231.631 178.124 231.983 177.032 231.322 176.558Z" fill="#381B42"/>
<path d="M223.936 191.175C223.65 190.458 223.495 189.687 223.484 188.915C223.484 188.794 223.484 188.662 223.396 188.584C223.275 188.485 223.065 188.562 222.999 188.706C222.933 188.849 222.955 189.014 222.977 189.18C223.121 190.205 223.264 191.23 223.407 192.244C222.68 191.616 222.217 190.745 221.765 189.885L221.213 188.827C221.103 188.595 220.971 188.375 220.784 188.199C220.596 188.033 220.321 187.934 220.078 188.033C219.802 188.143 219.67 188.463 219.593 188.75C219.373 189.543 219.284 190.37 219.317 191.186C219.328 191.495 219.339 191.847 219.13 192.079C218.843 191.329 218.447 190.624 217.962 189.984C217.818 189.808 217.664 189.621 217.443 189.554C216.407 189.246 217.223 190.954 217.41 191.252C217.631 191.594 217.851 191.924 218.083 192.244C218.105 192.2 218.127 192.156 218.149 192.112C218.226 191.969 218.436 191.847 218.546 191.958C218.612 192.024 218.601 192.134 218.59 192.233C218.568 192.454 218.557 192.663 218.568 192.884C218.656 192.994 218.744 193.093 218.832 193.203C218.943 193.335 219.064 193.468 219.218 193.523C219.428 193.589 219.659 193.512 219.813 193.358C219.968 193.214 220.056 193.005 220.111 192.784C220.409 191.594 219.659 190.293 220.067 189.136C221.18 190.381 221.632 192.156 222.9 193.247C223.22 193.523 223.661 193.754 224.035 193.556C224.135 193.501 224.212 193.424 224.278 193.324C224.399 193.137 224.432 192.884 224.421 192.663C224.388 192.134 224.113 191.66 223.914 191.164L223.936 191.175Z" fill="#381B42"/>
<path d="M228.401 188.386C228.224 187.813 227.949 187.273 227.607 186.788C227.552 186.711 227.442 186.622 227.376 186.7C227.342 186.733 227.342 186.799 227.354 186.854C227.519 187.681 227.684 188.518 227.85 189.345C227.883 189.533 227.85 189.819 227.651 189.896C227.365 190.007 227.078 189.709 226.913 189.522C225.667 188.089 224.543 186.567 223.484 185.002C223.341 184.793 223.198 184.572 223.176 184.319C223.143 183.999 223.319 183.701 223.484 183.426C223.738 182.996 223.991 182.577 224.245 182.147C224.322 182.026 224.399 181.893 224.421 181.75C224.443 181.607 224.399 181.441 224.267 181.364C224.135 181.287 223.969 181.32 223.848 181.408C223.727 181.497 223.65 181.629 223.572 181.761C223.286 182.257 222.988 182.742 222.702 183.238C222.658 183.304 222.613 183.382 222.536 183.404C222.437 183.437 222.338 183.36 222.261 183.282C222.117 183.139 221.996 182.985 221.842 182.852C221.687 182.72 221.489 182.621 221.302 182.654C221.048 182.687 220.938 182.908 220.916 183.139C220.894 183.415 221.081 183.657 221.269 183.845C221.478 184.054 221.732 184.252 221.831 184.528C221.952 184.859 221.853 185.234 221.732 185.564C221.566 186.005 221.357 186.435 221.114 186.843C221.048 186.953 220.982 187.13 221.103 187.207C221.136 187.229 221.18 187.229 221.224 187.229C221.555 187.229 221.864 187.041 222.062 186.788C222.261 186.534 222.382 186.215 222.459 185.895C222.481 185.829 222.503 185.752 222.558 185.708C222.658 185.652 222.779 185.73 222.856 185.807C223.176 186.115 223.429 186.49 223.683 186.854C224.168 187.548 224.653 188.254 225.138 188.948C225.48 189.444 225.821 189.941 226.273 190.326C226.725 190.712 227.287 191.01 227.883 191.021C228.158 191.021 228.456 190.944 228.588 190.701C228.643 190.591 228.654 190.459 228.665 190.326C228.687 189.665 228.599 189.015 228.401 188.386ZM222.239 183.393C222.239 183.393 222.239 183.382 222.239 183.371C222.239 183.371 222.239 183.382 222.239 183.393Z" fill="#381B42"/>
<path d="M226.251 179.424C226.615 178.994 226.097 178.068 225.876 177.506C225.876 177.484 225.843 177.44 225.821 177.429C225.777 177.396 225.744 177.385 225.678 177.374C225.491 178.046 225.623 178.719 225.843 179.347C226.064 179.457 226.119 179.567 226.251 179.424Z" fill="#381B42"/>
<path d="M231.399 182.941C231.278 181.993 231.046 181.056 231.124 180.108C231.124 180.008 231.124 179.887 231.046 179.843C230.969 179.799 230.881 179.843 230.826 179.909C230.771 179.975 230.771 180.064 230.76 180.152C230.627 181.508 230.87 182.897 230.605 184.23C230.583 184.33 230.55 184.451 230.462 184.495C230.374 184.55 230.253 184.517 230.153 184.495C229.613 184.308 229.128 183.966 228.753 183.525C228.687 183.448 228.621 183.337 228.654 183.249C228.676 183.183 228.742 183.139 228.798 183.095C229.205 182.786 229.415 182.268 229.459 181.761C229.503 181.254 229.382 180.736 229.228 180.251C229.161 180.041 229.095 179.832 228.941 179.678C228.742 179.457 228.423 179.369 228.125 179.38C226.736 179.435 226.527 180.956 226.747 182.015C227.001 183.238 227.728 184.374 228.765 185.079C229.128 185.322 229.525 185.52 229.955 185.564C230.385 185.608 230.848 185.465 231.124 185.123C231.355 184.837 231.421 184.451 231.443 184.087C231.465 183.712 231.443 183.337 231.388 182.963L231.399 182.941ZM228.279 182.511C228.279 182.511 228.224 182.577 228.202 182.599C228.158 182.643 228.092 182.676 228.037 182.643C228.015 182.632 227.993 182.61 227.982 182.588C227.728 182.235 227.563 181.805 227.508 181.375C227.475 181.067 227.464 180.482 227.817 180.339C227.96 180.284 228.114 180.339 228.235 180.416C228.522 180.615 228.665 180.978 228.665 181.331C228.665 181.684 228.533 182.015 228.379 182.334C228.346 182.4 228.313 182.456 228.279 182.511Z" fill="#381B42"/>
<path d="M348 269.895H28V271.095H348V269.895Z" fill="#AE83BC" mask="url(#path-43-inside-2_359_79)"/>
<path d="M29.2695 255.04L32.2241 263.373H32.3072L35.2617 255.04H36.1665L32.7273 264.495H31.804L28.3647 255.04H29.2695ZM38.9364 264.656C38.5086 264.656 38.1178 264.573 37.7638 264.407C37.4099 264.238 37.1283 263.995 36.919 263.678C36.7098 263.357 36.6051 262.97 36.6051 262.514C36.6051 262.163 36.6713 261.868 36.8036 261.628C36.936 261.388 37.1237 261.191 37.3668 261.037C37.61 260.883 37.8977 260.761 38.2301 260.672C38.5625 260.583 38.9287 260.514 39.3288 260.464C39.7259 260.415 40.0613 260.372 40.3352 260.335C40.6122 260.298 40.823 260.24 40.9677 260.16C41.1123 260.08 41.1847 259.95 41.1847 259.772V259.606C41.1847 259.123 41.04 258.742 40.7507 258.466C40.4645 258.185 40.0521 258.045 39.5135 258.045C39.0026 258.045 38.5856 258.158 38.2624 258.382C37.9424 258.607 37.7177 258.872 37.5884 259.176L36.8082 258.895C36.9683 258.507 37.1899 258.198 37.473 257.967C37.7562 257.733 38.0732 257.565 38.424 257.464C38.7749 257.359 39.1303 257.307 39.4904 257.307C39.7612 257.307 40.0429 257.342 40.3352 257.413C40.6307 257.484 40.9046 257.607 41.157 257.782C41.4093 257.955 41.614 258.196 41.771 258.507C41.9279 258.815 42.0064 259.206 42.0064 259.68V264.495H41.1847V263.373H41.1339C41.0354 263.582 40.8892 263.785 40.6953 263.982C40.5014 264.179 40.2583 264.341 39.9659 264.467C39.6735 264.593 39.3304 264.656 38.9364 264.656ZM39.0472 263.904C39.4843 263.904 39.8628 263.807 40.1829 263.613C40.503 263.419 40.7492 263.162 40.9215 262.842C41.0969 262.519 41.1847 262.163 41.1847 261.776V260.751C41.1231 260.809 41.02 260.861 40.8754 260.908C40.7338 260.954 40.5691 260.995 40.3814 261.032C40.1967 261.066 40.0121 261.095 39.8274 261.12C39.6428 261.145 39.4766 261.166 39.3288 261.185C38.9287 261.234 38.5871 261.311 38.304 261.415C38.0208 261.52 37.8039 261.665 37.6531 261.849C37.5022 262.031 37.4268 262.265 37.4268 262.551C37.4268 262.982 37.5807 263.316 37.8885 263.553C38.1963 263.787 38.5825 263.904 39.0472 263.904ZM44.1923 264.495V257.404H44.9909V258.493H45.051C45.1925 258.136 45.4387 257.848 45.7896 257.63C46.1435 257.408 46.5436 257.298 46.9899 257.298C47.0576 257.298 47.133 257.299 47.2161 257.302C47.2992 257.305 47.3684 257.308 47.4238 257.311V258.147C47.3869 258.141 47.3223 258.132 47.2299 258.119C47.1376 258.107 47.0376 258.101 46.9299 258.101C46.5605 258.101 46.2312 258.179 45.9419 258.336C45.6557 258.49 45.4295 258.704 45.2633 258.978C45.0971 259.252 45.014 259.564 45.014 259.915V264.495H44.1923ZM48.8353 264.495V257.404H49.6617V264.495H48.8353ZM49.2554 256.185C49.0861 256.185 48.9415 256.128 48.8215 256.014C48.7014 255.897 48.6414 255.757 48.6414 255.594C48.6414 255.431 48.7014 255.292 48.8215 255.179C48.9415 255.062 49.0861 255.003 49.2554 255.003C49.4247 255.003 49.5693 255.062 49.6894 255.179C49.8094 255.292 49.8694 255.431 49.8694 255.594C49.8694 255.757 49.8094 255.897 49.6894 256.014C49.5693 256.128 49.4247 256.185 49.2554 256.185ZM53.8153 264.656C53.3875 264.656 52.9967 264.573 52.6428 264.407C52.2888 264.238 52.0072 263.995 51.7979 263.678C51.5887 263.357 51.484 262.97 51.484 262.514C51.484 262.163 51.5502 261.868 51.6825 261.628C51.8149 261.388 52.0026 261.191 52.2457 261.037C52.4889 260.883 52.7766 260.761 53.109 260.672C53.4414 260.583 53.8076 260.514 54.2077 260.464C54.6048 260.415 54.9402 260.372 55.2141 260.335C55.4911 260.298 55.7019 260.24 55.8466 260.16C55.9912 260.08 56.0636 259.95 56.0636 259.772V259.606C56.0636 259.123 55.9189 258.742 55.6296 258.466C55.3434 258.185 54.931 258.045 54.3924 258.045C53.8815 258.045 53.4645 258.158 53.1413 258.382C52.8213 258.607 52.5966 258.872 52.4673 259.176L51.6871 258.895C51.8472 258.507 52.0688 258.198 52.3519 257.967C52.6351 257.733 52.9521 257.565 53.3029 257.464C53.6538 257.359 54.0092 257.307 54.3693 257.307C54.6402 257.307 54.9218 257.342 55.2141 257.413C55.5096 257.484 55.7835 257.607 56.0359 257.782C56.2882 257.955 56.4929 258.196 56.6499 258.507C56.8068 258.815 56.8853 259.206 56.8853 259.68V264.495H56.0636V263.373H56.0128C55.9143 263.582 55.7681 263.785 55.5742 263.982C55.3803 264.179 55.1372 264.341 54.8448 264.467C54.5524 264.593 54.2093 264.656 53.8153 264.656ZM53.9261 263.904C54.3632 263.904 54.7417 263.807 55.0618 263.613C55.3819 263.419 55.6281 263.162 55.8004 262.842C55.9759 262.519 56.0636 262.163 56.0636 261.776V260.751C56.002 260.809 55.8989 260.861 55.7543 260.908C55.6127 260.954 55.448 260.995 55.2603 261.032C55.0756 261.066 54.891 261.095 54.7063 261.12C54.5217 261.145 54.3555 261.166 54.2077 261.185C53.8076 261.234 53.466 261.311 53.1829 261.415C52.8997 261.52 52.6828 261.665 52.532 261.849C52.3812 262.031 52.3058 262.265 52.3058 262.551C52.3058 262.982 52.4596 263.316 52.7674 263.553C53.0752 263.787 53.4614 263.904 53.9261 263.904ZM59.8929 260.063V264.495H59.0712V257.404H59.8699V258.516H59.9437C60.1099 258.153 60.3684 257.862 60.7193 257.644C61.0732 257.422 61.5102 257.311 62.0304 257.311C62.5074 257.311 62.926 257.411 63.286 257.611C63.6492 257.808 63.9308 258.099 64.1309 258.484C64.334 258.869 64.4355 259.341 64.4355 259.901V264.495H63.6138V259.952C63.6138 259.37 63.4507 258.91 63.1245 258.572C62.8013 258.233 62.3674 258.064 61.8226 258.064C61.4502 258.064 61.1194 258.144 60.8301 258.304C60.5408 258.464 60.3115 258.695 60.1422 258.996C59.976 259.295 59.8929 259.65 59.8929 260.063ZM69.3925 257.404V258.119H66.0086V257.404H69.3925ZM67.0658 255.705H67.8921V262.643C67.8921 262.939 67.9429 263.171 68.0445 263.341C68.146 263.507 68.2784 263.625 68.4415 263.696C68.6046 263.764 68.7785 263.798 68.9632 263.798C69.0709 263.798 69.1632 263.791 69.2401 263.779C69.3171 263.764 69.3848 263.748 69.4433 263.733L69.6187 264.476C69.5387 264.507 69.4402 264.535 69.3232 264.559C69.2063 264.587 69.0616 264.601 68.8893 264.601C68.5877 264.601 68.2968 264.535 68.0168 264.402C67.7398 264.27 67.512 264.073 67.3335 263.811C67.155 263.55 67.0658 263.225 67.0658 262.837V255.705ZM75.896 258.959L75.1435 259.172C75.0696 258.959 74.965 258.767 74.8295 258.595C74.6941 258.422 74.5172 258.285 74.2987 258.184C74.0832 258.082 73.8155 258.032 73.4954 258.032C73.0153 258.032 72.6213 258.145 72.3136 258.373C72.0058 258.601 71.8519 258.895 71.8519 259.255C71.8519 259.56 71.9566 259.807 72.1658 259.998C72.3782 260.186 72.7044 260.335 73.1445 260.446L74.2156 260.709C74.8095 260.854 75.2543 261.083 75.5497 261.397C75.8482 261.711 75.9975 262.105 75.9975 262.579C75.9975 262.979 75.8867 263.334 75.6651 263.645C75.4435 263.956 75.1342 264.201 74.7372 264.379C74.3433 264.555 73.8862 264.642 73.3661 264.642C72.6737 264.642 72.1027 264.487 71.6534 264.176C71.2041 263.862 70.9163 263.41 70.7901 262.819L71.5795 262.625C71.6811 263.047 71.8796 263.365 72.1751 263.581C72.4736 263.796 72.866 263.904 73.3523 263.904C73.897 263.904 74.3325 263.782 74.6587 263.539C74.985 263.293 75.1481 262.985 75.1481 262.616C75.1481 262.33 75.0527 262.089 74.8619 261.896C74.671 261.699 74.3817 261.554 73.994 261.462L72.8352 261.185C72.2197 261.037 71.7642 260.803 71.4688 260.483C71.1733 260.163 71.0256 259.766 71.0256 259.292C71.0256 258.901 71.1317 258.558 71.3441 258.262C71.5565 257.964 71.8488 257.73 72.2212 257.561C72.5936 257.391 73.0183 257.307 73.4954 257.307C74.1448 257.307 74.6634 257.455 75.0511 257.75C75.442 258.042 75.7236 258.446 75.896 258.959Z" fill="#AE83BC"/>
<path d="M218.218 331.186L204.871 352.886C204.865 353.015 205.33 353.669 206.566 354.43C207.803 355.191 208.596 355.31 208.721 355.234L220.632 335.867L219.633 333.939L218.218 331.191V331.186Z" fill="#966199"/>
<path d="M233.579 310.511C233.034 310.177 232.483 309.928 232.024 309.815C231.835 309.766 231.695 309.75 231.592 309.75C231.441 309.75 231.376 309.782 231.371 309.799C231.371 309.799 231.371 309.809 231.371 309.815C231.371 309.874 231.403 310.052 231.679 310.376C231.987 310.733 232.456 311.111 233.002 311.451C233.936 312.023 234.665 312.212 235.005 312.218C235.118 312.218 235.188 312.196 235.21 312.164C235.291 312.029 234.827 311.278 233.579 310.517V310.511Z" fill="#966199"/>
<path d="M221.706 293.52C201.545 293.52 185.201 309.863 185.201 330.025C185.201 350.186 201.545 366.53 221.706 366.53C241.867 366.53 258.211 350.186 258.211 330.025C258.211 309.863 241.867 293.52 221.706 293.52ZM234.918 304.318C234.978 304.324 235.026 304.383 235.016 304.442C235.01 304.502 234.951 304.55 234.891 304.54C234.832 304.529 234.783 304.475 234.794 304.415C234.805 304.356 234.859 304.308 234.918 304.318ZM230.999 304.712L231.722 304.475C231.873 304.426 232.046 304.604 232.046 304.815L232.035 306.802C232.035 307.099 231.722 307.126 231.603 306.845L230.891 305.096C230.826 304.934 230.874 304.756 230.999 304.712ZM226.566 307.553L227.052 307.234C227.052 307.234 227.084 307.196 227.084 307.175L227.095 306.591C227.095 306.532 227.17 306.494 227.214 306.532L227.667 306.899C227.667 306.899 227.71 306.921 227.737 306.91L228.299 306.743C228.358 306.726 228.412 306.78 228.391 306.84L228.185 307.385C228.185 307.385 228.18 307.434 228.196 307.455L228.531 307.936C228.569 307.984 228.531 308.055 228.466 308.055L227.883 308.028C227.883 308.028 227.834 308.038 227.818 308.055L227.462 308.519C227.424 308.568 227.349 308.551 227.332 308.492L227.176 307.93C227.176 307.93 227.154 307.887 227.127 307.882L226.576 307.688C226.517 307.666 226.506 307.59 226.56 307.553H226.566ZM226.09 310.538L227.025 310.582C227.165 310.587 227.149 310.7 227.008 310.733L226.123 310.949C226.042 310.97 225.961 310.949 225.95 310.906L225.901 310.646C225.891 310.592 225.993 310.533 226.09 310.538ZM225.464 313.805C225.486 313.616 225.659 313.481 225.848 313.503C226.036 313.524 226.171 313.697 226.15 313.886C226.128 314.075 225.955 314.21 225.767 314.188C225.578 314.167 225.443 313.994 225.464 313.805ZM234.74 318.61C234.649 318.6 234.584 318.519 234.595 318.427C234.605 318.335 234.686 318.27 234.778 318.281C234.87 318.292 234.935 318.373 234.924 318.465C234.913 318.556 234.832 318.621 234.74 318.61ZM235.615 312.412L230.502 320.727L222.284 334.085L226.944 342.152C226.944 342.152 226.96 342.179 226.965 342.19L230.048 346.876C230.048 346.876 230.788 347.891 231.565 349.236C232.791 351.358 234.103 354.306 232.705 355.343C232.618 355.413 232.516 355.461 232.408 355.488C229.794 356.088 226.89 348.636 226.89 348.636L224.6 343.512C224.6 343.512 224.589 343.485 224.579 343.469L220.885 336.353L209.115 355.494C209.012 355.656 208.829 355.726 208.596 355.726C207.954 355.726 206.95 355.229 206.318 354.835C205.454 354.306 204.093 353.242 204.466 352.632L217.964 330.683L212.317 319.696L209.887 314.685L207.565 309.966C207.495 309.804 207.668 309.604 207.814 309.826L210.61 314.264L213.521 319.01L219.174 328.718L225.853 317.86L230.966 309.545C231.085 309.351 231.387 309.156 232.143 309.345C232.645 309.469 233.245 309.739 233.833 310.101C234.956 310.792 235.993 311.807 235.62 312.412H235.615ZM236.938 308.341L236.425 308.573C236.371 308.6 236.312 308.551 236.322 308.492L236.452 307.941C236.452 307.941 236.452 307.893 236.436 307.876L236.058 307.461C236.02 307.418 236.047 307.347 236.106 307.342L236.668 307.293C236.668 307.293 236.711 307.277 236.727 307.256L237.008 306.764C237.035 306.71 237.116 306.716 237.138 306.77L237.359 307.293C237.359 307.293 237.386 307.331 237.413 307.337L237.969 307.45C238.029 307.461 238.045 307.536 238.002 307.574L237.575 307.941C237.575 307.941 237.548 307.979 237.548 308.006L237.613 308.568C237.618 308.627 237.553 308.67 237.505 308.638L237.019 308.346C237.019 308.346 236.976 308.33 236.954 308.346L236.938 308.341ZM237.235 312.455C237.121 312.444 237.04 312.342 237.057 312.228C237.067 312.115 237.17 312.034 237.283 312.05C237.397 312.066 237.478 312.164 237.462 312.277C237.445 312.39 237.348 312.471 237.235 312.455ZM240.534 316.359L239.864 316.937C239.837 316.964 239.821 316.996 239.827 317.034L239.924 317.914C239.934 318.006 239.832 318.071 239.751 318.022L238.99 317.563C238.957 317.541 238.919 317.541 238.882 317.558L238.072 317.925C237.985 317.963 237.894 317.887 237.915 317.795L238.115 316.931C238.126 316.893 238.115 316.856 238.088 316.829L237.489 316.175C237.424 316.105 237.467 315.992 237.564 315.986L238.45 315.911C238.487 315.911 238.52 315.884 238.536 315.851L238.973 315.079C239.022 314.998 239.141 315.004 239.179 315.09L239.524 315.905C239.54 315.938 239.567 315.965 239.605 315.97L240.474 316.148C240.566 316.17 240.599 316.283 240.523 316.343L240.534 316.359ZM241.797 312.347C241.781 312.477 241.619 312.563 241.446 312.531L239.589 312.18C239.287 312.12 239.254 311.813 239.546 311.748L241.49 311.343C241.695 311.3 241.905 311.435 241.889 311.591L241.803 312.347H241.797Z" fill="#966199"/>
<path d="M231.841 353.755C232.235 353.528 231.803 352.032 230.869 350.418C229.935 348.803 228.86 347.68 228.466 347.907C228.072 348.134 228.504 349.629 229.438 351.244C230.372 352.858 231.447 353.981 231.841 353.755Z" fill="#966199"/>
<path d="M227.635 320.171C226.917 319.728 226.236 319.156 225.934 318.637L219.444 329.193L221.571 332.843L222.014 333.61L229.773 320.991C229.179 320.959 228.358 320.608 227.635 320.165V320.171Z" fill="#966199"/>
<path d="M308.507 331.186L295.159 352.886C295.154 353.015 295.618 353.669 296.855 354.43C298.091 355.191 298.885 355.31 299.009 355.234L310.92 335.867L309.921 333.939L308.507 331.191V331.186Z" fill="#381B42"/>
<path d="M323.868 310.511C323.323 310.177 322.772 309.928 322.313 309.815C322.124 309.766 321.984 309.75 321.881 309.75C321.73 309.75 321.665 309.782 321.66 309.799C321.66 309.799 321.66 309.809 321.66 309.815C321.66 309.874 321.692 310.052 321.967 310.376C322.275 310.733 322.745 311.111 323.29 311.451C324.224 312.023 324.953 312.212 325.293 312.218C325.407 312.218 325.477 312.196 325.499 312.164C325.58 312.029 325.115 311.278 323.868 310.517V310.511Z" fill="#381B42"/>
<path d="M311.995 293.52C291.833 293.52 275.49 309.863 275.49 330.025C275.49 350.186 291.833 366.53 311.995 366.53C332.156 366.53 348.5 350.186 348.5 330.025C348.5 309.863 332.156 293.52 311.995 293.52ZM325.207 304.318C325.266 304.324 325.315 304.383 325.304 304.442C325.299 304.502 325.239 304.55 325.18 304.54C325.121 304.529 325.072 304.475 325.083 304.415C325.094 304.356 325.148 304.308 325.207 304.318ZM321.287 304.712L322.011 304.475C322.162 304.426 322.335 304.604 322.335 304.815L322.324 306.802C322.324 307.099 322.011 307.126 321.892 306.845L321.179 305.096C321.114 304.934 321.163 304.756 321.287 304.712ZM316.854 307.553L317.34 307.234C317.34 307.234 317.373 307.196 317.373 307.175L317.383 306.591C317.383 306.532 317.459 306.494 317.502 306.532L317.956 306.899C317.956 306.899 317.999 306.921 318.026 306.91L318.587 306.743C318.647 306.726 318.701 306.78 318.679 306.84L318.474 307.385C318.474 307.385 318.469 307.434 318.485 307.455L318.82 307.936C318.857 307.984 318.82 308.055 318.755 308.055L318.172 308.028C318.172 308.028 318.123 308.038 318.107 308.055L317.751 308.519C317.713 308.568 317.637 308.551 317.621 308.492L317.464 307.93C317.464 307.93 317.443 307.887 317.416 307.882L316.865 307.688C316.806 307.666 316.795 307.59 316.849 307.553H316.854ZM316.379 310.538L317.313 310.582C317.454 310.587 317.437 310.7 317.297 310.733L316.411 310.949C316.33 310.97 316.249 310.949 316.239 310.906L316.19 310.646C316.179 310.592 316.282 310.533 316.379 310.538ZM315.753 313.805C315.774 313.616 315.947 313.481 316.136 313.503C316.325 313.524 316.46 313.697 316.438 313.886C316.417 314.075 316.244 314.21 316.055 314.188C315.866 314.167 315.731 313.994 315.753 313.805ZM325.029 318.61C324.937 318.6 324.872 318.519 324.883 318.427C324.894 318.335 324.975 318.27 325.067 318.281C325.158 318.292 325.223 318.373 325.212 318.465C325.202 318.556 325.121 318.621 325.029 318.61ZM325.904 312.412L320.79 320.727L312.572 334.085L317.232 342.152C317.232 342.152 317.248 342.179 317.254 342.19L320.337 346.876C320.337 346.876 321.077 347.891 321.854 349.236C323.08 351.358 324.392 354.306 322.993 355.343C322.907 355.413 322.804 355.461 322.696 355.488C320.083 356.088 317.178 348.636 317.178 348.636L314.889 343.512C314.889 343.512 314.878 343.485 314.867 343.469L311.174 336.353L299.403 355.494C299.301 355.656 299.117 355.726 298.885 355.726C298.243 355.726 297.238 355.229 296.606 354.835C295.743 354.306 294.382 353.242 294.755 352.632L308.253 330.683L302.605 319.696L300.175 314.685L297.854 309.966C297.784 309.804 297.956 309.604 298.102 309.826L300.899 314.264L303.809 319.01L309.462 328.718L316.141 317.86L321.255 309.545C321.373 309.351 321.676 309.156 322.432 309.345C322.934 309.469 323.533 309.739 324.122 310.101C325.245 310.792 326.282 311.807 325.909 312.412H325.904ZM327.226 308.341L326.713 308.573C326.659 308.6 326.6 308.551 326.611 308.492L326.74 307.941C326.74 307.941 326.74 307.893 326.724 307.876L326.346 307.461C326.309 307.418 326.336 307.347 326.395 307.342L326.956 307.293C326.956 307.293 327 307.277 327.016 307.256L327.297 306.764C327.324 306.71 327.405 306.716 327.426 306.77L327.648 307.293C327.648 307.293 327.675 307.331 327.702 307.337L328.258 307.45C328.317 307.461 328.333 307.536 328.29 307.574L327.864 307.941C327.864 307.941 327.837 307.979 327.837 308.006L327.901 308.568C327.907 308.627 327.842 308.67 327.793 308.638L327.307 308.346C327.307 308.346 327.264 308.33 327.243 308.346L327.226 308.341ZM327.523 312.455C327.41 312.444 327.329 312.342 327.345 312.228C327.356 312.115 327.459 312.034 327.572 312.05C327.685 312.066 327.766 312.164 327.75 312.277C327.734 312.39 327.637 312.471 327.523 312.455ZM330.822 316.359L330.153 316.937C330.126 316.964 330.11 316.996 330.115 317.034L330.212 317.914C330.223 318.006 330.12 318.071 330.039 318.022L329.278 317.563C329.246 317.541 329.208 317.541 329.17 317.558L328.36 317.925C328.274 317.963 328.182 317.887 328.204 317.795L328.403 316.931C328.414 316.893 328.403 316.856 328.376 316.829L327.777 316.175C327.712 316.105 327.756 315.992 327.853 315.986L328.738 315.911C328.776 315.911 328.808 315.884 328.825 315.851L329.262 315.079C329.311 314.998 329.429 315.004 329.467 315.09L329.813 315.905C329.829 315.938 329.856 315.965 329.894 315.97L330.763 316.148C330.855 316.17 330.887 316.283 330.812 316.343L330.822 316.359ZM332.086 312.347C332.07 312.477 331.908 312.563 331.735 312.531L329.878 312.18C329.575 312.12 329.543 311.813 329.834 311.748L331.778 311.343C331.983 311.3 332.194 311.435 332.178 311.591L332.091 312.347H332.086Z" fill="#381B42"/>
<path d="M322.129 353.755C322.524 353.528 322.092 352.032 321.158 350.418C320.223 348.803 319.149 347.68 318.755 347.907C318.361 348.134 318.793 349.629 319.727 351.244C320.661 352.858 321.735 353.981 322.129 353.755Z" fill="#381B42"/>
<path d="M317.923 320.171C317.205 319.728 316.525 319.156 316.222 318.637L309.732 329.193L311.86 332.843L312.302 333.61L320.061 320.991C319.467 320.959 318.647 320.608 317.923 320.165V320.171Z" fill="#381B42"/>
<path d="M146.038 338.194C146 338.874 145.773 339.128 146.265 339.29C147.717 339.759 149.51 337.497 150.687 336.342C150.741 336.288 150.806 336.196 150.827 336.131C150.87 336.001 150.87 335.888 150.811 335.726C148.916 335.953 147.377 336.984 146.033 338.194H146.038Z" fill="#381B42"/>
<path d="M40.847 335.51C40.3178 335.138 39.6375 335.068 38.995 335.046C37.4615 334.997 35.9227 335.149 34.4001 334.981C32.98 334.83 29.2977 333.394 28.477 335.197C28.2988 335.586 28.2772 336.023 28.2556 336.45C27.9208 343.296 27.9586 350.153 28.1206 357C28.1368 357.648 28.1746 358.361 28.6227 358.83C29.1735 359.413 30.0968 359.381 30.9013 359.322C33.439 359.133 35.9929 359.106 38.536 359.246C38.9842 359.268 39.4431 359.3 39.8697 359.165C40.2962 359.03 40.6904 358.695 40.7552 358.253C40.8308 357.729 40.4204 357.232 39.9291 357.038C39.4377 356.843 38.887 356.87 38.3632 356.897C36.5598 357.005 34.7564 357.113 32.9477 357.221C32.6993 357.237 32.3861 357.21 32.2997 356.978C32.1917 356.687 32.3105 356.087 32.2727 355.763C32.2079 355.137 32.0999 354.516 32.0082 353.89C31.803 352.47 31.7112 351.05 31.884 349.624C31.9272 349.284 31.9866 348.917 32.2187 348.663C32.6129 348.22 33.304 348.28 33.8925 348.285C34.8212 348.296 35.7445 348.096 36.5868 347.708C37.0782 347.481 37.6181 346.979 37.3859 346.487C37.2618 346.217 36.954 346.093 36.6732 346.007C35.6095 345.683 34.4811 345.586 33.3796 345.726C32.8127 345.796 32.0999 345.872 31.7976 345.386C31.6626 345.175 31.6572 344.911 31.6518 344.662C31.6086 342.416 31.56 340.17 31.5168 337.918C31.5168 337.778 31.5168 337.632 31.5762 337.508C31.7328 337.211 32.1485 337.217 32.4779 337.254C34.8374 337.546 37.2132 337.713 39.5943 337.762C40.226 337.773 40.9657 337.724 41.3167 337.2C41.5165 336.903 41.5165 336.531 41.3869 336.191C41.2843 335.921 41.0953 335.672 40.8578 335.505L40.847 335.51Z" fill="#381B42"/>
<path d="M122.383 351.39C121.071 353.668 119.754 355.947 118.441 358.225C117.205 354.397 119.446 350.283 119.111 346.271C119.03 345.305 118.603 344.16 117.642 344.025C116.967 343.928 116.357 344.392 115.844 344.84C113.609 346.789 111.552 348.933 109.694 351.244C109.835 349.095 109.975 346.941 110.116 344.792C110.153 344.209 110.159 343.544 109.732 343.15C109.198 342.653 108.264 342.923 107.815 343.501C107.367 344.079 107.27 344.846 107.173 345.569C106.385 351.508 104.63 357.324 102.006 362.712C100.121 356.789 102.907 350.466 103.123 344.257C103.145 343.663 103.123 343.021 102.772 342.54C102.092 341.617 100.613 341.849 99.6516 342.486C98.6905 343.118 97.8968 344.057 96.7899 344.376C95.9314 342.815 93.6097 342.648 92.0817 343.561C90.5536 344.473 89.6411 346.114 88.7934 347.68C86.7147 351.535 84.6305 355.391 82.5518 359.24C80.8887 356.093 82.7839 352.248 82.3844 348.712C82.2278 347.292 81.2937 345.656 79.8737 345.78C79.2473 345.834 78.7128 346.228 78.216 346.611C76.742 347.734 75.2626 348.863 73.7886 349.986C75.16 344.765 76.5314 339.549 77.9029 334.328C78.0541 333.744 78.2053 333.124 78.0055 332.557C77.8057 331.99 77.093 331.569 76.5854 331.887C76.3155 332.054 76.1859 332.368 76.0725 332.665C74.1179 337.924 74.4473 343.976 71.6288 348.83C69.8038 351.973 66.8341 354.278 63.7295 356.163C63.3677 356.379 62.9088 356.595 62.5524 356.373C62.3095 356.222 62.2177 355.925 62.1529 355.644C61.1486 351.384 63.087 346.595 66.7693 344.23C66.467 344.943 67.1581 345.823 67.9302 345.818C68.7077 345.812 69.3557 345.083 69.415 344.306C69.4744 343.528 69.0317 342.778 68.4108 342.313C67.3255 341.493 65.7813 341.487 64.5394 342.033C63.2975 342.583 62.3257 343.609 61.5481 344.721C58.6271 348.922 58.0331 354.64 54.3022 358.144C54.6099 354.192 54.9177 350.24 55.2255 346.282C55.2957 345.386 55.1769 344.214 54.3076 343.993C53.8 343.863 53.2871 344.165 52.8551 344.462C50.1122 346.352 47.7041 348.728 45.7819 351.449C46.1383 349.219 46.1491 346.93 45.8143 344.694C45.2366 340.855 42.4937 346.762 42.4289 348.188C42.3425 350.018 42.7961 351.832 43.39 353.571C43.6222 354.257 43.9731 355.023 44.6697 355.207C45.512 355.428 46.2733 354.678 46.8186 353.992C48.6922 351.622 50.4902 349.192 52.2018 346.703C52.056 350.396 51.9156 354.095 51.7699 357.788C51.7267 358.916 51.6943 360.099 52.2072 361.103C52.7201 362.107 53.9782 362.826 54.9987 362.345C55.7708 361.983 56.138 361.109 56.4349 360.304C57.1638 358.344 57.8928 356.379 58.6271 354.419C58.8754 355.526 59.1346 356.654 59.7447 357.61C60.3549 358.565 61.4024 359.321 62.5362 359.267C63.4973 359.219 64.3342 358.619 65.0901 358.026C67.3093 356.282 69.4096 354.376 71.3588 352.335C70.7379 353.598 70.6029 355.094 70.9863 356.449C71.0997 356.843 71.2724 357.253 71.618 357.475C72.1903 357.842 72.984 357.523 73.3998 356.989C73.8155 356.454 73.9559 355.763 74.1449 355.115C74.9818 352.254 76.9958 349.754 79.6145 348.328C79.6091 351.919 79.9978 355.504 80.7808 359.008C81.0237 360.099 81.7095 361.46 82.8055 361.238C83.5074 361.098 83.8908 360.347 84.1662 359.689C85.1597 357.345 86.1477 354.996 87.1412 352.653C86.9631 354.289 86.9577 356.298 88.3669 357.151C89.5818 357.885 91.2286 357.243 92.1519 356.163C93.0752 355.083 93.4855 353.674 94.0362 352.367C95.2889 349.397 97.3839 346.789 100.013 344.927C100.154 351.12 97.6322 357.529 99.7326 363.355C100.008 364.121 100.386 364.888 101.028 365.385C101.676 365.882 102.648 366.022 103.291 365.525C103.777 365.147 103.971 364.516 104.139 363.927C105.04 360.731 105.942 357.54 106.849 354.343C107.227 355.207 108.431 355.434 109.295 355.05C110.159 354.673 110.758 353.879 111.314 353.117C112.886 350.979 114.451 348.841 116.023 346.703C115.715 350.812 115.601 354.937 115.693 359.057C115.709 359.84 115.742 360.644 116.071 361.352C116.401 362.059 117.113 362.653 117.891 362.593C118.917 362.518 119.538 361.46 119.97 360.525C121.471 357.243 122.777 353.873 123.889 350.439C123.862 350.423 123.83 350.412 123.803 350.402C123.242 350.207 122.685 350.834 122.372 351.379L122.383 351.39ZM95.2835 346.606C95.1647 346.8 95.0351 346.989 94.8948 347.167C94.6194 347.518 94.3116 347.842 94.0093 348.172C92.5622 349.743 91.2556 351.438 90.1055 353.236C90.0353 353.344 89.9597 353.458 89.8409 353.517C89.7221 353.571 89.5548 353.539 89.5116 353.414C89.4954 353.36 89.5062 353.301 89.5116 353.247C89.8301 351.622 90.4457 350.056 91.315 348.652C92.0655 347.437 93.2749 345.413 94.9757 345.758C95.1215 345.791 95.2781 345.845 95.3591 345.969C95.4833 346.163 95.3861 346.417 95.2673 346.611L95.2835 346.606Z" fill="#381B42"/>
<path d="M166.863 349.581C165.449 350.418 164.277 351.601 163.057 352.702C162.187 353.485 158.284 357.47 157.106 356.59C156.777 356.341 156.626 355.926 156.518 355.526C156.243 354.527 155.578 351.752 156.491 350.92C156.766 350.667 157.198 350.758 157.565 350.807C158.921 351.001 160.308 350.478 161.377 349.624C162.446 348.771 163.251 347.632 163.942 346.45C164.325 345.796 164.687 345.067 164.579 344.317C164.428 343.286 163.445 342.611 162.533 342.092C161.928 341.747 161.291 341.412 160.6 341.353C159.725 341.277 158.867 341.655 158.154 342.157C156.372 343.415 155.335 345.375 154.245 347.303C154.245 347.33 154.245 347.357 154.245 347.389C154.245 347.529 154.229 347.621 154.31 347.513C154.31 347.513 154.245 347.308 154.239 347.303C153.672 348.307 152.965 349.5 152.242 350.375C150.449 352.54 147.895 353.917 145.822 355.818C145.498 356.115 145.174 356.433 144.763 356.606C144.353 356.779 143.835 356.762 143.527 356.444C143.37 356.282 143.289 356.071 143.219 355.861C142.744 354.441 142.62 352.907 142.852 351.428C142.879 351.26 142.917 351.082 143.025 350.953C143.408 350.499 144.466 350.883 144.979 350.856C145.822 350.812 146.637 350.499 147.344 350.051C148.284 349.452 149.045 348.62 149.736 347.751C150.195 347.173 150.633 346.568 150.892 345.883C151.34 344.684 151.065 343.561 150.141 342.692C148.046 340.715 145.158 341.401 143.392 343.356C142.733 344.079 141.983 344.781 141.518 345.656C140.476 347.621 139.002 349.306 137.647 351.055C136.929 351.979 136.211 352.907 135.487 353.831C133.711 356.12 132.118 358.647 130.531 361.071C130.347 361.347 130.066 361.665 129.753 361.562C129.51 361.487 129.413 361.206 129.354 360.958C129.051 359.737 128.905 358.479 128.905 357.221C128.959 356.698 129.856 348.005 130.088 346.255C130.223 345.435 130.331 344.608 130.396 343.777C130.439 343.253 130.471 342.702 130.774 342.276C131.011 341.941 131.378 341.731 131.746 341.542C133.603 340.575 135.633 339.938 137.712 339.668C138.16 339.609 138.727 339.457 138.776 339.009C138.792 338.863 138.743 338.718 138.689 338.583C138.689 338.577 138.684 338.566 138.678 338.561C138.392 337.816 138.074 337.335 137.188 337.508C135.968 337.746 134.926 337.994 133.797 338.502C133.149 338.793 131.837 339.463 131.233 338.75C130.957 338.426 131.125 337.935 131.222 337.519C131.378 336.822 131.238 336.018 130.714 335.532C130.147 335.003 129.208 335.041 128.695 335.624C128.085 336.315 128.171 337.449 128.198 338.302C128.231 339.268 128.144 340.375 127.383 340.964C127.005 341.255 126.519 341.363 126.071 341.536C124.899 341.99 123.9 342.929 122.653 343.086C122.426 343.113 122.194 343.118 121.983 343.199C121.773 343.28 121.578 343.469 121.578 343.696C121.578 343.89 121.713 344.052 121.859 344.182C122.475 344.727 123.355 344.905 124.176 344.803C124.991 344.7 125.758 344.344 126.465 343.923C126.773 343.739 127.188 343.55 127.458 343.788C127.61 343.923 127.647 344.139 127.658 344.338C127.696 345.003 127.685 346.136 127.647 347.276C127.647 347.276 125.093 358.307 126.757 361.865C127.253 364.062 128.992 365.698 131.135 363.933C132.258 363.004 133.419 362.027 134.019 360.699C134.019 360.699 137.577 355.963 139.413 352.988C139.413 353.037 139.413 353.085 139.413 353.139C139.423 354.705 139.828 356.314 140.838 357.513C141.848 358.712 143.527 359.403 145.028 358.971C146.248 358.62 147.161 357.626 148.003 356.676C149.628 354.851 151.254 353.026 152.879 351.206C152.938 352.826 153.008 354.473 153.516 356.012C154.013 357.508 155.119 358.982 156.68 359.181C157.911 359.338 159.099 358.668 160.065 357.886C162.83 355.645 164.628 352.34 167.527 350.278C167.722 350.137 167.943 349.959 167.921 349.722C167.878 349.3 167.236 349.365 166.869 349.581H166.863ZM160.881 343.782C161.577 343.782 161.712 344.754 161.712 345.343C161.712 347.562 158.726 348.501 157.479 348.712C156.923 348.642 156.75 348.642 156.75 348.399C156.75 347.459 158.591 343.782 160.881 343.782ZM147.485 343.782C148.181 343.782 148.316 344.754 148.316 345.343C148.316 347.562 145.33 348.501 144.083 348.712C143.527 348.642 143.354 348.642 143.354 348.399C143.354 347.459 145.195 343.782 147.485 343.782ZM131.006 338.437C131.006 338.437 131.006 338.437 131.006 338.442C130.99 338.442 130.973 338.453 130.957 338.469C130.973 338.459 130.984 338.448 131 338.432L131.006 338.437ZM140.854 347.394C140.854 347.427 140.854 347.448 140.843 347.465C140.822 347.184 140.795 347.017 140.795 347.017C140.827 347.141 140.854 347.265 140.854 347.394Z" fill="#381B42"/>
<path d="M89.7822 313.805L89.1719 313.27L88.097 314.464L88.54 314.998L89.7822 313.805Z" fill="#381B42"/>
<path d="M92.6487 325.208L92.2438 328.129L92.6487 327.741L92.9241 326.402L92.6487 325.208Z" fill="#381B42"/>
<path d="M45.4743 312.925C45.5607 312.817 45.6471 312.73 45.7389 312.66C46.2951 312.104 47.1266 311.273 47.1266 310.473C47.1266 310.301 46.781 310.198 46.5704 310.198C45.2962 310.198 44.6158 311.785 44.1785 312.703C43.1256 314.896 42.2023 317.147 41.387 319.442C41.3816 319.442 41.3708 319.442 41.3654 319.436C40.4961 321.105 39.3514 326.029 38.8331 326.029C38.0016 326.029 37.548 324.118 37.548 323.459C37.548 321.553 37.6344 319.399 37.7208 317.466C37.7964 316.775 37.953 315.862 37.98 315.549C38.0448 314.744 38.1096 313.934 38.1798 313.13C38.2122 308.357 38.3742 303.589 38.6711 298.827C38.6927 298.471 38.6873 298.055 38.4066 297.839C38.304 297.763 38.1798 297.72 38.0556 297.693C37.0999 297.461 35.8364 297.871 35.9228 299.043C36.2846 303.773 35.6043 308.492 35.6043 313.222C35.6043 317.379 34.6486 321.564 35.3505 325.711C35.6799 327.643 36.2738 331.731 39.1517 331.007C41.8082 330.338 42.3697 326.823 42.5695 324.409C42.5749 324.425 42.5803 324.436 42.5911 324.447C42.8772 322.287 43.2714 320.138 43.7681 318.016C44.1623 316.343 44.5025 314.372 45.4797 312.925H45.4743Z" fill="#381B42"/>
<path d="M50.5279 305.614C50.5279 305.889 50.5279 305.927 50.8033 306.203C51.8076 305.371 53.1304 304.016 53.1304 302.628C53.1304 301.516 51.813 300.339 50.5279 300.339C50.0744 300.339 49.9016 301.241 49.9016 301.656C49.9016 302.245 50.2148 302.558 50.6629 303.287C50.6305 304.086 50.5225 304.815 50.5225 305.614H50.5279Z" fill="#381B42"/>
<path d="M53.0118 325.451C53.0118 325.694 53.0442 325.964 53.2278 326.126C53.5842 326.439 54.1295 326.104 54.4481 325.754C55.4254 324.668 56.1111 323.324 56.4135 321.898C56.6402 320.813 56.705 319.582 57.5041 318.81C57.9415 318.389 58.5408 318.184 59.1185 318C60.3928 317.595 61.6887 317.244 62.9899 316.947C63.1627 316.909 63.3517 316.872 63.5028 316.958C63.6324 317.028 63.708 317.174 63.7674 317.309C64.8149 319.641 64.2912 322.406 65.1389 324.819C65.4736 325.764 66.1917 326.742 67.196 326.736C68.0977 326.736 68.8158 325.889 68.9886 325.003C69.1668 324.118 68.94 323.21 68.7241 322.336C67.0826 315.721 65.9812 308.972 65.4304 302.18C65.3602 301.305 65.2792 300.376 64.7555 299.669C61.9208 295.868 58.6542 306.3 58.1521 307.779C57.2072 310.587 55.9059 313.281 55.1878 316.159C54.7288 318.005 54.5129 319.911 53.9459 321.726C53.5734 322.919 53.0388 324.096 53.0118 325.343C53.0118 325.376 53.0118 325.413 53.0118 325.446V325.451ZM58.6002 314.15C58.6272 313.599 58.8054 313.065 58.989 312.541C59.5343 310.992 60.1552 309.474 60.7816 307.957C60.8895 307.693 62.1152 305.198 62.261 306.094C62.6713 308.567 62.9953 311.051 63.2329 313.546C63.2491 313.713 63.2653 313.896 63.1843 314.048C63.0709 314.264 62.8117 314.35 62.5742 314.409C61.4673 314.69 60.3388 314.885 59.1995 314.982C59.0808 314.993 58.962 314.998 58.854 314.949C58.665 314.858 58.611 314.62 58.6002 314.409C58.6002 314.323 58.6002 314.237 58.6002 314.15Z" fill="#381B42"/>
<path d="M75.97 304.853C76.8717 304.853 77.2874 303.913 77.2874 303.12C77.2874 302.25 76.3479 302.288 75.5542 302.115C74.9657 302.115 74.8955 302.812 74.8955 303.157C74.8955 303.784 75.1385 304.858 75.97 304.858V304.853Z" fill="#381B42"/>
<path d="M122.48 304.853C123.382 304.853 123.798 303.913 123.798 303.12C123.798 302.25 122.858 302.288 122.065 302.115C121.476 302.115 121.406 302.812 121.406 303.157C121.406 303.784 121.649 304.858 122.48 304.858V304.853Z" fill="#381B42"/>
<path d="M76.0725 323.983C77.2766 324.263 78.5508 323.686 79.4255 322.811C80.2948 321.936 80.8456 320.792 81.3747 319.674C81.5313 320.511 82.5734 320.916 83.3941 320.705C84.2148 320.495 84.8519 319.858 85.4458 319.253C87.7784 316.861 90.1055 314.474 92.438 312.082C93.6367 314.636 93.0266 317.719 91.7199 320.219C90.4133 322.719 88.4803 324.83 86.8605 327.141C84.4955 330.521 82.7677 334.571 83.1457 338.674C83.2537 339.873 83.5668 341.099 84.3228 342.033C85.0841 342.967 86.3691 343.545 87.5192 343.199C88.977 342.767 89.6844 341.153 90.1541 339.706C91.2232 336.439 92.0331 333.086 92.5784 329.69C92.9834 327.185 93.2533 324.604 94.344 322.309C95.4347 320.014 97.5567 318.011 100.094 317.892C99.8946 317.903 100.931 319.928 101.055 320.084C101.536 320.684 102.168 321.175 102.848 321.526C106.617 323.475 110.202 321.051 111.617 317.644C111.357 319.291 111.233 320.959 111.25 322.627C111.26 323.54 111.325 324.501 111.806 325.279C112.394 326.234 113.663 326.677 114.576 325.894C115.488 325.111 115.904 323.864 116.384 322.8C116.784 321.92 117.216 321.051 117.68 320.209C117.983 319.663 118.917 318.583 118.825 317.919C119.014 319.312 119.327 320.727 120.094 321.904C120.86 323.081 122.162 323.994 123.571 323.961C126.308 323.896 127.712 320.727 128.463 318.097C128.474 321.321 128.954 324.782 131.125 327.168C131.724 327.827 132.593 328.421 133.452 328.173C134.629 327.838 134.85 326.304 134.937 325.084C135.277 319.998 137.042 315.02 139.98 310.851C139.305 316.164 138.646 321.666 139.526 326.882C139.769 328.335 140.136 329.765 140.649 331.169C140.957 332.012 141.346 332.865 142.037 333.432C142.728 333.999 143.802 334.193 144.521 333.653C145.147 333.178 145.314 332.314 145.433 331.536C145.908 328.351 146.292 325.154 146.594 321.947C147.096 323.54 148.867 324.625 150.514 324.35C151.518 324.182 152.393 323.589 153.203 322.968C156.14 320.716 158.662 317.925 160.594 314.766C158.1 316.699 155.605 318.632 153.111 320.565C152.431 321.094 151.659 321.65 150.8 321.575C149.321 321.445 148.667 319.42 149.331 318.092C150.001 316.764 151.443 316.046 152.814 315.479C154.185 314.912 155.659 314.361 156.572 313.189C157.436 312.077 157.625 310.484 157.052 309.199C156.475 307.914 155.163 306.996 153.759 306.894C151.556 306.742 149.639 308.454 148.505 310.344C145.109 315.997 146.373 323.265 144.407 329.566C144.294 329.927 144.143 330.322 143.808 330.505C142.955 330.97 142.215 329.717 142.075 328.756C140.525 317.935 144.731 307.218 146.221 296.392C146.34 295.517 146.2 294.297 145.32 294.205C141.043 304.297 136.767 314.393 132.491 324.485C131.589 323.945 131.189 322.86 130.946 321.839C129.948 317.611 130.633 313.162 131.8 308.983C132.966 304.799 134.613 300.755 135.574 296.521C135.66 296.143 135.741 295.728 135.585 295.371C135.309 294.745 134.407 294.621 133.814 294.956C133.22 295.29 132.869 295.933 132.582 296.554C130.736 300.614 130.417 305.177 129.71 309.583C129.003 313.988 127.745 318.573 124.537 321.672C122.966 318.627 124.311 314.944 124.068 311.532C123.954 309.939 122.891 307.979 121.33 308.346C120.013 308.654 119.667 310.322 119.462 311.656C118.771 316.067 116.703 320.252 113.614 323.475C114.198 319.539 114.592 315.57 114.791 311.597C114.862 310.263 114.441 308.427 113.107 308.497C112.097 308.546 111.6 309.718 111.293 310.679C110.585 312.898 109.662 315.041 108.539 317.082C108.204 317.698 107.821 318.33 107.211 318.67C105.613 319.566 103.647 317.854 103.312 316.056C102.978 314.258 103.593 312.423 103.588 310.592C103.588 309.68 103.393 308.702 102.729 308.082C102.065 307.461 100.823 307.423 100.348 308.2C100.127 308.562 100.111 309.005 100.111 309.426C100.111 310.938 100.278 312.477 99.8946 313.94C99.5112 315.403 98.3936 316.812 96.8925 316.963C96.5362 317.001 96.1366 316.942 95.9044 316.672C95.7371 316.478 95.6885 316.208 95.6777 315.948C95.6183 314.561 96.3958 313.297 96.8277 311.974C97.2543 310.652 97.1679 308.902 95.9422 308.249C95.0837 307.79 94.0363 308.071 93.0698 308.162C91.3906 308.319 89.679 307.855 88.0321 308.189C85.2191 308.751 83.3509 311.424 82.19 314.042C81.0291 316.661 80.1976 319.55 78.1999 321.602C77.0282 320.365 76.9418 318.454 77.1794 316.764C77.4169 315.074 77.9029 313.373 77.6221 311.688C77.4115 310.446 76.6016 309.151 75.3922 308.675C73.8372 308.065 73.5132 309.933 73.1352 311.116C72.1633 314.156 72.1417 317.503 73.1352 320.538C73.6266 322.039 74.5445 323.621 76.0833 323.983H76.0725ZM91.7631 325.338C91.6335 326.385 91.4877 327.433 91.3204 328.48C91.0234 330.338 90.667 332.184 90.2459 334.02C89.7923 336.002 89.2632 337.994 88.2913 339.781C87.8378 340.618 87.0279 341.504 86.11 341.272C85.1867 341.039 84.9059 339.873 84.9005 338.923C84.8843 336.299 85.6888 333.723 86.8659 331.38C87.611 329.895 88.5127 328.497 89.4684 327.141C89.6951 326.817 91.9845 323.583 91.7685 325.338H91.7631ZM92.6648 327.033C92.6648 327.033 92.5622 326.963 92.5622 326.931C92.5622 326.861 92.5946 326.828 92.7026 326.828C92.7242 326.85 92.735 326.873 92.735 326.898C92.735 326.969 92.7026 327.039 92.6648 327.039V327.033ZM153.996 309.194C154.693 309.194 154.828 310.166 154.828 310.754C154.828 312.973 151.842 313.913 150.595 314.123C150.039 314.053 149.866 314.053 149.866 313.81C149.866 312.871 151.707 309.194 153.996 309.194ZM88.9824 313.913C88.9122 313.913 88.9122 313.843 88.9122 313.772C88.9446 313.74 88.9824 313.74 88.9824 313.702C89.0148 313.735 89.0148 313.772 89.0526 313.805C89.0526 313.875 89.0202 313.907 88.9824 313.907V313.913ZM84.5495 316.272C84.8735 315.765 85.2137 315.268 85.5754 314.777C86.9847 312.882 88.6963 311.175 90.748 310.02C91.1314 309.804 91.7793 309.707 91.8441 310.182C91.8657 310.36 91.7847 310.533 91.6443 310.641C89.1228 312.655 87.0818 315.241 84.42 317.066C84.2418 316.839 84.393 316.51 84.5495 316.267V316.272Z" fill="#381B42"/>
</svg>
