<svg width="375" height="250" viewBox="0 0 375 250" fill="none" xmlns="http://www.w3.org/2000/svg">
<rect width="375" height="250" fill="#F2D3F2"/>
<path opacity="0.64" d="M187.945 229.033C245.431 229.033 292.033 182.431 292.033 124.945C292.033 67.4588 245.431 20.8571 187.945 20.8571C130.459 20.8571 83.857 67.4588 83.857 124.945C83.857 182.431 130.459 229.033 187.945 229.033Z" fill="white"/>
<path d="M225.965 63.4916L212.63 85.1721C212.031 86.1448 209.071 85.4064 206.014 83.5263C202.959 81.6462 200.963 79.3361 201.562 78.3634L214.898 56.6829C214.299 57.6555 216.295 59.9656 219.349 61.8457C222.404 63.7259 225.366 64.4643 225.965 63.4916Z" fill="#381B42"/>
<path d="M211.512 86.1478C209.97 86.1478 207.701 85.1988 205.732 83.986C204.208 83.0489 202.885 81.9724 202.01 80.9582C200.717 79.4607 200.803 78.5651 201.103 78.0787L214.439 56.3982L215.364 56.9676C215.296 57.0773 215.31 57.5755 216.167 58.5689C216.974 59.503 218.205 60.5024 219.637 61.3831C222.783 63.3166 225.224 63.6636 225.506 63.2069L226.431 63.7763L213.095 85.4568C212.796 85.9432 212.232 86.1507 211.512 86.1507V86.1478ZM214.59 58.222L202.025 78.6481C201.957 78.7578 201.972 79.256 202.829 80.2495C203.635 81.1836 204.866 82.1829 206.298 83.0637C209.445 84.9972 211.885 85.3441 212.167 84.8875L224.726 64.4702C223.187 64.4228 220.983 63.4916 219.065 62.3113C217.54 61.3743 216.218 60.2978 215.343 59.2836C215.005 58.8921 214.759 58.5393 214.59 58.2279V58.222Z" fill="#381B42"/>
<path d="M224.847 64.4672C223.305 64.4672 221.037 63.5182 219.068 62.3054C217.543 61.3683 216.221 60.2918 215.346 59.2776C214.053 57.7801 214.139 56.8845 214.439 56.3982C215.376 54.8739 218.913 56.0897 221.802 57.8661C223.326 58.8032 224.649 59.8796 225.523 60.8938C226.816 62.3914 226.73 63.2869 226.431 63.7733C226.131 64.2596 225.568 64.4672 224.847 64.4672ZM215.969 56.7866C215.645 56.7866 215.435 56.8519 215.364 56.9675C215.296 57.0772 215.31 57.5755 216.167 58.5689C216.974 59.503 218.205 60.5024 219.637 61.3831C222.783 63.3166 225.224 63.6636 225.506 63.2069C225.574 63.0972 225.559 62.599 224.702 61.6055C223.895 60.6714 222.665 59.675 221.232 58.7943C218.884 57.3501 216.927 56.7896 215.972 56.7896L215.969 56.7866Z" fill="#381B42"/>
<path d="M156.034 176.692C154.394 176.692 151.775 175.391 150.135 174.379C148.617 173.445 147.282 172.407 146.378 171.45C145.29 170.299 144.937 169.391 145.334 168.748L201.103 78.0787L202.028 78.6481C201.951 78.9891 203.152 80.7417 206.473 82.7849C209.795 84.8281 211.903 85.1069 212.179 84.8726L213.095 85.4539L157.327 176.123C157.077 176.526 156.618 176.692 156.034 176.692ZM201.337 79.7691L146.259 169.314C146.165 169.735 147.6 171.544 150.705 173.451C154.026 175.494 156.128 175.773 156.41 175.539L211.479 86.0025C211.111 85.9699 210.687 85.8809 210.21 85.7385C208.949 85.3619 207.419 84.6413 205.901 83.7072C204.362 82.7612 202.209 81.1688 201.334 79.7661L201.337 79.7691Z" fill="#381B42"/>
<path d="M231.392 53.9813L230.132 53.2192C230.078 53.1865 230.013 53.1836 229.957 53.2073L228.613 53.8152C228.471 53.8805 228.317 53.7529 228.353 53.6017L228.688 52.1664C228.702 52.1071 228.688 52.0419 228.643 51.9974L227.65 50.9061C227.546 50.7904 227.617 50.6036 227.774 50.5918L229.242 50.4672C229.304 50.4613 229.361 50.4257 229.39 50.3723L230.12 49.0912C230.197 48.9548 230.396 48.9667 230.458 49.112L231.03 50.4702C231.054 50.5265 231.104 50.568 231.167 50.5829L232.611 50.8824C232.765 50.915 232.816 51.1077 232.697 51.2086L231.582 52.1724C231.534 52.2139 231.511 52.2732 231.517 52.3354L231.68 53.8004C231.698 53.9546 231.529 54.0643 231.395 53.9813H231.392Z" fill="#381B42"/>
<path d="M237.296 78.4671L235.318 77.272C235.235 77.2216 235.132 77.2157 235.043 77.2543L232.934 78.2062C232.712 78.307 232.469 78.1083 232.525 77.8681L233.05 75.6173C233.071 75.5224 233.047 75.4216 232.982 75.3504L231.425 73.6393C231.259 73.4585 231.374 73.1649 231.618 73.1441L233.922 72.9484C234.02 72.9395 234.106 72.8861 234.153 72.8001L235.298 70.7925C235.419 70.579 235.731 70.5968 235.828 70.8251L236.727 72.9573C236.766 73.0463 236.846 73.1115 236.941 73.1323L239.206 73.6008C239.446 73.6512 239.526 73.9537 239.34 74.1138L237.59 75.6262C237.516 75.6885 237.477 75.7863 237.489 75.8812L237.744 78.1795C237.771 78.4226 237.507 78.5917 237.296 78.4642V78.4671Z" fill="#381B42"/>
<path d="M207.855 52.4452L206.334 52.374C206.269 52.3711 206.209 52.4007 206.171 52.4512L205.249 53.664C205.151 53.7915 204.949 53.753 204.905 53.5988L204.501 52.1279C204.483 52.0656 204.439 52.0152 204.377 51.9945L202.938 51.4933C202.787 51.4399 202.76 51.2353 202.897 51.1463L204.172 50.3101C204.225 50.2745 204.258 50.2152 204.261 50.1499L204.294 48.6257C204.297 48.4656 204.483 48.3766 204.611 48.4774L205.8 49.4293C205.851 49.4709 205.916 49.4827 205.978 49.4649L207.437 49.026C207.591 48.9786 207.734 49.1298 207.674 49.2811L207.135 50.7075C207.111 50.7668 207.12 50.835 207.155 50.8883L208.024 52.1398C208.116 52.2732 208.015 52.4541 207.855 52.4452Z" fill="#381B42"/>
<path d="M241.825 61.0303L236.76 62.089C236.006 62.2462 236.092 63.0617 236.878 63.21L241.715 64.1233C242.169 64.2093 242.596 63.9899 242.634 63.6518L242.863 61.6768C242.91 61.2616 242.358 60.9147 241.825 61.0274V61.0303Z" fill="#381B42"/>
<path d="M201.66 58.9277L204.092 59.0374C204.454 59.0522 204.421 59.3399 204.048 59.4318L201.743 59.9952C201.527 60.0486 201.322 59.9952 201.299 59.8796L201.171 59.2064C201.144 59.0641 201.405 58.9158 201.66 58.9277Z" fill="#381B42"/>
<path d="M230.796 63.9363C231.091 63.9363 231.33 63.6974 231.33 63.4026C231.33 63.1078 231.091 62.8688 230.796 62.8688C230.501 62.8688 230.262 63.1078 230.262 63.4026C230.262 63.6974 230.501 63.9363 230.796 63.9363Z" fill="#381B42"/>
<path d="M200.928 68.4529C201.427 68.4529 201.832 68.0479 201.832 67.5484C201.832 67.0489 201.427 66.6439 200.928 66.6439C200.428 66.6439 200.023 67.0489 200.023 67.5484C200.023 68.0479 200.428 68.4529 200.928 68.4529Z" fill="#381B42"/>
<path d="M224.272 79.9766C224.511 79.9766 224.705 79.7828 224.705 79.5437C224.705 79.3046 224.511 79.1107 224.272 79.1107C224.033 79.1107 223.839 79.3046 223.839 79.5437C223.839 79.7828 224.033 79.9766 224.272 79.9766Z" fill="#381B42"/>
<path d="M187.945 229.075C130.528 229.075 83.8155 182.362 83.8155 124.945C83.8155 67.5276 130.528 20.8156 187.945 20.8156C245.362 20.8156 292.075 67.5276 292.075 124.945C292.075 182.362 245.362 229.075 187.945 229.075ZM187.945 21.8979C131.127 21.8979 84.9009 68.1237 84.9009 124.942C84.9009 181.76 131.127 227.986 187.945 227.986C244.763 227.986 290.989 181.76 290.989 124.942C290.989 68.1237 244.763 21.8979 187.945 21.8979Z" fill="#381B42"/>
<path d="M187.945 229.89C130.077 229.89 83 182.81 83 124.945C83 67.0798 130.08 20 187.945 20C245.81 20 292.89 67.0798 292.89 124.945C292.89 182.81 245.81 229.89 187.945 229.89ZM187.945 22.7134C131.574 22.7134 85.7164 68.5744 85.7164 124.942C85.7164 181.31 131.577 227.171 187.945 227.171C244.313 227.171 290.174 181.31 290.174 124.942C290.174 68.5744 244.313 22.7134 187.945 22.7134Z" fill="#381B42"/>
<path d="M211.986 153.698L203.95 141.472C203.929 141.439 203.908 141.406 203.887 141.371L189.876 117.101L168.871 81.0323L161.28 68.6633L153.987 57.0891C153.611 56.5049 153.154 57.0328 153.338 57.4539L159.399 69.7635L165.737 82.8235L184.816 119.945L197.719 144.825C197.737 144.861 197.755 144.897 197.77 144.932L203.736 158.286C203.736 158.286 211.313 177.721 218.131 176.153C218.412 176.087 218.676 175.954 218.905 175.773C222.555 173.063 219.136 165.388 215.936 159.849C213.917 156.349 211.983 153.701 211.983 153.701L211.986 153.698ZM216.657 171.619C215.625 172.215 212.819 169.285 210.391 165.077C207.962 160.869 206.826 156.975 207.858 156.379C208.89 155.783 211.695 158.713 214.124 162.921C216.553 167.129 217.689 171.022 216.657 171.619Z" fill="#381B42"/>
<path d="M132.6 168.315C132.58 168.336 132.562 168.357 132.541 168.377C130.009 170.942 126.684 172.642 124.244 175.296C124.173 175.373 124.098 175.468 124.119 175.569C124.134 175.649 124.202 175.705 124.267 175.755C125.184 176.473 126.103 177.188 127.019 177.905C127.337 178.151 127.669 178.421 127.805 178.798C127.942 179.175 127.785 179.691 127.393 179.782C127.082 179.857 126.779 179.649 126.527 179.453C125.071 178.323 123.615 177.191 122.162 176.061C121.228 175.334 121.557 174.723 122.34 174.068C124.95 171.885 127.559 169.7 130.172 167.517C130.489 167.253 130.818 166.981 131.219 166.883C131.779 166.743 132.417 167.007 132.716 167.499C132.793 167.627 132.853 167.775 132.832 167.924C132.811 168.078 132.713 168.202 132.606 168.318L132.6 168.315Z" fill="#381B42"/>
<path d="M134.107 174.631C134.424 174.237 135.047 174.071 135.18 173.543C135.287 173.125 135.438 172.784 135.889 172.65C136.04 172.606 136.15 172.648 136.245 172.766C136.553 173.161 136.631 173.715 136.464 174.187C136.284 174.7 135.723 174.916 135.219 174.981C134.807 175.035 134.392 174.996 133.979 174.961C133.994 174.833 134.027 174.735 134.107 174.631Z" fill="#381B42"/>
<path d="M133.73 179.442C134.178 179.237 134.596 178.979 135.023 178.733C135.575 178.412 136.141 178.119 136.708 177.825C137.482 177.422 138.279 177.042 139.074 176.681C139.682 176.405 140.533 176.07 141.105 176.595C141.174 176.657 141.257 176.734 141.34 176.808C141.799 177.229 141.547 177.982 141.224 178.41C140.512 179.344 139.827 180.301 139.139 181.253C138.511 182.128 137.671 183.012 137.253 184.011C137.126 184.314 137.197 184.625 136.939 184.88C136.841 184.975 136.722 185.046 136.616 185.132C136.361 185.343 136.201 185.639 136.043 185.93C135.542 186.861 135.041 187.792 134.54 188.723C134.196 189.361 133.698 189.423 133.022 189.299C132.476 189.198 132.417 188.789 132.428 188.296C132.443 187.605 132.939 187.015 133.342 186.499C133.89 185.797 134.644 185.005 134.842 184.115C134.949 183.644 134.365 183.457 134.024 183.338C133.624 183.199 133.235 183.018 132.864 182.807C132.304 182.487 131.93 182.256 131.302 182.573C130.658 182.896 130.083 183.332 129.454 183.682C129.021 183.922 128.031 184.48 127.565 184.056C127.307 183.822 127.36 183.466 127.633 183.3C128.031 183.059 128.446 182.846 128.843 182.606C129.549 182.185 130.237 181.728 130.928 181.28C131.088 181.176 131.251 181.07 131.364 180.915C131.48 180.758 131.652 180.058 131.942 180.174C132.016 180.204 132.067 180.269 132.12 180.328C132.286 180.515 132.428 180.476 132.574 180.293C132.853 179.937 133.22 179.658 133.635 179.477C133.668 179.462 133.698 179.45 133.73 179.436V179.442ZM135.735 180.02C135.702 180.035 135.673 180.049 135.64 180.061C134.985 180.355 134.258 180.577 133.793 181.161C133.446 181.597 135.014 182.339 135.272 182.505C135.465 182.629 135.676 182.662 135.877 182.532C136.023 182.437 136.123 182.291 136.224 182.152C136.699 181.473 137.15 180.761 137.674 180.124C137.796 179.975 138.662 178.937 138.439 178.733C138.244 178.555 137.912 178.783 137.746 178.902C137.117 179.344 136.435 179.702 135.735 180.02Z" fill="#381B42"/>
<path d="M143.881 189.669C143.718 189.557 143.496 189.56 143.312 189.631C143.291 189.637 143.267 189.643 143.246 189.652C143.045 189.744 142.876 189.895 142.704 190.025C142.268 190.351 141.776 190.568 141.268 190.737C140.85 190.879 140.281 191.117 139.833 191.117C139.756 191.117 139.676 191.078 139.643 191.007C139.623 190.959 139.629 190.909 139.632 190.856C139.789 189.83 140.681 188.967 141.36 188.243C142.051 187.511 142.79 186.748 143.089 185.761C143.166 185.518 143.208 185.257 143.16 185.005C143.089 184.667 142.852 184.391 142.6 184.148C142.567 184.121 142.535 184.088 142.496 184.068C142.481 184.056 142.458 184.047 142.437 184.041C142.36 184.023 142.286 184.047 142.214 184.074C141.933 184.192 141.681 184.382 141.438 184.578C140.942 184.981 140.459 185.402 139.999 185.844C138.668 187.11 137.446 188.712 137.751 190.669C137.837 191.244 138.17 191.819 138.712 192.048C139.338 192.303 140.044 192.048 140.664 191.781C141.206 191.547 141.746 191.303 142.277 191.054C142.793 190.811 143.309 190.565 143.825 190.322C143.872 190.295 143.917 190.274 143.961 190.242C144.13 190.096 144.071 189.797 143.884 189.672L143.881 189.669ZM145.396 182.383C145.319 182.214 145.18 182.078 145.044 181.953C145.011 181.927 144.978 181.894 144.946 181.867C144.907 181.841 144.863 181.82 144.821 181.808C144.723 181.787 144.619 181.823 144.539 181.885C144.201 182.134 143.828 182.825 144.231 183.16C144.376 183.279 144.59 183.317 144.774 183.273C145.159 183.187 145.589 182.801 145.399 182.383H145.396Z" fill="#381B42"/>
<path d="M143.881 189.669C143.718 189.557 143.496 189.56 143.312 189.631C143.226 189.696 143.143 189.761 143.063 189.832C142.698 190.159 142.395 190.589 142.274 191.054C142.79 190.811 143.306 190.565 143.822 190.322C143.869 190.295 143.914 190.274 143.958 190.242C144.127 190.096 144.068 189.797 143.881 189.672V189.669ZM147.917 191.564L147.902 191.597L147.923 191.591L147.917 191.564Z" fill="#381B42"/>
<path d="M150.871 194.731C150.506 194.645 150.132 194.651 149.762 194.628C149.604 194.616 149.403 194.562 149.382 194.405C149.37 194.293 149.459 194.198 149.545 194.123C150.159 193.554 150.773 192.988 151.387 192.424C151.823 192.027 152.288 191.567 152.321 190.98C152.359 190.257 151.576 189.616 150.877 189.806C150.764 189.832 150.648 189.883 150.536 189.865C150.281 189.827 150.171 189.533 150.067 189.299C149.664 188.409 148.611 187.961 147.638 187.991C146.666 188.012 145.743 188.415 144.851 188.806C144.317 189.047 143.774 189.284 143.309 189.631C143.493 189.56 143.715 189.554 143.878 189.669C144.062 189.794 144.121 190.093 143.955 190.239C143.911 190.271 143.869 190.292 143.819 190.319C143.303 190.562 142.787 190.808 142.271 191.051C142.217 191.241 142.194 191.437 142.212 191.638C142.262 192.329 142.843 192.985 143.531 192.964C144.009 192.952 144.421 192.644 144.839 192.415C145.438 192.095 146.105 191.926 146.766 191.781C147.739 191.564 148.712 191.383 149.693 191.238C149.068 192.341 148.35 193.388 147.546 194.373C147.357 194.607 147.155 194.841 146.894 194.992C146.621 195.155 146.301 195.215 145.992 195.28C144.45 195.627 142.983 196.279 141.604 197.068C139.637 198.183 136.034 200.805 137.541 203.48C137.834 204.001 138.416 204.402 139.009 204.31C139.448 204.245 139.807 203.936 140.133 203.643C140.954 202.91 141.773 202.172 142.582 201.427C143.119 200.932 143.665 200.434 144.124 199.862C144.293 199.654 144.45 199.432 144.625 199.221C144.768 199.052 144.913 198.889 145.061 198.72C145.296 198.465 145.53 198.204 145.767 197.943C145.975 197.709 146.185 197.474 146.393 197.249C146.621 197.19 146.87 197.104 146.962 196.884C146.968 196.872 146.974 196.864 146.98 196.852C147.013 196.748 147.013 196.641 147.06 196.546C147.113 196.454 147.211 196.395 147.309 196.345C148.51 195.704 149.96 195.556 151.265 195.947C151.384 195.98 151.514 196.018 151.63 195.98C151.864 195.9 151.879 195.556 151.76 195.339C151.585 195.007 151.227 194.817 150.871 194.731ZM149.415 190.387C149.056 190.491 148.644 190.467 148.267 190.55C147.523 190.692 146.784 190.891 146.04 191.039C145.726 191.099 145.411 191.152 145.094 191.208C144.952 191.229 144.427 191.404 144.335 191.256C144.21 191.054 144.705 190.891 144.806 190.844C145.729 190.405 146.642 189.981 147.668 189.856C147.944 189.824 149.106 189.666 149.527 189.895C149.613 189.942 149.67 190.004 149.679 190.09C149.696 190.233 149.548 190.345 149.412 190.39L149.415 190.387ZM145.456 196.953C145.441 197.012 145.408 197.08 145.355 197.145C144.963 197.632 144.572 198.118 144.181 198.604C143.694 199.206 143.137 199.743 142.624 200.321C142.137 200.87 141.61 201.383 141.043 201.846C140.509 202.284 139.875 202.836 139.205 203.035C138.95 203.109 138.662 203.112 138.431 202.981C137.799 202.623 138.217 201.792 138.472 201.33C138.792 200.748 139.225 200.232 139.715 199.788C140.432 199.135 141.266 198.628 142.114 198.159C142.766 197.801 143.43 197.463 144.098 197.127C144.421 196.964 144.744 196.801 145.091 196.7C145.373 196.62 145.503 196.76 145.459 196.95L145.456 196.953Z" fill="#381B42"/>
<path d="M162.317 198.993C161.926 198.842 161.466 199.117 161.116 199.387C159.984 200.256 158.848 201.125 157.715 201.994C157.585 202.095 157.368 202.184 157.276 202.044C157.22 201.955 157.267 201.843 157.315 201.748C158.252 199.939 159.533 198.329 160.5 196.537C160.769 196.039 161.013 195.419 160.728 194.93C160.194 194.011 159.296 194.625 158.726 195.114C158.071 195.677 157.377 196.211 156.588 196.564C155.799 196.92 154.785 197.157 153.943 196.852C153.878 196.828 153.809 196.798 153.768 196.742C153.729 196.689 153.718 196.623 153.715 196.558C153.691 196.158 153.878 195.781 154.059 195.425C154.5 194.556 154.942 193.688 155.384 192.819C155.461 192.67 155.538 192.513 155.544 192.347C155.556 192.128 155.443 191.917 155.289 191.763C155.135 191.609 154.942 191.496 154.752 191.386C154.669 191.339 154.58 191.291 154.486 191.294C154.239 191.303 154.085 191.653 153.961 191.828C153.744 192.125 153.548 192.436 153.359 192.753C152.964 193.412 152.62 194.1 152.327 194.806C151.876 195.897 151.161 197.501 152.238 198.465C152.914 199.07 154.023 199.141 154.889 199.008C155.381 198.933 155.867 198.744 156.259 198.432C156.458 198.275 157.063 197.427 157.365 197.608C157.507 197.694 157.421 197.996 157.395 198.118C157.303 198.53 157.083 198.901 156.914 199.283C156.656 199.865 156.422 200.458 156.22 201.063C156.069 201.513 155.936 201.988 156.019 202.456C156.102 202.922 156.469 203.373 156.941 203.397C157.261 203.414 157.558 203.242 157.816 203.056C158.536 202.54 159.132 201.866 159.788 201.27C160.532 200.594 161.363 200.01 162.249 199.535C162.409 199.449 162.599 199.286 162.51 199.129C162.486 199.091 162.448 199.061 162.409 199.037C162.38 199.019 162.35 199.005 162.32 198.993H162.317Z" fill="#381B42"/>
<path d="M165.852 192.712C165.547 192.614 165.396 192.961 165.342 193.136C165.238 193.456 165.185 194.049 165.609 194.186C166.072 194.337 166.439 193.931 166.576 193.519C166.718 193.074 166.235 192.937 165.852 192.715V192.712ZM162.314 198.993C162.228 198.954 162.139 198.939 162.053 198.945C161.911 199.251 161.81 199.479 161.781 199.571C161.748 199.669 161.721 199.767 161.698 199.865C162.018 199.687 162.326 199.5 162.522 199.295C162.599 199.126 162.43 199.052 162.311 198.996L162.314 198.993Z" fill="#381B42"/>
<path d="M171.048 192.667C171.303 192.721 171.537 192.777 171.748 192.857C171.611 192.961 171.499 192.955 171.374 192.928C171.297 192.913 171.229 192.881 171.158 192.863C171.104 192.851 171.042 192.857 171.006 192.848C171.024 192.795 171.039 192.706 171.051 192.67L171.048 192.667Z" fill="#381B42"/>
<path d="M179.046 192.006C179.052 192.16 179.01 192.323 178.96 192.469C178.672 193.323 178.186 194.1 177.803 194.912C176.688 197.273 176.071 199.835 174.936 202.184C173.847 204.529 172.118 207.038 172.8 209.76C172.866 210.021 172.99 210.309 173.248 210.38C173.432 210.431 173.631 210.345 173.764 210.211C174.138 209.846 174.339 209.23 174.52 208.755C175.274 206.795 176.027 204.835 176.78 202.875C176.854 204.476 176.472 206.057 175.905 207.542C175.615 208.301 175.279 209.04 174.921 209.769C174.606 210.413 174.319 211.214 173.865 211.777C173.723 211.955 173.524 212.097 173.296 212.127C172.72 212.198 172.305 211.578 172.124 211.116C171.659 209.918 171.626 208.589 171.786 207.314C172.003 205.6 172.557 203.948 173.171 202.338C173.524 201.413 173.906 200.458 173.844 199.47C171.804 201.837 170.161 204.55 169.013 207.456C168.889 207.771 168.732 208.123 168.411 208.224C168.151 208.304 167.86 208.18 167.676 207.975C167.344 207.61 167.24 207.014 167.13 206.549C166.997 205.985 166.917 205.41 166.89 204.832C166.849 203.954 166.997 203.121 167.098 202.258C167.116 202.112 167.119 201.863 166.908 201.869C166.813 201.869 166.73 201.929 166.656 201.985C165.808 202.626 165.191 203.548 164.269 204.096C163.257 204.698 162.166 204.165 161.718 203.121C161.52 202.661 161.454 202.157 161.443 201.659C161.437 201.433 161.428 201.208 161.437 200.983C161.446 200.757 161.493 200.544 161.555 200.318C161.671 199.891 161.79 199.464 161.962 199.058C162.051 198.85 162.154 198.652 162.273 198.456C162.392 198.26 162.469 198.038 162.578 197.836C162.715 197.581 162.863 197.332 163.008 197.083C163.278 196.62 163.637 195.802 164.209 195.639C165.102 195.387 165.366 197.006 165.313 197.569C165.144 199.337 163.765 200.825 163.637 202.596C163.548 203.838 165.437 202.151 165.677 201.896C166.395 201.125 167.193 200.431 167.691 199.482C168.607 197.738 169.156 195.811 169.995 194.026C170.309 193.358 170.65 192.7 171.015 192.06C171.202 191.727 171.398 191.401 171.599 191.078C171.718 190.888 171.893 190.443 172.118 190.36C172.189 190.319 172.278 190.319 172.361 190.331C172.667 190.378 172.949 190.574 173.097 190.844C173.497 191.573 172.72 192.392 172.379 193.006C171.676 194.275 170.751 195.384 170.105 196.692C169.452 198.014 168.847 199.432 168.497 200.87C168.296 201.697 168.242 202.56 168.21 203.405C168.177 204.251 168.065 205.063 167.981 205.888C167.961 206.083 168.026 206.389 168.296 206.273C168.661 206.116 168.874 205.618 169.052 205.294C170.102 203.4 171.3 201.585 172.625 199.874C173.871 198.266 175.288 196.68 176.223 194.838C176.709 193.88 177.071 192.845 177.741 192.009C177.889 191.825 178.058 191.644 178.278 191.558C178.497 191.472 178.779 191.502 178.93 191.683C179.007 191.775 179.037 191.888 179.043 192.009L179.046 192.006Z" fill="#381B42"/>
<path d="M184.117 203.106C184.069 203.106 184.022 203.106 183.974 203.115C183.47 203.201 183.046 203.536 182.64 203.847C181.448 204.764 180.187 205.597 178.877 206.335C178.669 206.454 178.405 206.567 178.206 206.439C178.076 206.356 178.023 206.193 177.984 206.045C177.779 205.247 177.782 204.399 177.99 203.601C178.026 203.471 178.076 203.325 178.198 203.263C178.325 203.201 178.476 203.251 178.613 203.29C179.298 203.488 180.054 203.328 180.677 202.978C181.299 202.628 181.804 202.101 182.245 201.54C182.578 201.119 182.895 200.618 182.821 200.087C182.729 199.432 182.094 199.011 181.519 198.687C181.213 198.515 180.884 198.34 180.534 198.346C180.22 198.352 179.926 198.503 179.659 198.667C177.272 200.126 175.152 203.548 176.403 206.377C176.783 207.231 177.69 207.922 178.61 207.747C179.049 207.664 179.428 207.406 179.787 207.142C180.674 206.487 181.513 205.766 182.293 204.986C182.806 204.473 183.319 203.918 183.995 203.655C184.188 203.58 184.437 203.438 184.363 203.245C184.327 203.15 184.226 203.112 184.12 203.106H184.117ZM181.433 199.725C181.806 199.764 181.83 200.295 181.798 200.612C181.673 201.801 180.027 202.139 179.342 202.181C179.049 202.115 178.957 202.104 178.971 201.973C179.022 201.472 180.205 199.598 181.433 199.725Z" fill="#381B42"/>
<path d="M197.565 207.106C197.58 207.148 197.589 207.192 197.592 207.24C197.607 207.507 197.393 207.744 197.144 207.848C196.895 207.951 196.619 207.945 196.352 207.945C195.032 207.945 193.716 208.046 192.411 208.254C191.972 208.325 191.465 208.387 191.127 208.097C190.839 207.848 190.783 207.432 190.75 207.053C190.415 203.402 190.223 199.74 190.03 196.081C190.012 195.76 190.012 195.399 190.234 195.17C190.478 194.924 190.872 194.942 191.216 194.969C192.69 195.087 194.175 195.078 195.649 194.939C195.981 194.906 196.325 194.871 196.643 194.977C196.96 195.084 197.239 195.378 197.212 195.71C197.188 195.989 196.954 196.211 196.696 196.312C196.438 196.413 196.147 196.41 195.869 196.407C194.677 196.395 193.482 196.38 192.289 196.368C192.177 196.368 192.052 196.368 191.972 196.448C191.883 196.537 191.886 196.68 191.898 196.804C192.005 197.99 192.109 199.177 192.215 200.363C192.227 200.511 192.245 200.668 192.346 200.781C192.518 200.974 192.826 200.92 193.081 200.87C193.654 200.757 194.247 200.754 194.819 200.858C195.059 200.902 195.338 201.003 195.397 201.241C195.474 201.546 195.133 201.783 194.837 201.893C194.386 202.059 193.915 202.166 193.437 202.204C193.203 202.225 192.951 202.234 192.758 202.37C192.405 202.619 192.429 203.141 192.488 203.571C192.625 204.535 192.758 205.499 192.894 206.463C192.912 206.593 192.933 206.733 193.004 206.842C193.283 207.284 194.054 206.937 194.445 206.893C195.065 206.822 195.688 206.744 196.308 206.673C196.569 206.644 196.838 206.614 197.091 206.688C197.298 206.75 197.491 206.905 197.562 207.103L197.565 207.106Z" fill="#381B42"/>
<path d="M207.911 201.092C207.867 201.098 207.825 201.113 207.787 201.125C207.852 201.484 207.864 201.857 207.911 202.228C208.069 201.869 208.205 201.445 208.172 201.249C208.146 201.125 208.042 201.066 207.911 201.092Z" fill="#381B42"/>
<path d="M207.473 203.37C207.467 203.393 207.458 203.417 207.452 203.438C207.129 204.6 207.277 205.849 206.989 207.017C206.862 207.536 206.58 208.094 206.061 208.224C205.693 208.316 205.296 208.156 205.023 207.892C204.75 207.628 204.587 207.272 204.46 206.913C203.671 204.692 204.119 202.195 203.451 199.936C202.206 201.205 202.319 203.34 201.192 204.716C200.999 204.953 200.765 205.164 200.477 205.271C200.189 205.377 199.845 205.357 199.608 205.167C199.374 204.98 199.282 204.672 199.205 204.381C198.944 203.373 198.745 202.347 198.615 201.312C198.517 200.55 198.17 199.322 198.935 198.785C199.172 198.619 199.522 198.592 199.751 198.773C199.946 198.928 200.014 199.188 200.068 199.432C200.335 200.662 200.43 201.932 200.353 203.189C201.049 202.593 201.361 201.679 201.794 200.87C202.194 200.123 202.719 199.441 203.342 198.862C203.576 198.643 203.858 198.429 204.178 198.447C204.555 198.468 204.836 198.806 204.985 199.153C205.293 199.888 205.201 200.722 205.171 201.519C205.115 203.073 205.329 204.639 205.797 206.122C206.272 204.692 206.746 203.266 207.218 201.837C207.313 201.549 207.47 201.214 207.769 201.19C208.048 201.887 207.68 202.646 207.467 203.37H207.473Z" fill="#381B42"/>
<path d="M214.412 198.803C214.32 198.613 213.985 198.702 213.801 198.85C212.253 200.108 211.761 202.335 210.219 203.598C210.139 203.663 210.05 203.729 209.946 203.741C209.735 203.764 209.578 203.563 209.474 203.379C208.582 201.81 208.433 199.841 209.077 198.157C209.261 197.673 209.519 197.202 209.913 196.87C210.017 196.784 210.171 196.709 210.275 196.792C210.328 196.837 210.346 196.908 210.358 196.973C210.405 197.202 210.432 197.445 210.557 197.644C210.681 197.842 210.942 197.982 211.153 197.881C211.348 197.786 211.411 197.543 211.434 197.329C211.476 196.947 211.458 196.555 211.384 196.176C211.351 196.004 211.301 195.829 211.185 195.701C211.019 195.52 210.755 195.473 210.512 195.434C210.029 195.36 209.504 195.289 209.071 195.514C208.789 195.66 208.579 195.918 208.395 196.179C206.856 198.373 206.61 201.546 207.965 203.883C208.413 204.654 209.184 205.398 210.064 205.268C210.871 205.146 211.381 204.36 211.784 203.649C212.638 202.142 213.493 200.636 214.347 199.129C214.397 199.04 214.447 198.939 214.424 198.842C214.421 198.827 214.415 198.815 214.409 198.8L214.412 198.803Z" fill="#381B42"/>
<path d="M222.745 196.537C222.513 198.056 222.617 199.645 222.712 201.193C222.73 201.487 222.739 201.813 222.549 202.038C222.321 202.311 221.891 202.314 221.559 202.187C220.965 201.958 220.55 201.419 220.224 200.873C219.355 199.429 218.863 197.792 218.071 196.303C217.321 197.083 216.921 198.145 216.755 199.215C216.588 200.286 216.645 201.374 216.701 202.456C216.431 202.522 216.158 202.587 215.883 202.563C215.607 202.539 215.325 202.412 215.189 202.175C215.112 202.044 215.085 201.89 215.058 201.742C214.361 197.75 213.721 193.75 213.131 189.743C213.083 189.414 213.063 189.011 213.335 188.818C213.475 188.72 213.653 188.709 213.822 188.7C213.982 188.694 214.163 188.697 214.272 188.812C214.353 188.901 214.37 189.029 214.382 189.147C214.685 192.166 214.975 195.17 215.423 198.165C215.447 198.326 215.518 198.527 215.681 198.524C216.007 197.81 216.33 197.095 216.657 196.38C216.817 196.03 216.977 195.674 217.232 195.387C217.484 195.096 217.846 194.88 218.228 194.886C218.866 194.9 219.326 195.502 219.587 196.087C220.366 197.845 220.313 200.028 221.642 201.419C222.549 199.26 221.742 196.689 222.558 194.491C222.611 194.346 222.677 194.198 222.795 194.1C222.914 194.002 223.101 193.969 223.222 194.067C223.394 194.209 223.32 194.482 223.237 194.69C223.003 195.289 222.849 195.906 222.754 196.534L222.745 196.537Z" fill="#381B42"/>
<path d="M234.183 197.46C233.607 195.313 232.738 193.175 232.7 190.98C232.688 190.666 232.7 190.348 232.733 190.034C232.75 189.898 232.759 189.735 232.661 189.637C232.492 189.468 232.199 189.655 232.08 189.859C232.042 189.924 232.009 189.99 231.982 190.055C231.831 190.452 231.84 190.909 231.87 191.342C231.979 192.961 232.288 194.562 232.744 196.116C232.902 196.65 233.077 197.234 232.854 197.747C231.674 196.54 230.9 194.998 230.289 193.43C229.675 191.861 229.204 190.236 228.525 188.688C228.314 188.21 227.949 187.656 227.427 187.715C227.101 187.748 226.852 188.021 226.662 188.29C226.223 188.91 225.891 189.61 225.695 190.348C225.096 190.016 224.331 190.022 223.741 190.369C222.519 191.081 222.514 192.715 222.724 194.177C222.789 194.654 222.881 195.111 222.964 195.508V195.514C222.991 195.639 223.015 195.754 223.035 195.867C223.133 196.362 223.237 196.878 223.442 197.335C223.519 197.51 223.611 197.676 223.723 197.836C224.136 198.403 224.904 198.776 225.553 198.521C226.22 198.254 226.514 197.445 226.508 196.724C226.502 196.001 226.286 195.289 226.292 194.568C226.297 194.123 226.383 193.682 226.416 193.243C226.455 192.774 226.428 192.303 226.481 191.84C226.558 191.211 226.775 190.606 226.991 190.01C227.018 189.933 227.051 189.853 227.122 189.821C227.279 189.74 227.43 189.939 227.495 190.102C228.578 192.845 229.494 195.725 231.336 198.023C231.709 198.495 232.151 198.957 232.727 199.126C233.308 199.301 234.04 199.067 234.236 198.5C234.355 198.168 234.275 197.801 234.183 197.463V197.46ZM225.609 191.843C225.565 192.347 225.434 192.836 225.328 193.332C225.117 194.298 224.987 195.286 224.936 196.276C224.936 196.342 224.93 196.413 224.892 196.466C224.859 196.52 224.779 196.552 224.723 196.514C224.696 196.493 224.678 196.46 224.669 196.428C224.121 195.025 223.682 192.679 225.034 191.582C225.176 191.469 225.381 191.372 225.518 191.484C225.615 191.57 225.621 191.718 225.609 191.843Z" fill="#381B42"/>
<path d="M232.661 189.637C232.492 189.468 232.199 189.654 232.08 189.859C232.041 189.924 232.009 189.99 231.982 190.055C232.216 190.369 232.454 190.681 232.7 190.977C232.688 190.663 232.7 190.345 232.732 190.031C232.75 189.895 232.759 189.732 232.661 189.634V189.637Z" fill="#381B42"/>
<path d="M249.404 170.041C249.384 169.99 249.363 169.94 249.345 169.89C249.069 169.166 248.779 168.196 248.915 167.419C249.114 166.287 250.442 165.017 251.655 165.516C252.655 165.925 253.052 167.12 253.111 168.113C253.144 168.659 253.091 169.222 252.916 169.744C252.835 169.979 252.735 170.21 252.595 170.417C252.468 170.607 252.079 170.88 252.15 171.126C252.168 171.188 252.216 171.242 252.26 171.289C252.634 171.684 254.478 173.158 255.009 172.481C255.116 172.345 255.14 172.161 255.14 171.986C255.14 170.812 255.107 169.626 254.944 168.46C254.828 167.63 254.662 166.782 254.846 165.966C254.879 165.815 254.982 165.631 255.131 165.667C255.267 165.699 255.294 165.88 255.294 166.023C255.3 168.051 256.264 169.976 256.323 172.004C256.335 172.392 256.308 172.793 256.142 173.146C255.854 173.754 255.172 174.109 254.502 174.148C253.832 174.187 253.171 173.952 252.577 173.635C251.139 172.864 250.012 171.556 249.398 170.047L249.404 170.041ZM251.332 167.066C251.074 166.883 250.602 166.642 250.386 166.948C249.674 167.956 250.721 169.904 251.133 170.195C251.24 170.269 251.293 170.195 251.498 169.973C251.795 169.359 252.308 167.754 251.332 167.066Z" fill="#381B42"/>
<path d="M240.523 188.462C240.099 187.419 239.876 186.289 239.864 185.159C239.864 184.984 239.859 184.794 239.728 184.681C239.55 184.53 239.251 184.655 239.147 184.865C239.043 185.073 239.076 185.322 239.108 185.556C239.319 187.051 239.532 188.548 239.743 190.043C238.672 189.124 237.999 187.843 237.347 186.588L236.549 185.04C236.38 184.708 236.202 184.373 235.923 184.127C235.648 183.884 235.244 183.741 234.897 183.878C234.491 184.041 234.304 184.506 234.186 184.93C233.871 186.087 233.729 187.294 233.779 188.495C233.797 188.952 233.818 189.462 233.512 189.803C233.088 188.711 232.507 187.679 231.795 186.745C231.588 186.484 231.359 186.212 231.039 186.12C229.524 185.669 230.725 188.172 230.992 188.602C231.306 189.097 231.638 189.58 231.979 190.052C232.006 189.987 232.039 189.921 232.077 189.856C232.196 189.649 232.489 189.465 232.658 189.634C232.756 189.732 232.744 189.895 232.73 190.031C232.697 190.345 232.685 190.663 232.697 190.977C232.821 191.134 232.946 191.285 233.076 191.44C233.234 191.629 233.415 191.825 233.646 191.908C233.951 192.006 234.292 191.893 234.521 191.668C234.755 191.452 234.879 191.146 234.96 190.838C235.39 189.094 234.295 187.193 234.9 185.497C236.534 187.318 237.198 189.912 239.046 191.517C239.509 191.92 240.164 192.255 240.704 191.962C240.849 191.885 240.965 191.766 241.051 191.629C241.226 191.354 241.285 190.989 241.258 190.657C241.205 189.886 240.813 189.186 240.52 188.462H240.523Z" fill="#381B42"/>
<path d="M247.056 184.391C246.792 183.557 246.4 182.766 245.893 182.054C245.813 181.938 245.647 181.82 245.552 181.92C245.499 181.977 245.511 182.063 245.525 182.14C245.766 183.359 246.006 184.575 246.246 185.793C246.302 186.072 246.255 186.484 245.95 186.603C245.528 186.769 245.11 186.33 244.87 186.054C243.055 183.964 241.398 181.74 239.85 179.444C239.645 179.139 239.434 178.816 239.399 178.448C239.357 177.979 239.606 177.54 239.847 177.137C240.22 176.514 240.591 175.892 240.965 175.269C241.074 175.085 241.187 174.895 241.22 174.682C241.252 174.468 241.184 174.228 241 174.115C240.813 174 240.561 174.053 240.386 174.184C240.211 174.314 240.096 174.507 239.983 174.697C239.559 175.417 239.132 176.135 238.708 176.855C238.649 176.953 238.583 177.06 238.474 177.093C238.325 177.14 238.174 177.03 238.064 176.924C237.857 176.719 237.679 176.482 237.456 176.292C237.234 176.102 236.949 175.96 236.659 175.995C236.285 176.043 236.122 176.366 236.101 176.707C236.075 177.107 236.347 177.472 236.614 177.742C236.923 178.05 237.284 178.332 237.442 178.738C237.625 179.222 237.474 179.765 237.29 180.248C237.044 180.897 236.742 181.526 236.386 182.122C236.285 182.291 236.199 182.543 236.365 182.65C236.416 182.683 236.478 182.688 236.534 182.688C237.012 182.697 237.465 182.422 237.762 182.048C238.061 181.674 238.227 181.212 238.346 180.749C238.373 180.648 238.405 180.536 238.494 180.482C238.637 180.396 238.812 180.515 238.93 180.63C239.396 181.087 239.77 181.627 240.143 182.161C240.855 183.181 241.564 184.201 242.275 185.221C242.777 185.939 243.284 186.665 243.939 187.243C244.594 187.822 245.425 188.249 246.302 188.255C246.7 188.255 247.148 188.136 247.334 187.783C247.423 187.617 247.438 187.421 247.444 187.232C247.48 186.271 247.343 185.307 247.053 184.391H247.056ZM238.044 177.081C238.044 177.081 238.05 177.06 238.05 177.048H238.055V177.054C238.055 177.054 238.044 177.069 238.044 177.081Z" fill="#381B42"/>
<path d="M241.531 181.894C241.531 181.894 241.537 181.888 241.537 181.882H241.51C241.51 181.882 241.528 181.888 241.531 181.894Z" fill="#381B42"/>
<path d="M243.915 171.269C244.449 170.646 243.696 169.285 243.37 168.463C243.355 168.425 243.322 168.374 243.296 168.351C243.239 168.303 243.183 168.279 243.091 168.273C242.809 169.261 243.002 170.24 243.325 171.156C243.654 171.316 243.734 171.482 243.915 171.269Z" fill="#381B42"/>
<path d="M251.451 176.414C251.279 175.035 250.938 173.659 251.047 172.274C251.059 172.131 251.059 171.959 250.938 171.885C250.834 171.823 250.688 171.882 250.617 171.98C250.546 172.078 250.528 172.209 250.516 172.33C250.315 174.314 250.68 176.342 250.297 178.3C250.267 178.448 250.223 178.614 250.092 178.694C249.956 178.777 249.784 178.733 249.633 178.679C248.841 178.398 248.126 177.899 247.59 177.256C247.492 177.14 247.397 176.989 247.444 176.847C247.477 176.749 247.569 176.686 247.649 176.624C248.245 176.167 248.556 175.414 248.616 174.667C248.675 173.92 248.506 173.172 248.283 172.458C248.191 172.158 248.085 171.85 247.871 171.618C247.575 171.292 247.109 171.165 246.67 171.183C244.645 171.269 244.33 173.484 244.651 175.041C245.021 176.835 246.086 178.492 247.607 179.524C248.132 179.88 248.722 180.171 249.354 180.227C249.986 180.284 250.665 180.076 251.065 179.584C251.403 179.166 251.504 178.602 251.531 178.065C251.557 177.514 251.516 176.965 251.448 176.414H251.451ZM246.887 175.788C246.851 175.838 246.813 175.883 246.768 175.924C246.703 175.984 246.611 176.031 246.534 175.993C246.498 175.975 246.472 175.939 246.448 175.907C246.071 175.385 245.834 174.765 245.757 174.124C245.703 173.677 245.686 172.814 246.216 172.615C246.418 172.538 246.649 172.609 246.83 172.728C247.257 173.012 247.465 173.549 247.462 174.062C247.459 174.575 247.269 175.067 247.041 175.527C246.996 175.616 246.949 175.708 246.89 175.788H246.887Z" fill="#381B42"/>
</svg>
