<svg width="791" height="457" viewBox="0 0 791 457" fill="none" xmlns="http://www.w3.org/2000/svg">
<rect width="791" height="457" fill="url(#paint0_linear_444_263)"/>
<g clip-path="url(#clip0_444_263)">
<rect x="217.405" y="89.4834" width="166.74" height="246.485" rx="10.8675" transform="rotate(-14.65 217.405 89.4834)" fill="#7A60E2"/>
<circle cx="367.094" cy="65.572" r="3.58025" transform="rotate(-14.65 367.094 65.572)" fill="#F6F4F9"/>
<circle cx="421.853" cy="275.043" r="3.58025" transform="rotate(-14.65 421.853 275.043)" fill="#F6F4F9"/>
<circle cx="291.519" cy="309.114" r="3.58025" transform="rotate(-14.65 291.519 309.114)" fill="#F6F4F9"/>
<circle cx="236.766" cy="99.6443" r="3.58025" transform="rotate(-14.65 236.766 99.6443)" fill="#F6F4F9"/>
<path d="M250.795 96.0723L352.732 69.4248" stroke="#F6F4F9" stroke-width="2.04586" stroke-linecap="round"/>
<path d="M306.472 305.15L408.409 278.503" stroke="#F6F4F9" stroke-width="2.04586" stroke-linecap="round"/>
<path d="M239.82 112.727L287.681 295.816" stroke="#F6F4F9" stroke-width="2.04586" stroke-linecap="round"/>
<path d="M370.77 78.4941L418.89 262.573" stroke="#F6F4F9" stroke-width="2.04586" stroke-linecap="round"/>
<circle cx="339.787" cy="227.514" r="49.8573" transform="rotate(-14.65 339.787 227.514)" stroke="#F6F4F9" stroke-width="2.04507"/>
<circle cx="318.799" cy="147.223" r="49.8573" transform="rotate(-14.65 318.799 147.223)" stroke="#F6F4F9" stroke-width="2.04507"/>
<mask id="path-12-outside-1_444_263" maskUnits="userSpaceOnUse" x="269.921" y="139.515" width="122.161" height="112.157" fill="black">
<rect fill="white" x="269.921" y="139.515" width="122.161" height="112.157"/>
<path d="M291.45 214.034C290.87 213.42 290.455 212.671 290.241 211.854L280.105 173.083C280.023 172.806 280.008 172.514 280.061 172.231C280.114 171.948 280.234 171.681 280.411 171.453C280.588 171.226 280.817 171.044 281.079 170.922C281.34 170.801 281.627 170.743 281.915 170.755C283.703 170.911 285.406 171.584 286.818 172.692L294.307 200.374C294.426 200.254 294.541 200.132 294.668 200.02C295.612 199.205 296.637 198.487 297.725 197.877L291.721 175.681C292.882 175.822 294 176.211 294.998 176.821C295.997 177.432 296.852 178.249 297.508 179.219C298.239 180.579 298.759 182.043 299.049 183.559C299.261 184.404 301.991 194.711 302.33 195.983C303.622 195.632 304.957 195.471 306.295 195.505L303.213 184.114C305.462 184.782 307.91 185.926 308.383 187.504L310.795 196.731C311.275 196.993 311.732 197.296 312.16 197.637C312.297 197.748 312.429 197.865 312.555 197.988L316.109 201.436L312.188 186.437C310.831 181.905 304.685 180.261 302.015 179.754C301.726 178.895 301.368 178.061 300.944 177.26C299.915 175.662 298.526 174.326 296.889 173.358C295.252 172.39 293.412 171.818 291.516 171.686C289.503 169.229 285.306 166.768 281.875 166.804C280.846 166.777 279.829 167.034 278.937 167.547C278.044 168.06 277.311 168.809 276.817 169.712C276.081 171.045 275.889 172.611 276.282 174.082L286.417 212.854C286.8 214.314 287.544 215.654 288.58 216.751L304.132 233.168C304.904 233.918 305.453 234.867 305.72 235.91L307.219 241.644C307.351 242.151 307.68 242.585 308.132 242.85C308.584 243.114 309.123 243.189 309.63 243.056C310.137 242.924 310.571 242.595 310.835 242.143C311.1 241.691 311.174 241.152 311.042 240.645L309.543 234.911C309.112 233.223 308.234 231.682 307.002 230.45L291.45 214.034Z"/>
<path d="M309.716 200.712C305.925 197.583 299.606 200.893 297.307 202.883C296.895 203.244 296.562 203.687 296.33 204.184C296.098 204.681 295.973 205.221 295.962 205.769C295.948 206.336 296.053 206.9 296.27 207.425C296.487 207.949 296.811 208.423 297.221 208.815L307.911 218.994C308.291 219.354 308.798 219.549 309.321 219.535C309.844 219.522 310.341 219.302 310.702 218.923C311.063 218.544 311.259 218.038 311.247 217.514C311.235 216.991 311.015 216.494 310.637 216.132L299.947 205.954C299.907 205.917 299.921 205.854 299.894 205.869C301.772 204.244 305.724 202.665 307.148 203.718C307.148 203.718 319.985 216.381 320.029 216.419C320.878 217.129 321.485 218.086 321.764 219.158L326.335 236.647C326.468 237.154 326.796 237.587 327.249 237.852C327.701 238.117 328.24 238.191 328.747 238.059C329.254 237.926 329.687 237.598 329.952 237.146C330.217 236.693 330.291 236.154 330.159 235.647L325.587 218.158C325.104 216.316 324.068 214.666 322.617 213.432C322.617 213.432 309.761 200.749 309.716 200.712Z"/>
<path d="M365.437 146.546C364.565 146 363.558 145.706 362.529 145.695C361.5 145.684 360.488 145.957 359.604 146.485C356.594 148.133 354.138 152.332 353.585 155.461C351.995 156.504 350.671 157.903 349.717 159.548C348.763 161.193 348.206 163.038 348.09 164.936C348.113 165.841 348.209 166.744 348.377 167.634C346.297 169.383 341.742 173.825 342.776 178.441L346.697 193.44L348.109 188.694C348.159 188.525 348.217 188.358 348.282 188.194C348.488 187.688 348.738 187.2 349.029 186.737L346.616 177.509C346.257 175.902 347.831 173.706 349.466 172.023L352.353 183.465C353.503 182.781 354.747 182.268 356.044 181.941C355.718 180.666 353.055 170.341 352.826 169.502C352.337 168.037 352.074 166.506 352.046 164.962C352.143 163.796 352.489 162.664 353.061 161.643C353.633 160.622 354.417 159.736 355.361 159.045L360.987 181.34C362.235 181.339 363.48 181.464 364.703 181.712C364.868 181.748 365.028 181.798 365.19 181.844L358.174 154.039C358.863 152.382 360.019 150.961 361.502 149.95C361.747 149.799 362.025 149.708 362.313 149.686C362.6 149.664 362.889 149.711 363.155 149.823C363.421 149.935 363.656 150.109 363.841 150.33C364.026 150.551 364.156 150.813 364.219 151.094L374.354 189.866C374.568 190.683 374.572 191.54 374.367 192.358L368.838 214.285C368.366 215.963 368.354 217.736 368.805 219.419L370.304 225.153C370.436 225.66 370.765 226.094 371.217 226.358C371.669 226.623 372.208 226.697 372.715 226.565C373.222 226.432 373.656 226.104 373.921 225.652C374.186 225.199 374.26 224.66 374.127 224.153L372.628 218.419C372.351 217.379 372.365 216.283 372.671 215.251L378.199 193.323C378.566 191.859 378.559 190.327 378.178 188.866L368.042 150.095C367.665 148.62 366.732 147.348 365.437 146.546Z"/>
<path d="M366.387 187.359C366.109 186.886 365.736 186.477 365.291 186.157C364.845 185.837 364.338 185.613 363.802 185.501C360.823 184.89 353.693 185.096 351.918 189.679C351.897 189.734 346.892 207.086 346.892 207.086C346.231 208.872 346.134 210.818 346.615 212.661L351.187 230.15C351.32 230.657 351.648 231.091 352.1 231.356C352.553 231.62 353.092 231.695 353.599 231.562C354.106 231.43 354.539 231.101 354.804 230.649C355.069 230.197 355.143 229.658 355.011 229.151L350.439 211.662C350.157 210.591 350.218 209.459 350.61 208.424C350.631 208.37 355.629 191.045 355.629 191.045C356.355 189.429 360.574 188.872 363.007 189.371C362.976 189.371 363.019 189.419 363.002 189.47L358.661 203.579C358.508 204.079 358.56 204.62 358.806 205.082C359.051 205.544 359.47 205.89 359.97 206.044C360.471 206.198 361.012 206.147 361.474 205.902C361.937 205.658 362.284 205.239 362.439 204.74L366.78 190.632C366.946 190.089 366.997 189.517 366.929 188.954C366.861 188.39 366.677 187.847 366.387 187.359Z"/>
</mask>
<path d="M291.45 214.034C290.87 213.42 290.455 212.671 290.241 211.854L280.105 173.083C280.023 172.806 280.008 172.514 280.061 172.231C280.114 171.948 280.234 171.681 280.411 171.453C280.588 171.226 280.817 171.044 281.079 170.922C281.34 170.801 281.627 170.743 281.915 170.755C283.703 170.911 285.406 171.584 286.818 172.692L294.307 200.374C294.426 200.254 294.541 200.132 294.668 200.02C295.612 199.205 296.637 198.487 297.725 197.877L291.721 175.681C292.882 175.822 294 176.211 294.998 176.821C295.997 177.432 296.852 178.249 297.508 179.219C298.239 180.579 298.759 182.043 299.049 183.559C299.261 184.404 301.991 194.711 302.33 195.983C303.622 195.632 304.957 195.471 306.295 195.505L303.213 184.114C305.462 184.782 307.91 185.926 308.383 187.504L310.795 196.731C311.275 196.993 311.732 197.296 312.16 197.637C312.297 197.748 312.429 197.865 312.555 197.988L316.109 201.436L312.188 186.437C310.831 181.905 304.685 180.261 302.015 179.754C301.726 178.895 301.368 178.061 300.944 177.26C299.915 175.662 298.526 174.326 296.889 173.358C295.252 172.39 293.412 171.818 291.516 171.686C289.503 169.229 285.306 166.768 281.875 166.804C280.846 166.777 279.829 167.034 278.937 167.547C278.044 168.06 277.311 168.809 276.817 169.712C276.081 171.045 275.889 172.611 276.282 174.082L286.417 212.854C286.8 214.314 287.544 215.654 288.58 216.751L304.132 233.168C304.904 233.918 305.453 234.867 305.72 235.91L307.219 241.644C307.351 242.151 307.68 242.585 308.132 242.85C308.584 243.114 309.123 243.189 309.63 243.056C310.137 242.924 310.571 242.595 310.835 242.143C311.1 241.691 311.174 241.152 311.042 240.645L309.543 234.911C309.112 233.223 308.234 231.682 307.002 230.45L291.45 214.034Z" fill="#7A60E2"/>
<path d="M309.716 200.712C305.925 197.583 299.606 200.893 297.307 202.883C296.895 203.244 296.562 203.687 296.33 204.184C296.098 204.681 295.973 205.221 295.962 205.769C295.948 206.336 296.053 206.9 296.27 207.425C296.487 207.949 296.811 208.423 297.221 208.815L307.911 218.994C308.291 219.354 308.798 219.549 309.321 219.535C309.844 219.522 310.341 219.302 310.702 218.923C311.063 218.544 311.259 218.038 311.247 217.514C311.235 216.991 311.015 216.494 310.637 216.132L299.947 205.954C299.907 205.917 299.921 205.854 299.894 205.869C301.772 204.244 305.724 202.665 307.148 203.718C307.148 203.718 319.985 216.381 320.029 216.419C320.878 217.129 321.485 218.086 321.764 219.158L326.335 236.647C326.468 237.154 326.796 237.587 327.249 237.852C327.701 238.117 328.24 238.191 328.747 238.059C329.254 237.926 329.687 237.598 329.952 237.146C330.217 236.693 330.291 236.154 330.159 235.647L325.587 218.158C325.104 216.316 324.068 214.666 322.617 213.432C322.617 213.432 309.761 200.749 309.716 200.712Z" fill="#7A60E2"/>
<path d="M365.437 146.546C364.565 146 363.558 145.706 362.529 145.695C361.5 145.684 360.488 145.957 359.604 146.485C356.594 148.133 354.138 152.332 353.585 155.461C351.995 156.504 350.671 157.903 349.717 159.548C348.763 161.193 348.206 163.038 348.09 164.936C348.113 165.841 348.209 166.744 348.377 167.634C346.297 169.383 341.742 173.825 342.776 178.441L346.697 193.44L348.109 188.694C348.159 188.525 348.217 188.358 348.282 188.194C348.488 187.688 348.738 187.2 349.029 186.737L346.616 177.509C346.257 175.902 347.831 173.706 349.466 172.023L352.353 183.465C353.503 182.781 354.747 182.268 356.044 181.941C355.718 180.666 353.055 170.341 352.826 169.502C352.337 168.037 352.074 166.506 352.046 164.962C352.143 163.796 352.489 162.664 353.061 161.643C353.633 160.622 354.417 159.736 355.361 159.045L360.987 181.34C362.235 181.339 363.48 181.464 364.703 181.712C364.868 181.748 365.028 181.798 365.19 181.844L358.174 154.039C358.863 152.382 360.019 150.961 361.502 149.95C361.747 149.799 362.025 149.708 362.313 149.686C362.6 149.664 362.889 149.711 363.155 149.823C363.421 149.935 363.656 150.109 363.841 150.33C364.026 150.551 364.156 150.813 364.219 151.094L374.354 189.866C374.568 190.683 374.572 191.54 374.367 192.358L368.838 214.285C368.366 215.963 368.354 217.736 368.805 219.419L370.304 225.153C370.436 225.66 370.765 226.094 371.217 226.358C371.669 226.623 372.208 226.697 372.715 226.565C373.222 226.432 373.656 226.104 373.921 225.652C374.186 225.199 374.26 224.66 374.127 224.153L372.628 218.419C372.351 217.379 372.365 216.283 372.671 215.251L378.199 193.323C378.566 191.859 378.559 190.327 378.178 188.866L368.042 150.095C367.665 148.62 366.732 147.348 365.437 146.546Z" fill="#7A60E2"/>
<path d="M366.387 187.359C366.109 186.886 365.736 186.477 365.291 186.157C364.845 185.837 364.338 185.613 363.802 185.501C360.823 184.89 353.693 185.096 351.918 189.679C351.897 189.734 346.892 207.086 346.892 207.086C346.231 208.872 346.134 210.818 346.615 212.661L351.187 230.15C351.32 230.657 351.648 231.091 352.1 231.356C352.553 231.62 353.092 231.695 353.599 231.562C354.106 231.43 354.539 231.101 354.804 230.649C355.069 230.197 355.143 229.658 355.011 229.151L350.439 211.662C350.157 210.591 350.218 209.459 350.61 208.424C350.631 208.37 355.629 191.045 355.629 191.045C356.355 189.429 360.574 188.872 363.007 189.371C362.976 189.371 363.019 189.419 363.002 189.47L358.661 203.579C358.508 204.079 358.56 204.62 358.806 205.082C359.051 205.544 359.47 205.89 359.97 206.044C360.471 206.198 361.012 206.147 361.474 205.902C361.937 205.658 362.284 205.239 362.439 204.74L366.78 190.632C366.946 190.089 366.997 189.517 366.929 188.954C366.861 188.39 366.677 187.847 366.387 187.359Z" fill="#7A60E2"/>
<path d="M291.45 214.034C290.87 213.42 290.455 212.671 290.241 211.854L280.105 173.083C280.023 172.806 280.008 172.514 280.061 172.231C280.114 171.948 280.234 171.681 280.411 171.453C280.588 171.226 280.817 171.044 281.079 170.922C281.34 170.801 281.627 170.743 281.915 170.755C283.703 170.911 285.406 171.584 286.818 172.692L294.307 200.374C294.426 200.254 294.541 200.132 294.668 200.02C295.612 199.205 296.637 198.487 297.725 197.877L291.721 175.681C292.882 175.822 294 176.211 294.998 176.821C295.997 177.432 296.852 178.249 297.508 179.219C298.239 180.579 298.759 182.043 299.049 183.559C299.261 184.404 301.991 194.711 302.33 195.983C303.622 195.632 304.957 195.471 306.295 195.505L303.213 184.114C305.462 184.782 307.91 185.926 308.383 187.504L310.795 196.731C311.275 196.993 311.732 197.296 312.16 197.637C312.297 197.748 312.429 197.865 312.555 197.988L316.109 201.436L312.188 186.437C310.831 181.905 304.685 180.261 302.015 179.754C301.726 178.895 301.368 178.061 300.944 177.26C299.915 175.662 298.526 174.326 296.889 173.358C295.252 172.39 293.412 171.818 291.516 171.686C289.503 169.229 285.306 166.768 281.875 166.804C280.846 166.777 279.829 167.034 278.937 167.547C278.044 168.06 277.311 168.809 276.817 169.712C276.081 171.045 275.889 172.611 276.282 174.082L286.417 212.854C286.8 214.314 287.544 215.654 288.58 216.751L304.132 233.168C304.904 233.918 305.453 234.867 305.72 235.91L307.219 241.644C307.351 242.151 307.68 242.585 308.132 242.85C308.584 243.114 309.123 243.189 309.63 243.056C310.137 242.924 310.571 242.595 310.835 242.143C311.1 241.691 311.174 241.152 311.042 240.645L309.543 234.911C309.112 233.223 308.234 231.682 307.002 230.45L291.45 214.034Z" stroke="#7A60E2" stroke-width="7.90366" mask="url(#path-12-outside-1_444_263)"/>
<path d="M309.716 200.712C305.925 197.583 299.606 200.893 297.307 202.883C296.895 203.244 296.562 203.687 296.33 204.184C296.098 204.681 295.973 205.221 295.962 205.769C295.948 206.336 296.053 206.9 296.27 207.425C296.487 207.949 296.811 208.423 297.221 208.815L307.911 218.994C308.291 219.354 308.798 219.549 309.321 219.535C309.844 219.522 310.341 219.302 310.702 218.923C311.063 218.544 311.259 218.038 311.247 217.514C311.235 216.991 311.015 216.494 310.637 216.132L299.947 205.954C299.907 205.917 299.921 205.854 299.894 205.869C301.772 204.244 305.724 202.665 307.148 203.718C307.148 203.718 319.985 216.381 320.029 216.419C320.878 217.129 321.485 218.086 321.764 219.158L326.335 236.647C326.468 237.154 326.796 237.587 327.249 237.852C327.701 238.117 328.24 238.191 328.747 238.059C329.254 237.926 329.687 237.598 329.952 237.146C330.217 236.693 330.291 236.154 330.159 235.647L325.587 218.158C325.104 216.316 324.068 214.666 322.617 213.432C322.617 213.432 309.761 200.749 309.716 200.712Z" stroke="#7A60E2" stroke-width="7.90366" mask="url(#path-12-outside-1_444_263)"/>
<path d="M365.437 146.546C364.565 146 363.558 145.706 362.529 145.695C361.5 145.684 360.488 145.957 359.604 146.485C356.594 148.133 354.138 152.332 353.585 155.461C351.995 156.504 350.671 157.903 349.717 159.548C348.763 161.193 348.206 163.038 348.09 164.936C348.113 165.841 348.209 166.744 348.377 167.634C346.297 169.383 341.742 173.825 342.776 178.441L346.697 193.44L348.109 188.694C348.159 188.525 348.217 188.358 348.282 188.194C348.488 187.688 348.738 187.2 349.029 186.737L346.616 177.509C346.257 175.902 347.831 173.706 349.466 172.023L352.353 183.465C353.503 182.781 354.747 182.268 356.044 181.941C355.718 180.666 353.055 170.341 352.826 169.502C352.337 168.037 352.074 166.506 352.046 164.962C352.143 163.796 352.489 162.664 353.061 161.643C353.633 160.622 354.417 159.736 355.361 159.045L360.987 181.34C362.235 181.339 363.48 181.464 364.703 181.712C364.868 181.748 365.028 181.798 365.19 181.844L358.174 154.039C358.863 152.382 360.019 150.961 361.502 149.95C361.747 149.799 362.025 149.708 362.313 149.686C362.6 149.664 362.889 149.711 363.155 149.823C363.421 149.935 363.656 150.109 363.841 150.33C364.026 150.551 364.156 150.813 364.219 151.094L374.354 189.866C374.568 190.683 374.572 191.54 374.367 192.358L368.838 214.285C368.366 215.963 368.354 217.736 368.805 219.419L370.304 225.153C370.436 225.66 370.765 226.094 371.217 226.358C371.669 226.623 372.208 226.697 372.715 226.565C373.222 226.432 373.656 226.104 373.921 225.652C374.186 225.199 374.26 224.66 374.127 224.153L372.628 218.419C372.351 217.379 372.365 216.283 372.671 215.251L378.199 193.323C378.566 191.859 378.559 190.327 378.178 188.866L368.042 150.095C367.665 148.62 366.732 147.348 365.437 146.546Z" stroke="#7A60E2" stroke-width="7.90366" mask="url(#path-12-outside-1_444_263)"/>
<path d="M366.387 187.359C366.109 186.886 365.736 186.477 365.291 186.157C364.845 185.837 364.338 185.613 363.802 185.501C360.823 184.89 353.693 185.096 351.918 189.679C351.897 189.734 346.892 207.086 346.892 207.086C346.231 208.872 346.134 210.818 346.615 212.661L351.187 230.15C351.32 230.657 351.648 231.091 352.1 231.356C352.553 231.62 353.092 231.695 353.599 231.562C354.106 231.43 354.539 231.101 354.804 230.649C355.069 230.197 355.143 229.658 355.011 229.151L350.439 211.662C350.157 210.591 350.218 209.459 350.61 208.424C350.631 208.37 355.629 191.045 355.629 191.045C356.355 189.429 360.574 188.872 363.007 189.371C362.976 189.371 363.019 189.419 363.002 189.47L358.661 203.579C358.508 204.079 358.56 204.62 358.806 205.082C359.051 205.544 359.47 205.89 359.97 206.044C360.471 206.198 361.012 206.147 361.474 205.902C361.937 205.658 362.284 205.239 362.439 204.74L366.78 190.632C366.946 190.089 366.997 189.517 366.929 188.954C366.861 188.39 366.677 187.847 366.387 187.359Z" stroke="#7A60E2" stroke-width="7.90366" mask="url(#path-12-outside-1_444_263)"/>
<path d="M316.183 129.347L313.078 124.821L312.586 130.287L312.113 135.531L312.061 136.113L311.46 135.825L306.712 133.55L301.768 131.181L304.064 136.159L306.27 140.942L306.517 141.477L305.85 141.528L300.597 141.934L295.112 142.358L299.613 145.521L303.92 148.548L304.396 148.882L303.837 149.266L299.495 152.244L294.969 155.349L300.435 155.841L305.679 156.314L306.261 156.366L305.973 156.967L303.698 161.715L301.329 166.659L306.308 164.363L311.09 162.157L311.625 161.91L311.676 162.577L312.082 167.831L312.506 173.315L315.669 168.814L318.696 164.507L319.031 164.032L319.414 164.59L322.392 168.932L325.497 173.458L325.99 167.992L326.462 162.748L326.514 162.166L327.115 162.454L331.863 164.729L336.808 167.098L334.511 162.12L332.305 157.337L332.058 156.802L332.726 156.751L337.979 156.345L343.463 155.921L338.963 152.758L334.655 149.731L334.18 149.397L334.739 149.013L339.08 146.035L343.607 142.93L338.14 142.438L332.896 141.965L332.315 141.913L332.602 141.312L334.877 136.564L337.246 131.62L332.268 133.916L327.485 136.122L326.95 136.369L326.899 135.702L326.493 130.448L326.069 124.964L322.906 129.464L319.879 133.772L319.545 134.247L319.161 133.689L316.183 129.347ZM312.573 137.418L312.535 137.024L312.91 137.3L314.324 138.34C313.771 138.593 313.244 138.886 312.746 139.215L312.573 137.418ZM307.847 142.078L309.589 142.271C309.242 142.763 308.932 143.28 308.662 143.818L307.608 142.347L307.378 142.026L307.847 142.078ZM305.847 148.742L307.452 148.041C307.396 148.635 307.386 149.237 307.423 149.844L305.769 149.095L305.411 148.933L305.847 148.742ZM307.448 155.517L308.488 154.103C308.742 154.657 309.035 155.184 309.363 155.682L307.566 155.854L307.172 155.892L307.448 155.517ZM312.227 160.58L312.42 158.838C312.911 159.186 313.428 159.496 313.966 159.765L312.496 160.819L312.175 161.049L312.227 160.58ZM318.89 162.58L318.189 160.976C318.783 161.031 319.385 161.041 319.992 161.005L319.243 162.658L319.081 163.016L318.89 162.58ZM325.665 160.979L324.251 159.939C324.805 159.686 325.332 159.392 325.83 159.064L326.002 160.861L326.04 161.255L325.665 160.979ZM330.728 156.201L328.986 156.008C329.334 155.516 329.644 154.999 329.913 154.461L330.967 155.932L331.197 156.253L330.728 156.201ZM332.728 149.537L331.124 150.238C331.179 149.644 331.189 149.042 331.153 148.435L332.806 149.184L333.164 149.346L332.728 149.537ZM331.127 142.762L330.087 144.176C329.834 143.622 329.541 143.095 329.212 142.597L331.009 142.425L331.403 142.387L331.127 142.762ZM326.349 137.699L326.156 139.441C325.664 139.093 325.147 138.783 324.609 138.514L326.08 137.46L326.401 137.23L326.349 137.699ZM320.386 137.303C319.792 137.248 319.19 137.238 318.584 137.274L319.332 135.621L319.494 135.263L319.685 135.699L320.386 137.303Z" fill="#7A60E2" stroke="#7A60E2" stroke-width="3.95183"/>
<path d="M291.45 214.034C290.87 213.42 290.455 212.671 290.241 211.854L280.105 173.083C280.023 172.806 280.008 172.514 280.061 172.231C280.114 171.948 280.234 171.681 280.411 171.453C280.588 171.226 280.817 171.044 281.079 170.922C281.34 170.801 281.627 170.743 281.915 170.755C283.703 170.911 285.406 171.584 286.818 172.692L294.307 200.374C294.426 200.254 294.541 200.132 294.668 200.02C295.612 199.205 296.637 198.487 297.725 197.877L291.721 175.681C292.882 175.822 294 176.211 294.998 176.821C295.997 177.432 296.852 178.249 297.508 179.219C298.239 180.579 298.759 182.043 299.049 183.559C299.261 184.404 301.991 194.711 302.33 195.983C303.622 195.632 304.957 195.471 306.295 195.505L303.213 184.114C305.462 184.782 307.91 185.926 308.383 187.504L310.795 196.731C311.275 196.993 311.732 197.296 312.16 197.637C312.297 197.748 312.429 197.865 312.555 197.988L316.109 201.436L312.188 186.437C310.831 181.905 304.685 180.261 302.015 179.754C301.726 178.895 301.368 178.061 300.944 177.26C299.915 175.662 298.526 174.326 296.889 173.358C295.252 172.39 293.412 171.818 291.516 171.686C289.503 169.229 285.306 166.768 281.875 166.804C280.846 166.777 279.829 167.034 278.937 167.547C278.044 168.06 277.311 168.809 276.817 169.712C276.081 171.045 275.889 172.611 276.282 174.082L286.417 212.854C286.8 214.314 287.544 215.654 288.58 216.751L304.132 233.168C304.904 233.918 305.453 234.867 305.72 235.91L307.219 241.644C307.351 242.151 307.68 242.585 308.132 242.85C308.584 243.114 309.123 243.189 309.63 243.056C310.137 242.924 310.571 242.595 310.835 242.143C311.1 241.691 311.174 241.152 311.042 240.645L309.543 234.911C309.112 233.223 308.234 231.682 307.002 230.45L291.45 214.034Z" fill="#F6F4F9"/>
<path d="M309.716 200.712C305.925 197.583 299.606 200.893 297.307 202.883C296.895 203.244 296.562 203.687 296.33 204.184C296.098 204.681 295.973 205.221 295.962 205.769C295.948 206.336 296.053 206.9 296.27 207.425C296.487 207.949 296.811 208.423 297.221 208.815L307.911 218.994C308.291 219.354 308.798 219.549 309.321 219.535C309.844 219.522 310.341 219.302 310.702 218.923C311.063 218.544 311.259 218.038 311.247 217.514C311.235 216.991 311.015 216.494 310.637 216.132L299.947 205.954C299.907 205.917 299.921 205.854 299.894 205.869C301.772 204.244 305.724 202.665 307.148 203.718C307.148 203.718 319.985 216.381 320.029 216.419C320.878 217.129 321.485 218.086 321.764 219.158L326.335 236.647C326.468 237.154 326.796 237.587 327.249 237.852C327.701 238.117 328.24 238.191 328.747 238.059C329.254 237.926 329.687 237.598 329.952 237.146C330.217 236.693 330.291 236.154 330.159 235.647L325.587 218.158C325.104 216.316 324.068 214.666 322.617 213.432C322.617 213.432 309.761 200.749 309.716 200.712Z" fill="#F6F4F9"/>
<path d="M365.437 146.546C364.565 146 363.558 145.706 362.529 145.695C361.5 145.684 360.488 145.957 359.604 146.485C356.594 148.133 354.138 152.332 353.585 155.461C351.995 156.504 350.671 157.903 349.717 159.548C348.763 161.193 348.206 163.038 348.09 164.936C348.113 165.841 348.209 166.744 348.377 167.634C346.297 169.383 341.742 173.825 342.776 178.441L346.697 193.44L348.109 188.694C348.159 188.525 348.217 188.358 348.282 188.194C348.488 187.688 348.738 187.2 349.029 186.737L346.616 177.509C346.257 175.902 347.831 173.706 349.466 172.023L352.353 183.465C353.503 182.781 354.747 182.268 356.044 181.941C355.718 180.666 353.055 170.341 352.826 169.502C352.337 168.037 352.074 166.506 352.046 164.962C352.143 163.796 352.489 162.664 353.061 161.643C353.633 160.622 354.417 159.736 355.361 159.045L360.987 181.34C362.235 181.339 363.48 181.464 364.703 181.712C364.868 181.748 365.028 181.798 365.19 181.844L358.174 154.039C358.863 152.382 360.019 150.961 361.502 149.95C361.747 149.799 362.025 149.708 362.313 149.686C362.6 149.664 362.889 149.711 363.155 149.823C363.421 149.935 363.656 150.109 363.841 150.33C364.026 150.551 364.156 150.813 364.219 151.094L374.354 189.866C374.568 190.683 374.572 191.54 374.367 192.358L368.838 214.285C368.366 215.963 368.354 217.736 368.805 219.419L370.304 225.153C370.436 225.66 370.765 226.094 371.217 226.358C371.669 226.623 372.208 226.697 372.715 226.565C373.222 226.432 373.656 226.104 373.921 225.652C374.186 225.199 374.26 224.66 374.127 224.153L372.628 218.419C372.351 217.379 372.365 216.283 372.671 215.251L378.199 193.323C378.566 191.859 378.559 190.327 378.178 188.866L368.042 150.095C367.665 148.62 366.732 147.348 365.437 146.546Z" fill="#F6F4F9"/>
<path d="M366.387 187.359C366.109 186.886 365.736 186.477 365.291 186.157C364.845 185.837 364.338 185.613 363.802 185.501C360.823 184.89 353.693 185.096 351.918 189.679C351.897 189.734 346.892 207.086 346.892 207.086C346.231 208.872 346.134 210.818 346.615 212.661L351.187 230.15C351.32 230.657 351.648 231.091 352.1 231.356C352.553 231.62 353.092 231.695 353.599 231.562C354.106 231.43 354.539 231.101 354.804 230.649C355.069 230.197 355.143 229.658 355.011 229.151L350.439 211.662C350.157 210.591 350.218 209.459 350.61 208.424C350.631 208.37 355.629 191.045 355.629 191.045C356.355 189.429 360.574 188.872 363.007 189.371C362.976 189.371 363.019 189.419 363.002 189.47L358.661 203.579C358.508 204.079 358.56 204.62 358.806 205.082C359.051 205.544 359.47 205.89 359.97 206.044C360.471 206.198 361.012 206.147 361.474 205.902C361.937 205.658 362.284 205.239 362.439 204.74L366.78 190.632C366.946 190.089 366.997 189.517 366.929 188.954C366.861 188.39 366.677 187.847 366.387 187.359Z" fill="#F6F4F9"/>
<path d="M313.34 125.676L312.746 132.264L315.614 134.374L317.082 131.131L313.34 125.676Z" fill="#F6F4F9"/>
<path d="M302.415 131.791L305.187 137.8L308.72 138.191L308.38 134.649L302.415 131.791Z" fill="#F6F4F9"/>
<path d="M295.995 142.562L301.407 146.365L304.666 144.941L302.595 142.051L295.995 142.562Z" fill="#F6F4F9"/>
<path d="M295.824 155.087L302.413 155.681L304.522 152.813L301.279 151.345L295.824 155.087Z" fill="#F6F4F9"/>
<path d="M301.94 166.012L307.948 163.24L308.34 159.707L304.798 160.046L301.94 166.012Z" fill="#F6F4F9"/>
<path d="M312.71 172.431L316.514 167.02L315.09 163.761L312.2 165.831L312.71 172.431Z" fill="#F6F4F9"/>
<path d="M325.235 172.603L325.829 166.014L322.962 163.904L321.493 167.147L325.235 172.603Z" fill="#F6F4F9"/>
<path d="M336.16 166.487L333.389 160.478L329.855 160.087L330.195 163.629L336.16 166.487Z" fill="#F6F4F9"/>
<path d="M342.58 155.717L337.168 151.913L333.909 153.337L335.98 156.227L342.58 155.717Z" fill="#F6F4F9"/>
<path d="M342.751 143.191L336.163 142.598L334.053 145.465L337.296 146.933L342.751 143.191Z" fill="#F6F4F9"/>
<path d="M336.636 132.266L330.627 135.038L330.235 138.572L333.778 138.232L336.636 132.266Z" fill="#F6F4F9"/>
<path d="M325.865 125.847L322.062 131.258L323.486 134.517L326.375 132.447L325.865 125.847Z" fill="#F6F4F9"/>
<path d="M322.436 161.183C329.087 159.444 333.07 152.642 331.331 145.991C329.592 139.339 322.791 135.357 316.139 137.095C309.488 138.834 305.505 145.636 307.244 152.287C308.983 158.939 315.784 162.921 322.436 161.183Z" fill="#F6F4F9"/>
<rect x="223.612" y="93.5122" width="156.027" height="235.064" rx="6.88073" transform="rotate(-14.65 223.612 93.5122)" stroke="#F6F4F9" stroke-width="2.04586"/>
</g>
<g clip-path="url(#clip1_444_263)">
<g clip-path="url(#clip2_444_263)">
<rect x="412.963" y="46.0635" width="166.74" height="246.485" rx="10.8675" transform="rotate(16.12 412.963 46.0635)" fill="#2A2731"/>
<circle cx="553.779" cy="102.089" r="3.58025" transform="rotate(16.12 553.779 102.089)" fill="#F2EFFF"/>
<circle cx="493.665" cy="310.087" r="3.58025" transform="rotate(16.12 493.665 310.087)" fill="#F2EFFF"/>
<circle cx="364.282" cy="272.692" r="3.58025" transform="rotate(16.12 364.282 272.692)" fill="#F2EFFF"/>
<circle cx="424.4" cy="64.6982" r="3.58025" transform="rotate(16.12 424.4 64.6982)" fill="#F2EFFF"/>
<path d="M438.271 68.8037L539.49 98.0574" stroke="#F2EFFF" stroke-width="2.04586" stroke-linecap="round"/>
<path d="M379.147 276.934L480.366 306.187" stroke="#F2EFFF" stroke-width="2.04586" stroke-linecap="round"/>
<path d="M420.193 77.9756L367.65 259.777" stroke="#F2EFFF" stroke-width="2.04586" stroke-linecap="round"/>
<path d="M550.223 115.556L497.396 298.34" stroke="#F2EFFF" stroke-width="2.04586" stroke-linecap="round"/>
<circle cx="447.491" cy="227.27" r="49.8573" transform="rotate(16.12 447.491 227.27)" stroke="#F2EFFF" stroke-width="2.04507"/>
<circle cx="470.532" cy="147.544" r="49.8573" transform="rotate(16.12 470.532 147.544)" stroke="#F2EFFF" stroke-width="2.04507"/>
<mask id="path-29-outside-2_444_263" maskUnits="userSpaceOnUse" x="394.302" y="138.258" width="123.661" height="114.099" fill="black">
<rect fill="white" x="394.302" y="138.258" width="123.661" height="114.099"/>
<path d="M495.198 214.756C495.793 214.157 496.228 213.419 496.463 212.608L507.589 174.109C507.679 173.835 507.701 173.544 507.655 173.259C507.61 172.974 507.496 172.705 507.325 172.473C507.154 172.24 506.93 172.052 506.672 171.924C506.414 171.796 506.128 171.731 505.84 171.736C504.049 171.846 502.329 172.475 500.889 173.546L492.692 201.027C492.577 200.905 492.465 200.779 492.341 200.664C491.417 199.825 490.412 199.081 489.339 198.444L495.911 176.409C494.746 176.52 493.619 176.88 492.605 177.465C491.592 178.049 490.715 178.845 490.036 179.797C489.27 181.138 488.712 182.588 488.383 184.097C488.15 184.935 485.156 195.169 484.784 196.431C483.502 196.048 482.171 195.853 480.833 195.852L484.206 184.544C481.941 185.154 479.465 186.235 478.951 187.8L476.303 196.963C475.816 197.212 475.352 197.503 474.915 197.833C474.776 197.941 474.641 198.054 474.511 198.174L470.87 201.529L475.175 186.636C476.648 182.141 482.834 180.655 485.516 180.216C485.827 179.365 486.206 178.541 486.65 177.751C487.72 176.179 489.143 174.879 490.804 173.954C492.465 173.028 494.319 172.503 496.219 172.421C498.294 170.015 502.553 167.664 505.982 167.787C507.011 167.786 508.021 168.069 508.9 168.605C509.779 169.141 510.493 169.909 510.963 170.824C511.665 172.176 511.816 173.746 511.386 175.207L500.259 213.705C499.839 215.155 499.061 216.475 497.997 217.545L482.029 233.558C481.239 234.289 480.665 235.223 480.372 236.259L478.726 241.953C478.581 242.456 478.241 242.881 477.782 243.134C477.323 243.387 476.783 243.448 476.279 243.302C475.776 243.157 475.351 242.817 475.098 242.358C474.845 241.899 474.784 241.359 474.93 240.855L476.575 235.162C477.049 233.485 477.966 231.967 479.23 230.768L495.198 214.756Z"/>
<path d="M477.28 200.97C481.15 197.939 487.381 201.41 489.629 203.458C490.032 203.83 490.353 204.281 490.572 204.784C490.791 205.287 490.903 205.83 490.9 206.378C490.899 206.945 490.779 207.507 490.549 208.025C490.319 208.544 489.983 209.009 489.563 209.391L478.615 219.292C478.226 219.642 477.714 219.824 477.192 219.797C476.669 219.771 476.178 219.538 475.827 219.15C475.476 218.762 475.293 218.25 475.318 217.727C475.344 217.205 475.576 216.713 475.963 216.361L486.911 206.461C486.951 206.425 486.94 206.362 486.966 206.378C485.131 204.704 481.221 203.024 479.77 204.041C479.77 204.041 466.612 216.371 466.567 216.407C465.7 217.095 465.069 218.037 464.763 219.101L459.744 236.467C459.598 236.97 459.259 237.395 458.8 237.648C458.341 237.901 457.801 237.962 457.297 237.816C456.794 237.671 456.369 237.331 456.116 236.872C455.862 236.413 455.802 235.873 455.947 235.369L460.966 218.003C461.496 216.174 462.575 214.551 464.057 213.354C464.057 213.354 477.233 201.006 477.28 200.97Z"/>
<path d="M422.966 145.392C423.853 144.869 424.866 144.6 425.895 144.616C426.925 144.631 427.93 144.931 428.8 145.481C431.766 147.205 434.114 151.467 434.586 154.608C436.148 155.691 437.436 157.125 438.348 158.793C439.259 160.462 439.769 162.321 439.836 164.221C439.79 165.126 439.671 166.025 439.48 166.911C441.514 168.713 445.954 173.27 444.802 177.858L440.498 192.751L439.208 187.971C439.162 187.8 439.108 187.633 439.048 187.467C438.855 186.955 438.617 186.461 438.338 185.99L440.987 176.828C441.387 175.23 439.87 172.995 438.279 171.27L435.099 182.634C433.967 181.921 432.737 181.377 431.448 181.017C431.807 179.75 434.734 169.497 434.985 168.664C435.511 167.212 435.813 165.688 435.88 164.146C435.814 162.977 435.497 161.837 434.951 160.802C434.406 159.767 433.644 158.861 432.718 158.145L426.522 180.289C425.275 180.256 424.027 180.348 422.799 180.565C422.632 180.597 422.471 180.643 422.308 180.685L430.035 153.069C429.389 151.395 428.269 149.945 426.813 148.896C426.572 148.739 426.296 148.641 426.009 148.612C425.722 148.582 425.433 148.622 425.164 148.727C424.895 148.832 424.656 149 424.465 149.216C424.274 149.432 424.138 149.691 424.067 149.97L412.941 188.469C412.707 189.28 412.681 190.137 412.864 190.96L417.829 213.022C418.258 214.711 418.224 216.484 417.73 218.155L416.085 223.848C415.939 224.352 415.6 224.777 415.141 225.03C414.682 225.283 414.141 225.344 413.638 225.198C413.134 225.053 412.709 224.713 412.456 224.254C412.203 223.795 412.143 223.255 412.288 222.751L413.934 217.058C414.238 216.025 414.252 214.928 413.973 213.889L409.009 191.827C408.68 190.354 408.726 188.822 409.144 187.372L420.271 148.873C420.686 147.408 421.652 146.161 422.966 145.392Z"/>
<path d="M420.969 186.167C421.26 185.702 421.644 185.302 422.097 184.994C422.55 184.685 423.063 184.475 423.602 184.376C426.596 183.842 433.718 184.231 435.374 188.858C435.395 188.914 439.952 206.388 439.952 206.388C440.567 208.19 440.614 210.138 440.086 211.969L435.067 229.335C434.921 229.838 434.582 230.263 434.123 230.516C433.664 230.769 433.124 230.83 432.62 230.684C432.117 230.539 431.692 230.199 431.439 229.74C431.185 229.281 431.125 228.741 431.271 228.237L436.29 210.871C436.598 209.808 436.567 208.675 436.201 207.63C436.181 207.576 431.63 190.128 431.63 190.128C430.945 188.494 426.742 187.829 424.297 188.265C424.328 188.266 424.284 188.313 424.299 188.365L428.277 202.58C428.417 203.084 428.351 203.623 428.094 204.079C427.837 204.535 427.409 204.87 426.905 205.011C426.401 205.151 425.862 205.087 425.405 204.83C424.949 204.574 424.613 204.147 424.471 203.644L420.493 189.429C420.341 188.882 420.305 188.309 420.387 187.748C420.469 187.186 420.668 186.648 420.969 186.167Z"/>
</mask>
<path d="M495.198 214.756C495.793 214.157 496.228 213.419 496.463 212.608L507.589 174.109C507.679 173.835 507.701 173.544 507.655 173.259C507.61 172.974 507.496 172.705 507.325 172.473C507.154 172.24 506.93 172.052 506.672 171.924C506.414 171.796 506.128 171.731 505.84 171.736C504.049 171.846 502.329 172.475 500.889 173.546L492.692 201.027C492.577 200.905 492.465 200.779 492.341 200.664C491.417 199.825 490.412 199.081 489.339 198.444L495.911 176.409C494.746 176.52 493.619 176.88 492.605 177.465C491.592 178.049 490.715 178.845 490.036 179.797C489.27 181.138 488.712 182.588 488.383 184.097C488.15 184.935 485.156 195.169 484.784 196.431C483.502 196.048 482.171 195.853 480.833 195.852L484.206 184.544C481.941 185.154 479.465 186.235 478.951 187.8L476.303 196.963C475.816 197.212 475.352 197.503 474.915 197.833C474.776 197.941 474.641 198.054 474.511 198.174L470.87 201.529L475.175 186.636C476.648 182.141 482.834 180.655 485.516 180.216C485.827 179.365 486.206 178.541 486.65 177.751C487.72 176.179 489.143 174.879 490.804 173.954C492.465 173.028 494.319 172.503 496.219 172.421C498.294 170.015 502.553 167.664 505.982 167.787C507.011 167.786 508.021 168.069 508.9 168.605C509.779 169.141 510.493 169.909 510.963 170.824C511.665 172.176 511.816 173.746 511.386 175.207L500.259 213.705C499.839 215.155 499.061 216.475 497.997 217.545L482.029 233.558C481.239 234.289 480.665 235.223 480.372 236.259L478.726 241.953C478.581 242.456 478.241 242.881 477.782 243.134C477.323 243.387 476.783 243.448 476.279 243.302C475.776 243.157 475.351 242.817 475.098 242.358C474.845 241.899 474.784 241.359 474.93 240.855L476.575 235.162C477.049 233.485 477.966 231.967 479.23 230.768L495.198 214.756Z" fill="#F2EFFF"/>
<path d="M477.28 200.97C481.15 197.939 487.381 201.41 489.629 203.458C490.032 203.83 490.353 204.281 490.572 204.784C490.791 205.287 490.903 205.83 490.9 206.378C490.899 206.945 490.779 207.507 490.549 208.025C490.319 208.544 489.983 209.009 489.563 209.391L478.615 219.292C478.226 219.642 477.714 219.824 477.192 219.797C476.669 219.771 476.178 219.538 475.827 219.15C475.476 218.762 475.293 218.25 475.318 217.727C475.344 217.205 475.576 216.713 475.963 216.361L486.911 206.461C486.951 206.425 486.94 206.362 486.966 206.378C485.131 204.704 481.221 203.024 479.77 204.041C479.77 204.041 466.612 216.371 466.567 216.407C465.7 217.095 465.069 218.037 464.763 219.101L459.744 236.467C459.598 236.97 459.259 237.395 458.8 237.648C458.341 237.901 457.801 237.962 457.297 237.816C456.794 237.671 456.369 237.331 456.116 236.872C455.862 236.413 455.802 235.873 455.947 235.369L460.966 218.003C461.496 216.174 462.575 214.551 464.057 213.354C464.057 213.354 477.233 201.006 477.28 200.97Z" fill="#F2EFFF"/>
<path d="M422.966 145.392C423.853 144.869 424.866 144.6 425.895 144.616C426.925 144.631 427.93 144.931 428.8 145.481C431.766 147.205 434.114 151.467 434.586 154.608C436.148 155.691 437.436 157.125 438.348 158.793C439.259 160.462 439.769 162.321 439.836 164.221C439.79 165.126 439.671 166.025 439.48 166.911C441.514 168.713 445.954 173.27 444.802 177.858L440.498 192.751L439.208 187.971C439.162 187.8 439.108 187.633 439.048 187.467C438.855 186.955 438.617 186.461 438.338 185.99L440.987 176.828C441.387 175.23 439.87 172.995 438.279 171.27L435.099 182.634C433.967 181.921 432.737 181.377 431.448 181.017C431.807 179.75 434.734 169.497 434.985 168.664C435.511 167.212 435.813 165.688 435.88 164.146C435.814 162.977 435.497 161.837 434.951 160.802C434.406 159.767 433.644 158.861 432.718 158.145L426.522 180.289C425.275 180.256 424.027 180.348 422.799 180.565C422.632 180.597 422.471 180.643 422.308 180.685L430.035 153.069C429.389 151.395 428.269 149.945 426.813 148.896C426.572 148.739 426.296 148.641 426.009 148.612C425.722 148.582 425.433 148.622 425.164 148.727C424.895 148.832 424.656 149 424.465 149.216C424.274 149.432 424.138 149.691 424.067 149.97L412.941 188.469C412.707 189.28 412.681 190.137 412.864 190.96L417.829 213.022C418.258 214.711 418.224 216.484 417.73 218.155L416.085 223.848C415.939 224.352 415.6 224.777 415.141 225.03C414.682 225.283 414.141 225.344 413.638 225.198C413.134 225.053 412.709 224.713 412.456 224.254C412.203 223.795 412.143 223.255 412.288 222.751L413.934 217.058C414.238 216.025 414.252 214.928 413.973 213.889L409.009 191.827C408.68 190.354 408.726 188.822 409.144 187.372L420.271 148.873C420.686 147.408 421.652 146.161 422.966 145.392Z" fill="#F2EFFF"/>
<path d="M420.969 186.167C421.26 185.702 421.644 185.302 422.097 184.994C422.55 184.685 423.063 184.475 423.602 184.376C426.596 183.842 433.718 184.231 435.374 188.858C435.395 188.914 439.952 206.388 439.952 206.388C440.567 208.19 440.614 210.138 440.086 211.969L435.067 229.335C434.921 229.838 434.582 230.263 434.123 230.516C433.664 230.769 433.124 230.83 432.62 230.684C432.117 230.539 431.692 230.199 431.439 229.74C431.185 229.281 431.125 228.741 431.271 228.237L436.29 210.871C436.598 209.808 436.567 208.675 436.201 207.63C436.181 207.576 431.63 190.128 431.63 190.128C430.945 188.494 426.742 187.829 424.297 188.265C424.328 188.266 424.284 188.313 424.299 188.365L428.277 202.58C428.417 203.084 428.351 203.623 428.094 204.079C427.837 204.535 427.409 204.87 426.905 205.011C426.401 205.151 425.862 205.087 425.405 204.83C424.949 204.574 424.613 204.147 424.471 203.644L420.493 189.429C420.341 188.882 420.305 188.309 420.387 187.748C420.469 187.186 420.668 186.648 420.969 186.167Z" fill="#F2EFFF"/>
<path d="M495.198 214.756C495.793 214.157 496.228 213.419 496.463 212.608L507.589 174.109C507.679 173.835 507.701 173.544 507.655 173.259C507.61 172.974 507.496 172.705 507.325 172.473C507.154 172.24 506.93 172.052 506.672 171.924C506.414 171.796 506.128 171.731 505.84 171.736C504.049 171.846 502.329 172.475 500.889 173.546L492.692 201.027C492.577 200.905 492.465 200.779 492.341 200.664C491.417 199.825 490.412 199.081 489.339 198.444L495.911 176.409C494.746 176.52 493.619 176.88 492.605 177.465C491.592 178.049 490.715 178.845 490.036 179.797C489.27 181.138 488.712 182.588 488.383 184.097C488.15 184.935 485.156 195.169 484.784 196.431C483.502 196.048 482.171 195.853 480.833 195.852L484.206 184.544C481.941 185.154 479.465 186.235 478.951 187.8L476.303 196.963C475.816 197.212 475.352 197.503 474.915 197.833C474.776 197.941 474.641 198.054 474.511 198.174L470.87 201.529L475.175 186.636C476.648 182.141 482.834 180.655 485.516 180.216C485.827 179.365 486.206 178.541 486.65 177.751C487.72 176.179 489.143 174.879 490.804 173.954C492.465 173.028 494.319 172.503 496.219 172.421C498.294 170.015 502.553 167.664 505.982 167.787C507.011 167.786 508.021 168.069 508.9 168.605C509.779 169.141 510.493 169.909 510.963 170.824C511.665 172.176 511.816 173.746 511.386 175.207L500.259 213.705C499.839 215.155 499.061 216.475 497.997 217.545L482.029 233.558C481.239 234.289 480.665 235.223 480.372 236.259L478.726 241.953C478.581 242.456 478.241 242.881 477.782 243.134C477.323 243.387 476.783 243.448 476.279 243.302C475.776 243.157 475.351 242.817 475.098 242.358C474.845 241.899 474.784 241.359 474.93 240.855L476.575 235.162C477.049 233.485 477.966 231.967 479.23 230.768L495.198 214.756Z" stroke="#2A2731" stroke-width="7.90366" mask="url(#path-29-outside-2_444_263)"/>
<path d="M477.28 200.97C481.15 197.939 487.381 201.41 489.629 203.458C490.032 203.83 490.353 204.281 490.572 204.784C490.791 205.287 490.903 205.83 490.9 206.378C490.899 206.945 490.779 207.507 490.549 208.025C490.319 208.544 489.983 209.009 489.563 209.391L478.615 219.292C478.226 219.642 477.714 219.824 477.192 219.797C476.669 219.771 476.178 219.538 475.827 219.15C475.476 218.762 475.293 218.25 475.318 217.727C475.344 217.205 475.576 216.713 475.963 216.361L486.911 206.461C486.951 206.425 486.94 206.362 486.966 206.378C485.131 204.704 481.221 203.024 479.77 204.041C479.77 204.041 466.612 216.371 466.567 216.407C465.7 217.095 465.069 218.037 464.763 219.101L459.744 236.467C459.598 236.97 459.259 237.395 458.8 237.648C458.341 237.901 457.801 237.962 457.297 237.816C456.794 237.671 456.369 237.331 456.116 236.872C455.862 236.413 455.802 235.873 455.947 235.369L460.966 218.003C461.496 216.174 462.575 214.551 464.057 213.354C464.057 213.354 477.233 201.006 477.28 200.97Z" stroke="#2A2731" stroke-width="7.90366" mask="url(#path-29-outside-2_444_263)"/>
<path d="M422.966 145.392C423.853 144.869 424.866 144.6 425.895 144.616C426.925 144.631 427.93 144.931 428.8 145.481C431.766 147.205 434.114 151.467 434.586 154.608C436.148 155.691 437.436 157.125 438.348 158.793C439.259 160.462 439.769 162.321 439.836 164.221C439.79 165.126 439.671 166.025 439.48 166.911C441.514 168.713 445.954 173.27 444.802 177.858L440.498 192.751L439.208 187.971C439.162 187.8 439.108 187.633 439.048 187.467C438.855 186.955 438.617 186.461 438.338 185.99L440.987 176.828C441.387 175.23 439.87 172.995 438.279 171.27L435.099 182.634C433.967 181.921 432.737 181.377 431.448 181.017C431.807 179.75 434.734 169.497 434.985 168.664C435.511 167.212 435.813 165.688 435.88 164.146C435.814 162.977 435.497 161.837 434.951 160.802C434.406 159.767 433.644 158.861 432.718 158.145L426.522 180.289C425.275 180.256 424.027 180.348 422.799 180.565C422.632 180.597 422.471 180.643 422.308 180.685L430.035 153.069C429.389 151.395 428.269 149.945 426.813 148.896C426.572 148.739 426.296 148.641 426.009 148.612C425.722 148.582 425.433 148.622 425.164 148.727C424.895 148.832 424.656 149 424.465 149.216C424.274 149.432 424.138 149.691 424.067 149.97L412.941 188.469C412.707 189.28 412.681 190.137 412.864 190.96L417.829 213.022C418.258 214.711 418.224 216.484 417.73 218.155L416.085 223.848C415.939 224.352 415.6 224.777 415.141 225.03C414.682 225.283 414.141 225.344 413.638 225.198C413.134 225.053 412.709 224.713 412.456 224.254C412.203 223.795 412.143 223.255 412.288 222.751L413.934 217.058C414.238 216.025 414.252 214.928 413.973 213.889L409.009 191.827C408.68 190.354 408.726 188.822 409.144 187.372L420.271 148.873C420.686 147.408 421.652 146.161 422.966 145.392Z" stroke="#2A2731" stroke-width="7.90366" mask="url(#path-29-outside-2_444_263)"/>
<path d="M420.969 186.167C421.26 185.702 421.644 185.302 422.097 184.994C422.55 184.685 423.063 184.475 423.602 184.376C426.596 183.842 433.718 184.231 435.374 188.858C435.395 188.914 439.952 206.388 439.952 206.388C440.567 208.19 440.614 210.138 440.086 211.969L435.067 229.335C434.921 229.838 434.582 230.263 434.123 230.516C433.664 230.769 433.124 230.83 432.62 230.684C432.117 230.539 431.692 230.199 431.439 229.74C431.185 229.281 431.125 228.741 431.271 228.237L436.29 210.871C436.598 209.808 436.567 208.675 436.201 207.63C436.181 207.576 431.63 190.128 431.63 190.128C430.945 188.494 426.742 187.829 424.297 188.265C424.328 188.266 424.284 188.313 424.299 188.365L428.277 202.58C428.417 203.084 428.351 203.623 428.094 204.079C427.837 204.535 427.409 204.87 426.905 205.011C426.401 205.151 425.862 205.087 425.405 204.83C424.949 204.574 424.613 204.147 424.471 203.644L420.493 189.429C420.341 188.882 420.305 188.309 420.387 187.748C420.469 187.186 420.668 186.648 420.969 186.167Z" stroke="#2A2731" stroke-width="7.90366" mask="url(#path-29-outside-2_444_263)"/>
<path d="M480.457 131.061L479.086 134.7C474.208 133.809 468.935 135.664 465.79 139.918L465.785 139.926L465.779 139.933C461.187 146.024 462.337 154.511 468.171 159.051C472.849 162.475 478.805 162.63 483.482 159.717L486.071 162.626C478.962 171.539 466.005 173.213 456.955 166.33L456.949 166.325L456.943 166.32C447.799 159.252 445.991 145.966 453.068 136.574L453.073 136.568C459.591 127.995 471.437 125.656 480.457 131.061Z" fill="#F2EFFF" stroke="#2A2731" stroke-width="3.95183"/>
<path d="M495.198 214.756C495.793 214.157 496.228 213.419 496.463 212.608L507.589 174.109C507.679 173.835 507.701 173.544 507.655 173.259C507.61 172.974 507.496 172.705 507.325 172.473C507.154 172.24 506.93 172.052 506.672 171.924C506.414 171.796 506.128 171.731 505.84 171.736C504.049 171.846 502.329 172.475 500.889 173.546L492.692 201.027C492.577 200.905 492.465 200.779 492.341 200.664C491.417 199.825 490.412 199.081 489.339 198.444L495.911 176.409C494.746 176.52 493.619 176.88 492.605 177.465C491.592 178.049 490.715 178.845 490.036 179.797C489.27 181.138 488.712 182.588 488.383 184.097C488.15 184.935 485.156 195.169 484.784 196.431C483.502 196.048 482.171 195.853 480.833 195.852L484.206 184.544C481.941 185.154 479.465 186.235 478.951 187.8L476.303 196.963C475.816 197.212 475.352 197.503 474.915 197.833C474.776 197.941 474.641 198.054 474.511 198.174L470.87 201.529L475.175 186.636C476.648 182.141 482.834 180.655 485.516 180.216C485.827 179.365 486.206 178.541 486.65 177.751C487.72 176.179 489.143 174.879 490.804 173.954C492.465 173.028 494.319 172.503 496.219 172.421C498.294 170.015 502.553 167.664 505.982 167.787C507.011 167.786 508.021 168.069 508.9 168.605C509.779 169.141 510.493 169.909 510.963 170.824C511.665 172.176 511.816 173.746 511.386 175.207L500.259 213.705C499.839 215.155 499.061 216.475 497.997 217.545L482.029 233.558C481.239 234.289 480.665 235.223 480.372 236.259L478.726 241.953C478.581 242.456 478.241 242.881 477.782 243.134C477.323 243.387 476.783 243.448 476.279 243.302C475.776 243.157 475.351 242.817 475.098 242.358C474.845 241.899 474.784 241.359 474.93 240.855L476.575 235.162C477.049 233.485 477.966 231.967 479.23 230.768L495.198 214.756Z" fill="#F2EFFF"/>
<path d="M477.28 200.97C481.15 197.939 487.381 201.41 489.629 203.458C490.032 203.83 490.353 204.281 490.572 204.784C490.791 205.287 490.903 205.83 490.9 206.378C490.899 206.945 490.779 207.507 490.549 208.025C490.319 208.544 489.983 209.009 489.563 209.391L478.615 219.292C478.226 219.642 477.714 219.824 477.192 219.797C476.669 219.771 476.178 219.538 475.827 219.15C475.476 218.762 475.293 218.25 475.318 217.727C475.344 217.205 475.576 216.713 475.963 216.361L486.911 206.461C486.951 206.425 486.94 206.362 486.966 206.378C485.131 204.704 481.221 203.024 479.77 204.041C479.77 204.041 466.612 216.371 466.567 216.407C465.7 217.095 465.069 218.037 464.763 219.101L459.744 236.467C459.598 236.97 459.259 237.395 458.8 237.648C458.341 237.901 457.801 237.962 457.297 237.816C456.794 237.671 456.369 237.331 456.116 236.872C455.862 236.413 455.802 235.873 455.947 235.369L460.966 218.003C461.496 216.174 462.575 214.551 464.057 213.354C464.057 213.354 477.233 201.006 477.28 200.97Z" fill="#F2EFFF"/>
<path d="M422.966 145.392C423.853 144.869 424.866 144.6 425.895 144.616C426.925 144.631 427.93 144.931 428.8 145.481C431.766 147.205 434.114 151.467 434.586 154.608C436.148 155.691 437.436 157.125 438.348 158.793C439.259 160.462 439.769 162.321 439.836 164.221C439.79 165.126 439.671 166.025 439.48 166.911C441.514 168.713 445.954 173.27 444.802 177.858L440.498 192.751L439.208 187.971C439.162 187.8 439.108 187.633 439.048 187.467C438.855 186.955 438.617 186.461 438.338 185.99L440.987 176.828C441.387 175.23 439.87 172.995 438.279 171.27L435.099 182.634C433.967 181.921 432.737 181.377 431.448 181.017C431.807 179.75 434.734 169.497 434.985 168.664C435.511 167.212 435.813 165.688 435.88 164.146C435.814 162.977 435.497 161.837 434.951 160.802C434.406 159.767 433.644 158.861 432.718 158.145L426.522 180.289C425.275 180.256 424.027 180.348 422.799 180.565C422.632 180.597 422.471 180.643 422.308 180.685L430.035 153.069C429.389 151.395 428.269 149.945 426.813 148.896C426.572 148.739 426.296 148.641 426.009 148.612C425.722 148.582 425.433 148.622 425.164 148.727C424.895 148.832 424.656 149 424.465 149.216C424.274 149.432 424.138 149.691 424.067 149.97L412.941 188.469C412.707 189.28 412.681 190.137 412.864 190.96L417.829 213.022C418.258 214.711 418.224 216.484 417.73 218.155L416.085 223.848C415.939 224.352 415.6 224.777 415.141 225.03C414.682 225.283 414.141 225.344 413.638 225.198C413.134 225.053 412.709 224.713 412.456 224.254C412.203 223.795 412.143 223.255 412.288 222.751L413.934 217.058C414.238 216.025 414.252 214.928 413.973 213.889L409.009 191.827C408.68 190.354 408.726 188.822 409.144 187.372L420.271 148.873C420.686 147.408 421.652 146.161 422.966 145.392Z" fill="#F2EFFF"/>
<path d="M420.969 186.167C421.26 185.702 421.644 185.302 422.097 184.994C422.55 184.685 423.063 184.475 423.602 184.376C426.596 183.842 433.718 184.231 435.374 188.858C435.395 188.914 439.952 206.388 439.952 206.388C440.567 208.19 440.614 210.138 440.086 211.969L435.067 229.335C434.921 229.838 434.582 230.263 434.123 230.516C433.664 230.769 433.124 230.83 432.62 230.684C432.117 230.539 431.692 230.199 431.439 229.74C431.185 229.281 431.125 228.741 431.271 228.237L436.29 210.871C436.598 209.808 436.567 208.675 436.201 207.63C436.181 207.576 431.63 190.128 431.63 190.128C430.945 188.494 426.742 187.829 424.297 188.265C424.328 188.266 424.284 188.313 424.299 188.365L428.277 202.58C428.417 203.084 428.351 203.623 428.094 204.079C427.837 204.535 427.409 204.87 426.905 205.011C426.401 205.151 425.862 205.087 425.405 204.83C424.949 204.574 424.613 204.147 424.471 203.644L420.493 189.429C420.341 188.882 420.305 188.309 420.387 187.748C420.469 187.186 420.668 186.648 420.969 186.167Z" fill="#F2EFFF"/>
<path fill-rule="evenodd" clip-rule="evenodd" d="M479.441 132.756C471.305 127.881 460.569 129.974 454.646 137.764C448.215 146.297 449.87 158.355 458.151 164.757C466.337 170.983 478.079 169.477 484.526 161.394C479.154 164.74 472.31 164.544 466.98 160.628C460.262 155.42 458.963 145.692 464.201 138.744C467.818 133.85 473.862 131.737 479.441 132.756Z" fill="#F2EFFF"/>
<rect x="416.086" y="53.173" width="156.027" height="235.064" rx="6.88073" transform="rotate(16.12 416.086 53.173)" stroke="#F2EFFF" stroke-width="2.04586"/>
</g>
</g>
<path d="M353.749 388.593C348.259 388.593 344.352 385.873 342.275 383.104C342.028 382.807 342.028 382.411 342.374 382.016L345.688 378.257C345.984 377.911 346.38 377.762 346.825 378.108C349.1 380.334 350.98 381.422 353.601 381.422C356.123 381.422 357.904 380.433 357.904 378.257C357.904 376.229 356.42 375.586 354.244 374.597L350.04 372.619C346.38 370.986 342.918 368.365 342.918 362.974C342.918 356.495 347.814 352.984 353.848 352.984C357.953 352.984 361.366 354.616 364.234 357.583C364.531 357.88 364.581 358.325 364.284 358.721L361.02 362.628C360.772 362.974 360.327 363.123 359.981 362.875C357.755 360.996 356.123 360.155 354.096 360.155C351.82 360.155 350.485 361.293 350.485 363.073C350.485 364.953 351.87 365.546 354.392 366.733L357.904 368.316C361.564 370.047 365.52 372.322 365.52 378.257C365.52 385.478 359.585 388.593 353.749 388.593ZM381.822 388.593C374.503 388.593 369.112 383.054 369.112 375.883C369.112 368.711 374.503 363.172 381.822 363.172C389.142 363.172 394.583 368.711 394.583 375.883C394.583 383.054 389.142 388.593 381.822 388.593ZM376.382 375.883C376.382 379.444 378.756 381.669 381.822 381.669C384.889 381.669 387.263 379.444 387.263 375.883C387.263 372.322 384.889 370.096 381.822 370.096C378.756 370.096 376.382 372.322 376.382 375.883ZM407.308 388.593C402.263 388.593 398.603 384.884 398.603 378.554V364.507C398.603 364.062 398.9 363.766 399.345 363.766H405.379C405.824 363.766 406.17 364.062 406.17 364.507V376.773C406.17 379.988 407.555 381.669 410.226 381.669C412.797 381.669 414.43 379.988 414.43 376.773V364.507C414.43 364.062 414.776 363.766 415.221 363.766H421.205C421.65 363.766 421.997 364.062 421.997 364.507V387.258C421.997 387.703 421.65 388 421.205 388H415.419C414.974 388 414.677 387.802 414.627 387.209L414.43 384.39C413.045 386.862 410.819 388.593 407.308 388.593ZM428.276 388C427.831 388 427.534 387.703 427.534 387.258V353.379C427.534 352.934 427.831 352.638 428.276 352.638H434.359C434.804 352.638 435.151 352.934 435.151 353.379V387.258C435.151 387.703 434.804 388 434.359 388H428.276ZM444.184 388.643C441.711 388.643 439.782 386.665 439.782 384.241C439.782 381.768 441.711 379.741 444.184 379.741C446.657 379.741 448.586 381.768 448.586 384.241C448.586 386.665 446.657 388.643 444.184 388.643Z" fill="#F2EFFF"/>
<defs>
<linearGradient id="paint0_linear_444_263" x1="395.5" y1="0" x2="395.5" y2="457" gradientUnits="userSpaceOnUse">
<stop stop-color="#3C2F4F"/>
<stop offset="1" stop-color="#080808"/>
</linearGradient>
<clipPath id="clip0_444_263">
<rect x="217.405" y="89.4834" width="166.74" height="246.485" rx="10.8675" transform="rotate(-14.65 217.405 89.4834)" fill="white"/>
</clipPath>
<clipPath id="clip1_444_263">
<rect x="412.68" y="47" width="166.74" height="246.485" rx="10.8675" transform="rotate(16.12 412.68 47)" fill="white"/>
</clipPath>
<clipPath id="clip2_444_263">
<rect x="412.963" y="46.0635" width="166.74" height="246.485" rx="10.8675" transform="rotate(16.12 412.963 46.0635)" fill="white"/>
</clipPath>
</defs>
</svg>
