<svg width="375" height="401" viewBox="0 0 375 401" fill="none" xmlns="http://www.w3.org/2000/svg">
<rect width="375" height="401" fill="url(#paint0_linear_453_643)"/>
<g clip-path="url(#clip0_453_643)">
<rect x="25.0347" y="117.697" width="151.879" height="224.517" rx="9.89898" transform="rotate(-14.65 25.0347 117.697)" fill="#7A60E2"/>
<circle cx="161.27" cy="95.9456" r="3.26117" transform="rotate(-14.65 161.27 95.9456)" fill="#F6F4F9"/>
<circle cx="211.382" cy="287.643" r="3.26117" transform="rotate(-14.65 211.382 287.643)" fill="#F6F4F9"/>
<circle cx="92.7773" cy="318.647" r="3.26117" transform="rotate(-14.65 92.7773 318.647)" fill="#F6F4F9"/>
<circle cx="42.6699" cy="126.953" r="3.26117" transform="rotate(-14.65 42.6699 126.953)" fill="#F6F4F9"/>
<path d="M55.833 123.598L148.684 99.3251" stroke="#F6F4F9" stroke-width="1.86353" stroke-linecap="round"/>
<path d="M106.548 314.043L199.4 289.77" stroke="#F6F4F9" stroke-width="1.86353" stroke-linecap="round"/>
<path d="M45.4419 138.832L89.0382 305.604" stroke="#F6F4F9" stroke-width="1.86353" stroke-linecap="round"/>
<path d="M164.721 107.65L208.553 275.324" stroke="#F6F4F9" stroke-width="1.86353" stroke-linecap="round"/>
<circle cx="136.894" cy="243.324" r="45.4138" transform="rotate(-14.65 136.894 243.324)" stroke="#F6F4F9" stroke-width="1.86281"/>
<circle cx="117.776" cy="170.189" r="45.4138" transform="rotate(-14.65 117.776 170.189)" stroke="#F6F4F9" stroke-width="1.86281"/>
<mask id="path-12-outside-1_453_643" maskUnits="userSpaceOnUse" x="72.4348" y="162.969" width="111.683" height="103.108" fill="black">
<rect fill="white" x="72.4348" y="162.969" width="111.683" height="103.108"/>
<path d="M92.4797 231.147C91.952 230.588 91.5733 229.905 91.3785 229.161L82.1465 193.845C82.0715 193.594 82.0576 193.328 82.1061 193.069C82.1546 192.811 82.264 192.568 82.4252 192.361C82.5864 192.154 82.7948 191.988 83.033 191.877C83.2712 191.766 83.5324 191.714 83.7948 191.725C85.4232 191.867 86.975 192.48 88.2609 193.489L95.0824 218.704C95.1905 218.595 95.2952 218.484 95.4108 218.382C96.2714 217.639 97.2045 216.985 98.1962 216.43L92.7266 196.212C93.7847 196.341 94.8029 196.695 95.7122 197.251C96.6216 197.807 97.401 198.551 97.9976 199.435C98.6637 200.674 99.1373 202.007 99.4022 203.388C99.5946 204.157 102.081 213.546 102.391 214.704C103.567 214.385 104.783 214.239 106.002 214.269L103.195 203.893C105.244 204.502 107.473 205.544 107.904 206.981L110.101 215.386C110.539 215.625 110.955 215.901 111.344 216.211C111.469 216.312 111.589 216.419 111.704 216.531L114.942 219.671L111.369 206.009C110.133 201.882 104.535 200.384 102.103 199.922C101.84 199.139 101.514 198.38 101.128 197.65C100.19 196.194 98.9255 194.977 97.4345 194.096C95.9436 193.215 94.2675 192.693 92.5397 192.573C90.7064 190.335 86.8833 188.094 83.7579 188.126C82.8207 188.101 81.8947 188.335 81.0819 188.803C80.2691 189.27 79.601 189.953 79.1511 190.775C78.4807 191.989 78.3061 193.416 78.6639 194.756L87.8959 230.072C88.2444 231.401 88.9218 232.622 89.8657 233.621L104.032 248.575C104.735 249.259 105.235 250.123 105.478 251.073L106.843 256.296C106.964 256.758 107.263 257.153 107.675 257.394C108.087 257.635 108.578 257.703 109.04 257.582C109.502 257.462 109.897 257.162 110.138 256.751C110.379 256.339 110.447 255.848 110.326 255.386L108.96 250.163C108.568 248.625 107.768 247.222 106.646 246.1L92.4797 231.147Z"/>
<path d="M109.118 219.012C105.665 216.162 99.9094 219.177 97.8153 220.99C97.4393 221.318 97.1361 221.722 96.925 222.175C96.714 222.627 96.5997 223.119 96.5895 223.618C96.5772 224.135 96.6729 224.649 96.8704 225.127C97.0678 225.604 97.3628 226.036 97.7364 226.393L107.474 235.664C107.82 235.993 108.282 236.17 108.758 236.158C109.235 236.146 109.687 235.945 110.016 235.6C110.345 235.255 110.523 234.794 110.512 234.317C110.501 233.84 110.302 233.388 109.957 233.058L100.22 223.787C100.184 223.753 100.196 223.696 100.171 223.71C101.882 222.229 105.482 220.791 106.779 221.75C106.779 221.75 118.472 233.285 118.512 233.319C119.286 233.966 119.838 234.838 120.092 235.814L124.256 251.744C124.377 252.206 124.676 252.601 125.088 252.842C125.5 253.083 125.991 253.151 126.453 253.03C126.915 252.91 127.31 252.61 127.551 252.199C127.792 251.787 127.86 251.296 127.739 250.834L123.574 234.904C123.135 233.225 122.191 231.722 120.869 230.598C120.869 230.598 109.159 219.046 109.118 219.012Z"/>
<path d="M159.873 169.674C159.078 169.176 158.162 168.908 157.224 168.898C156.287 168.888 155.365 169.137 154.559 169.618C151.818 171.119 149.581 174.944 149.078 177.794C147.629 178.744 146.423 180.019 145.554 181.517C144.685 183.015 144.178 184.696 144.072 186.424C144.093 187.249 144.18 188.071 144.333 188.882C142.439 190.475 138.29 194.521 139.232 198.726L142.803 212.388L144.089 208.065C144.135 207.911 144.188 207.759 144.247 207.61C144.435 207.149 144.662 206.704 144.927 206.282L142.73 197.877C142.402 196.413 143.836 194.413 145.325 192.88L147.955 203.302C149.003 202.679 150.135 202.212 151.317 201.914C151.02 200.753 148.594 191.348 148.386 190.583C147.941 189.249 147.701 187.855 147.676 186.448C147.764 185.386 148.079 184.355 148.6 183.425C149.121 182.495 149.835 181.688 150.695 181.058L155.82 201.366C156.956 201.366 158.09 201.479 159.204 201.705C159.355 201.738 159.501 201.784 159.648 201.826L153.257 176.498C153.885 174.989 154.938 173.695 156.288 172.774C156.512 172.636 156.765 172.554 157.027 172.534C157.289 172.514 157.552 172.557 157.794 172.659C158.036 172.761 158.251 172.919 158.419 173.12C158.588 173.322 158.706 173.56 158.764 173.817L167.996 209.133C168.19 209.876 168.194 210.657 168.007 211.403L162.971 231.376C162.541 232.903 162.53 234.519 162.941 236.052L164.306 241.275C164.427 241.737 164.726 242.132 165.138 242.373C165.55 242.614 166.041 242.682 166.503 242.561C166.964 242.44 167.359 242.141 167.601 241.729C167.842 241.317 167.909 240.826 167.789 240.364L166.423 235.141C166.17 234.194 166.184 233.195 166.462 232.255L171.498 212.282C171.832 210.948 171.825 209.552 171.478 208.222L162.246 172.906C161.903 171.563 161.052 170.404 159.873 169.674Z"/>
<path d="M160.739 206.849C160.485 206.418 160.145 206.046 159.74 205.754C159.334 205.463 158.872 205.259 158.383 205.156C155.67 204.601 149.175 204.788 147.559 208.963C147.539 209.013 142.981 224.818 142.981 224.818C142.379 226.445 142.291 228.218 142.729 229.896L146.893 245.827C147.014 246.289 147.313 246.684 147.725 246.925C148.137 247.166 148.628 247.234 149.09 247.113C149.551 246.992 149.946 246.693 150.188 246.281C150.429 245.869 150.496 245.378 150.376 244.916L146.211 228.986C145.955 228.011 146.01 226.98 146.368 226.037C146.387 225.988 150.939 210.206 150.939 210.206C151.6 208.735 155.444 208.228 157.66 208.682C157.632 208.682 157.67 208.726 157.655 208.772L153.701 221.623C153.562 222.079 153.609 222.572 153.833 222.993C154.057 223.414 154.438 223.729 154.894 223.869C155.349 224.009 155.842 223.962 156.263 223.74C156.685 223.517 157.001 223.136 157.142 222.681L161.097 209.83C161.247 209.336 161.294 208.815 161.232 208.302C161.17 207.788 161.002 207.294 160.739 206.849Z"/>
</mask>
<path d="M92.4797 231.147C91.952 230.588 91.5733 229.905 91.3785 229.161L82.1465 193.845C82.0715 193.594 82.0576 193.328 82.1061 193.069C82.1546 192.811 82.264 192.568 82.4252 192.361C82.5864 192.154 82.7948 191.988 83.033 191.877C83.2712 191.766 83.5324 191.714 83.7948 191.725C85.4232 191.867 86.975 192.48 88.2609 193.489L95.0824 218.704C95.1905 218.595 95.2952 218.484 95.4108 218.382C96.2714 217.639 97.2045 216.985 98.1962 216.43L92.7266 196.212C93.7847 196.341 94.8029 196.695 95.7122 197.251C96.6216 197.807 97.401 198.551 97.9976 199.435C98.6637 200.674 99.1373 202.007 99.4022 203.388C99.5946 204.157 102.081 213.546 102.391 214.704C103.567 214.385 104.783 214.239 106.002 214.269L103.195 203.893C105.244 204.502 107.473 205.544 107.904 206.981L110.101 215.386C110.539 215.625 110.955 215.901 111.344 216.211C111.469 216.312 111.589 216.419 111.704 216.531L114.942 219.671L111.369 206.009C110.133 201.882 104.535 200.384 102.103 199.922C101.84 199.139 101.514 198.38 101.128 197.65C100.19 196.194 98.9255 194.977 97.4345 194.096C95.9436 193.215 94.2675 192.693 92.5397 192.573C90.7064 190.335 86.8833 188.094 83.7579 188.126C82.8207 188.101 81.8947 188.335 81.0819 188.803C80.2691 189.27 79.601 189.953 79.1511 190.775C78.4807 191.989 78.3061 193.416 78.6639 194.756L87.8959 230.072C88.2444 231.401 88.9218 232.622 89.8657 233.621L104.032 248.575C104.735 249.259 105.235 250.123 105.478 251.073L106.843 256.296C106.964 256.758 107.263 257.153 107.675 257.394C108.087 257.635 108.578 257.703 109.04 257.582C109.502 257.462 109.897 257.162 110.138 256.751C110.379 256.339 110.447 255.848 110.326 255.386L108.96 250.163C108.568 248.625 107.768 247.222 106.646 246.1L92.4797 231.147Z" fill="#7A60E2"/>
<path d="M109.118 219.012C105.665 216.162 99.9094 219.177 97.8153 220.99C97.4393 221.318 97.1361 221.722 96.925 222.175C96.714 222.627 96.5997 223.119 96.5895 223.618C96.5772 224.135 96.6729 224.649 96.8704 225.127C97.0678 225.604 97.3628 226.036 97.7364 226.393L107.474 235.664C107.82 235.993 108.282 236.17 108.758 236.158C109.235 236.146 109.687 235.945 110.016 235.6C110.345 235.255 110.523 234.794 110.512 234.317C110.501 233.84 110.302 233.388 109.957 233.058L100.22 223.787C100.184 223.753 100.196 223.696 100.171 223.71C101.882 222.229 105.482 220.791 106.779 221.75C106.779 221.75 118.472 233.285 118.512 233.319C119.286 233.966 119.838 234.838 120.092 235.814L124.256 251.744C124.377 252.206 124.676 252.601 125.088 252.842C125.5 253.083 125.991 253.151 126.453 253.03C126.915 252.91 127.31 252.61 127.551 252.199C127.792 251.787 127.86 251.296 127.739 250.834L123.574 234.904C123.135 233.225 122.191 231.722 120.869 230.598C120.869 230.598 109.159 219.046 109.118 219.012Z" fill="#7A60E2"/>
<path d="M159.873 169.674C159.078 169.176 158.162 168.908 157.224 168.898C156.287 168.888 155.365 169.137 154.559 169.618C151.818 171.119 149.581 174.944 149.078 177.794C147.629 178.744 146.423 180.019 145.554 181.517C144.685 183.015 144.178 184.696 144.072 186.424C144.093 187.249 144.18 188.071 144.333 188.882C142.439 190.475 138.29 194.521 139.232 198.726L142.803 212.388L144.089 208.065C144.135 207.911 144.188 207.759 144.247 207.61C144.435 207.149 144.662 206.704 144.927 206.282L142.73 197.877C142.402 196.413 143.836 194.413 145.325 192.88L147.955 203.302C149.003 202.679 150.135 202.212 151.317 201.914C151.02 200.753 148.594 191.348 148.386 190.583C147.941 189.249 147.701 187.855 147.676 186.448C147.764 185.386 148.079 184.355 148.6 183.425C149.121 182.495 149.835 181.688 150.695 181.058L155.82 201.366C156.956 201.366 158.09 201.479 159.204 201.705C159.355 201.738 159.501 201.784 159.648 201.826L153.257 176.498C153.885 174.989 154.938 173.695 156.288 172.774C156.512 172.636 156.765 172.554 157.027 172.534C157.289 172.514 157.552 172.557 157.794 172.659C158.036 172.761 158.251 172.919 158.419 173.12C158.588 173.322 158.706 173.56 158.764 173.817L167.996 209.133C168.19 209.876 168.194 210.657 168.007 211.403L162.971 231.376C162.541 232.903 162.53 234.519 162.941 236.052L164.306 241.275C164.427 241.737 164.726 242.132 165.138 242.373C165.55 242.614 166.041 242.682 166.503 242.561C166.964 242.44 167.359 242.141 167.601 241.729C167.842 241.317 167.909 240.826 167.789 240.364L166.423 235.141C166.17 234.194 166.184 233.195 166.462 232.255L171.498 212.282C171.832 210.948 171.825 209.552 171.478 208.222L162.246 172.906C161.903 171.563 161.052 170.404 159.873 169.674Z" fill="#7A60E2"/>
<path d="M160.739 206.849C160.485 206.418 160.145 206.046 159.74 205.754C159.334 205.463 158.872 205.259 158.383 205.156C155.67 204.601 149.175 204.788 147.559 208.963C147.539 209.013 142.981 224.818 142.981 224.818C142.379 226.445 142.291 228.218 142.729 229.896L146.893 245.827C147.014 246.289 147.313 246.684 147.725 246.925C148.137 247.166 148.628 247.234 149.09 247.113C149.551 246.992 149.946 246.693 150.188 246.281C150.429 245.869 150.496 245.378 150.376 244.916L146.211 228.986C145.955 228.011 146.01 226.98 146.368 226.037C146.387 225.988 150.939 210.206 150.939 210.206C151.6 208.735 155.444 208.228 157.66 208.682C157.632 208.682 157.67 208.726 157.655 208.772L153.701 221.623C153.562 222.079 153.609 222.572 153.833 222.993C154.057 223.414 154.438 223.729 154.894 223.869C155.349 224.009 155.842 223.962 156.263 223.74C156.685 223.517 157.001 223.136 157.142 222.681L161.097 209.83C161.247 209.336 161.294 208.815 161.232 208.302C161.17 207.788 161.002 207.294 160.739 206.849Z" fill="#7A60E2"/>
<path d="M92.4797 231.147C91.952 230.588 91.5733 229.905 91.3785 229.161L82.1465 193.845C82.0715 193.594 82.0576 193.328 82.1061 193.069C82.1546 192.811 82.264 192.568 82.4252 192.361C82.5864 192.154 82.7948 191.988 83.033 191.877C83.2712 191.766 83.5324 191.714 83.7948 191.725C85.4232 191.867 86.975 192.48 88.2609 193.489L95.0824 218.704C95.1905 218.595 95.2952 218.484 95.4108 218.382C96.2714 217.639 97.2045 216.985 98.1962 216.43L92.7266 196.212C93.7847 196.341 94.8029 196.695 95.7122 197.251C96.6216 197.807 97.401 198.551 97.9976 199.435C98.6637 200.674 99.1373 202.007 99.4022 203.388C99.5946 204.157 102.081 213.546 102.391 214.704C103.567 214.385 104.783 214.239 106.002 214.269L103.195 203.893C105.244 204.502 107.473 205.544 107.904 206.981L110.101 215.386C110.539 215.625 110.955 215.901 111.344 216.211C111.469 216.312 111.589 216.419 111.704 216.531L114.942 219.671L111.369 206.009C110.133 201.882 104.535 200.384 102.103 199.922C101.84 199.139 101.514 198.38 101.128 197.65C100.19 196.194 98.9255 194.977 97.4345 194.096C95.9436 193.215 94.2675 192.693 92.5397 192.573C90.7064 190.335 86.8833 188.094 83.7579 188.126C82.8207 188.101 81.8947 188.335 81.0819 188.803C80.2691 189.27 79.601 189.953 79.1511 190.775C78.4807 191.989 78.3061 193.416 78.6639 194.756L87.8959 230.072C88.2444 231.401 88.9218 232.622 89.8657 233.621L104.032 248.575C104.735 249.259 105.235 250.123 105.478 251.073L106.843 256.296C106.964 256.758 107.263 257.153 107.675 257.394C108.087 257.635 108.578 257.703 109.04 257.582C109.502 257.462 109.897 257.162 110.138 256.751C110.379 256.339 110.447 255.848 110.326 255.386L108.96 250.163C108.568 248.625 107.768 247.222 106.646 246.1L92.4797 231.147Z" stroke="#7A60E2" stroke-width="7.19926" mask="url(#path-12-outside-1_453_643)"/>
<path d="M109.118 219.012C105.665 216.162 99.9094 219.177 97.8153 220.99C97.4393 221.318 97.1361 221.722 96.925 222.175C96.714 222.627 96.5997 223.119 96.5895 223.618C96.5772 224.135 96.6729 224.649 96.8704 225.127C97.0678 225.604 97.3628 226.036 97.7364 226.393L107.474 235.664C107.82 235.993 108.282 236.17 108.758 236.158C109.235 236.146 109.687 235.945 110.016 235.6C110.345 235.255 110.523 234.794 110.512 234.317C110.501 233.84 110.302 233.388 109.957 233.058L100.22 223.787C100.184 223.753 100.196 223.696 100.171 223.71C101.882 222.229 105.482 220.791 106.779 221.75C106.779 221.75 118.472 233.285 118.512 233.319C119.286 233.966 119.838 234.838 120.092 235.814L124.256 251.744C124.377 252.206 124.676 252.601 125.088 252.842C125.5 253.083 125.991 253.151 126.453 253.03C126.915 252.91 127.31 252.61 127.551 252.199C127.792 251.787 127.86 251.296 127.739 250.834L123.574 234.904C123.135 233.225 122.191 231.722 120.869 230.598C120.869 230.598 109.159 219.046 109.118 219.012Z" stroke="#7A60E2" stroke-width="7.19926" mask="url(#path-12-outside-1_453_643)"/>
<path d="M159.873 169.674C159.078 169.176 158.162 168.908 157.224 168.898C156.287 168.888 155.365 169.137 154.559 169.618C151.818 171.119 149.581 174.944 149.078 177.794C147.629 178.744 146.423 180.019 145.554 181.517C144.685 183.015 144.178 184.696 144.072 186.424C144.093 187.249 144.18 188.071 144.333 188.882C142.439 190.475 138.29 194.521 139.232 198.726L142.803 212.388L144.089 208.065C144.135 207.911 144.188 207.759 144.247 207.61C144.435 207.149 144.662 206.704 144.927 206.282L142.73 197.877C142.402 196.413 143.836 194.413 145.325 192.88L147.955 203.302C149.003 202.679 150.135 202.212 151.317 201.914C151.02 200.753 148.594 191.348 148.386 190.583C147.941 189.249 147.701 187.855 147.676 186.448C147.764 185.386 148.079 184.355 148.6 183.425C149.121 182.495 149.835 181.688 150.695 181.058L155.82 201.366C156.956 201.366 158.09 201.479 159.204 201.705C159.355 201.738 159.501 201.784 159.648 201.826L153.257 176.498C153.885 174.989 154.938 173.695 156.288 172.774C156.512 172.636 156.765 172.554 157.027 172.534C157.289 172.514 157.552 172.557 157.794 172.659C158.036 172.761 158.251 172.919 158.419 173.12C158.588 173.322 158.706 173.56 158.764 173.817L167.996 209.133C168.19 209.876 168.194 210.657 168.007 211.403L162.971 231.376C162.541 232.903 162.53 234.519 162.941 236.052L164.306 241.275C164.427 241.737 164.726 242.132 165.138 242.373C165.55 242.614 166.041 242.682 166.503 242.561C166.964 242.44 167.359 242.141 167.601 241.729C167.842 241.317 167.909 240.826 167.789 240.364L166.423 235.141C166.17 234.194 166.184 233.195 166.462 232.255L171.498 212.282C171.832 210.948 171.825 209.552 171.478 208.222L162.246 172.906C161.903 171.563 161.052 170.404 159.873 169.674Z" stroke="#7A60E2" stroke-width="7.19926" mask="url(#path-12-outside-1_453_643)"/>
<path d="M160.739 206.849C160.485 206.418 160.145 206.046 159.74 205.754C159.334 205.463 158.872 205.259 158.383 205.156C155.67 204.601 149.175 204.788 147.559 208.963C147.539 209.013 142.981 224.818 142.981 224.818C142.379 226.445 142.291 228.218 142.729 229.896L146.893 245.827C147.014 246.289 147.313 246.684 147.725 246.925C148.137 247.166 148.628 247.234 149.09 247.113C149.551 246.992 149.946 246.693 150.188 246.281C150.429 245.869 150.496 245.378 150.376 244.916L146.211 228.986C145.955 228.011 146.01 226.98 146.368 226.037C146.387 225.988 150.939 210.206 150.939 210.206C151.6 208.735 155.444 208.228 157.66 208.682C157.632 208.682 157.67 208.726 157.655 208.772L153.701 221.623C153.562 222.079 153.609 222.572 153.833 222.993C154.057 223.414 154.438 223.729 154.894 223.869C155.349 224.009 155.842 223.962 156.263 223.74C156.685 223.517 157.001 223.136 157.142 222.681L161.097 209.83C161.247 209.336 161.294 208.815 161.232 208.302C161.17 207.788 161.002 207.294 160.739 206.849Z" stroke="#7A60E2" stroke-width="7.19926" mask="url(#path-12-outside-1_453_643)"/>
<path d="M115.008 154.007L112.18 149.884L111.732 154.863L111.301 159.64L111.254 160.17L110.706 159.907L106.382 157.835L101.878 155.678L103.97 160.212L105.979 164.569L106.204 165.056L105.596 165.103L100.811 165.473L95.8157 165.859L99.9148 168.74L103.838 171.497L104.271 171.801L103.762 172.151L99.8075 174.863L95.6848 177.692L100.664 178.14L105.441 178.571L105.97 178.618L105.708 179.166L103.636 183.49L101.478 187.994L106.013 185.902L110.369 183.893L110.856 183.668L110.903 184.276L111.273 189.061L111.659 194.056L114.54 189.957L117.298 186.034L117.602 185.6L117.951 186.11L120.664 190.064L123.492 194.187L123.941 189.208L124.371 184.431L124.419 183.902L124.966 184.164L129.291 186.236L133.795 188.394L131.703 183.859L129.694 179.502L129.469 179.015L130.077 178.969L134.862 178.599L139.857 178.213L135.758 175.332L131.834 172.574L131.401 172.27L131.91 171.921L135.865 169.208L139.988 166.38L135.008 165.931L130.232 165.501L129.702 165.453L129.964 164.906L132.036 160.581L134.194 156.077L129.659 158.169L125.303 160.178L124.816 160.403L124.769 159.795L124.399 155.01L124.013 150.015L121.132 154.114L118.375 158.038L118.07 158.471L117.721 157.962L115.008 154.007ZM111.72 161.359L111.686 161L112.027 161.251L113.315 162.199C112.811 162.429 112.331 162.696 111.877 162.995L111.72 161.359ZM107.415 165.604L109.002 165.78C108.686 166.227 108.403 166.698 108.157 167.188L107.198 165.849L106.988 165.556L107.415 165.604ZM105.594 171.674L107.055 171.035C107.005 171.576 106.995 172.124 107.029 172.677L105.523 171.995L105.196 171.847L105.594 171.674ZM107.052 177.845L107.999 176.557C108.23 177.061 108.497 177.541 108.796 177.995L107.159 178.152L106.801 178.186L107.052 177.845ZM111.404 182.457L111.58 180.87C112.028 181.186 112.499 181.469 112.989 181.714L111.65 182.674L111.357 182.884L111.404 182.457ZM117.474 184.278L116.836 182.817C117.377 182.867 117.925 182.877 118.478 182.843L117.796 184.349L117.648 184.676L117.474 184.278ZM123.645 182.82L122.358 181.873C122.862 181.642 123.342 181.375 123.795 181.076L123.952 182.712L123.987 183.071L123.645 182.82ZM128.257 178.467L126.67 178.292C126.987 177.844 127.269 177.373 127.515 176.883L128.475 178.222L128.684 178.515L128.257 178.467ZM130.079 172.397L128.618 173.036C128.668 172.495 128.677 171.947 128.644 171.394L130.15 172.076L130.476 172.224L130.079 172.397ZM128.621 166.227L127.673 167.514C127.442 167.01 127.175 166.53 126.876 166.077L128.513 165.92L128.872 165.885L128.621 166.227ZM124.268 161.614L124.092 163.202C123.645 162.885 123.174 162.602 122.684 162.357L124.023 161.397L124.315 161.187L124.268 161.614ZM118.837 161.254C118.296 161.204 117.747 161.195 117.195 161.228L117.877 159.722L118.025 159.396L118.198 159.793L118.837 161.254Z" fill="#7A60E2" stroke="#7A60E2" stroke-width="3.59963"/>
<path d="M92.4797 231.147C91.952 230.588 91.5733 229.905 91.3785 229.161L82.1465 193.845C82.0715 193.594 82.0576 193.328 82.1061 193.069C82.1546 192.811 82.264 192.568 82.4252 192.361C82.5864 192.154 82.7948 191.988 83.033 191.877C83.2712 191.766 83.5324 191.714 83.7948 191.725C85.4232 191.867 86.975 192.48 88.2609 193.489L95.0824 218.704C95.1905 218.595 95.2952 218.484 95.4108 218.382C96.2714 217.639 97.2045 216.985 98.1962 216.43L92.7266 196.212C93.7847 196.341 94.8029 196.695 95.7122 197.251C96.6216 197.807 97.401 198.551 97.9976 199.435C98.6637 200.674 99.1373 202.007 99.4022 203.388C99.5946 204.157 102.081 213.546 102.391 214.704C103.567 214.385 104.783 214.239 106.002 214.269L103.195 203.893C105.244 204.502 107.473 205.544 107.904 206.981L110.101 215.386C110.539 215.625 110.955 215.901 111.344 216.211C111.469 216.312 111.589 216.419 111.704 216.531L114.942 219.671L111.369 206.009C110.133 201.882 104.535 200.384 102.103 199.922C101.84 199.139 101.514 198.38 101.128 197.65C100.19 196.194 98.9255 194.977 97.4345 194.096C95.9436 193.215 94.2675 192.693 92.5397 192.573C90.7064 190.335 86.8833 188.094 83.7579 188.126C82.8207 188.101 81.8947 188.335 81.0819 188.803C80.2691 189.27 79.601 189.953 79.1511 190.775C78.4807 191.989 78.3061 193.416 78.6639 194.756L87.8959 230.072C88.2444 231.401 88.9218 232.622 89.8657 233.621L104.032 248.575C104.735 249.259 105.235 250.123 105.478 251.073L106.843 256.296C106.964 256.758 107.263 257.153 107.675 257.394C108.087 257.635 108.578 257.703 109.04 257.582C109.502 257.462 109.897 257.162 110.138 256.751C110.379 256.339 110.447 255.848 110.326 255.386L108.96 250.163C108.568 248.625 107.768 247.222 106.646 246.1L92.4797 231.147Z" fill="#F6F4F9"/>
<path d="M109.118 219.012C105.665 216.162 99.9094 219.177 97.8153 220.99C97.4393 221.318 97.1361 221.722 96.925 222.175C96.714 222.627 96.5997 223.119 96.5895 223.618C96.5772 224.135 96.6729 224.649 96.8704 225.127C97.0678 225.604 97.3628 226.036 97.7364 226.393L107.474 235.664C107.82 235.993 108.282 236.17 108.758 236.158C109.235 236.146 109.687 235.945 110.016 235.6C110.345 235.255 110.523 234.794 110.512 234.317C110.501 233.84 110.302 233.388 109.957 233.058L100.22 223.787C100.184 223.753 100.196 223.696 100.171 223.71C101.882 222.229 105.482 220.791 106.779 221.75C106.779 221.75 118.472 233.285 118.512 233.319C119.286 233.966 119.838 234.838 120.092 235.814L124.256 251.744C124.377 252.206 124.676 252.601 125.088 252.842C125.5 253.083 125.991 253.151 126.453 253.03C126.915 252.91 127.31 252.61 127.551 252.199C127.792 251.787 127.86 251.296 127.739 250.834L123.574 234.904C123.135 233.225 122.191 231.722 120.869 230.598C120.869 230.598 109.159 219.046 109.118 219.012Z" fill="#F6F4F9"/>
<path d="M159.873 169.674C159.078 169.176 158.162 168.908 157.224 168.898C156.287 168.888 155.365 169.137 154.559 169.618C151.818 171.119 149.581 174.944 149.078 177.794C147.629 178.744 146.423 180.019 145.554 181.517C144.685 183.015 144.178 184.696 144.072 186.424C144.093 187.249 144.18 188.071 144.333 188.882C142.439 190.475 138.29 194.521 139.232 198.726L142.803 212.388L144.089 208.065C144.135 207.911 144.188 207.759 144.247 207.61C144.435 207.149 144.662 206.704 144.927 206.282L142.73 197.877C142.402 196.413 143.836 194.413 145.325 192.88L147.955 203.302C149.003 202.679 150.135 202.212 151.317 201.914C151.02 200.753 148.594 191.348 148.386 190.583C147.941 189.249 147.701 187.855 147.676 186.448C147.764 185.386 148.079 184.355 148.6 183.425C149.121 182.495 149.835 181.688 150.695 181.058L155.82 201.366C156.956 201.366 158.09 201.479 159.204 201.705C159.355 201.738 159.501 201.784 159.648 201.826L153.257 176.498C153.885 174.989 154.938 173.695 156.288 172.774C156.512 172.636 156.765 172.554 157.027 172.534C157.289 172.514 157.552 172.557 157.794 172.659C158.036 172.761 158.251 172.919 158.419 173.12C158.588 173.322 158.706 173.56 158.764 173.817L167.996 209.133C168.19 209.876 168.194 210.657 168.007 211.403L162.971 231.376C162.541 232.903 162.53 234.519 162.941 236.052L164.306 241.275C164.427 241.737 164.726 242.132 165.138 242.373C165.55 242.614 166.041 242.682 166.503 242.561C166.964 242.44 167.359 242.141 167.601 241.729C167.842 241.317 167.909 240.826 167.789 240.364L166.423 235.141C166.17 234.194 166.184 233.195 166.462 232.255L171.498 212.282C171.832 210.948 171.825 209.552 171.478 208.222L162.246 172.906C161.903 171.563 161.052 170.404 159.873 169.674Z" fill="#F6F4F9"/>
<path d="M160.739 206.849C160.485 206.418 160.145 206.046 159.74 205.754C159.334 205.463 158.872 205.259 158.383 205.156C155.67 204.601 149.175 204.788 147.559 208.963C147.539 209.013 142.981 224.818 142.981 224.818C142.379 226.445 142.291 228.218 142.729 229.896L146.893 245.827C147.014 246.289 147.313 246.684 147.725 246.925C148.137 247.166 148.628 247.234 149.09 247.113C149.551 246.992 149.946 246.693 150.188 246.281C150.429 245.869 150.496 245.378 150.376 244.916L146.211 228.986C145.955 228.011 146.01 226.98 146.368 226.037C146.387 225.988 150.939 210.206 150.939 210.206C151.6 208.735 155.444 208.228 157.66 208.682C157.632 208.682 157.67 208.726 157.655 208.772L153.701 221.623C153.562 222.079 153.609 222.572 153.833 222.993C154.057 223.414 154.438 223.729 154.894 223.869C155.349 224.009 155.842 223.962 156.263 223.74C156.685 223.517 157.001 223.136 157.142 222.681L161.097 209.83C161.247 209.336 161.294 208.815 161.232 208.302C161.17 207.788 161.002 207.294 160.739 206.849Z" fill="#F6F4F9"/>
<path d="M112.419 150.662L111.878 156.663L114.49 158.585L115.827 155.631L112.419 150.662Z" fill="#F6F4F9"/>
<path d="M102.467 156.232L104.992 161.706L108.211 162.062L107.901 158.835L102.467 156.232Z" fill="#F6F4F9"/>
<path d="M96.6198 166.043L101.549 169.507L104.518 168.21L102.632 165.578L96.6198 166.043Z" fill="#F6F4F9"/>
<path d="M96.464 177.452L102.465 177.993L104.387 175.381L101.433 174.043L96.464 177.452Z" fill="#F6F4F9"/>
<path d="M102.034 187.403L107.508 184.878L107.864 181.66L104.638 181.969L102.034 187.403Z" fill="#F6F4F9"/>
<path d="M111.845 193.251L115.309 188.321L114.013 185.353L111.38 187.239L111.845 193.251Z" fill="#F6F4F9"/>
<path d="M123.254 193.406L123.795 187.405L121.183 185.483L119.846 188.438L123.254 193.406Z" fill="#F6F4F9"/>
<path d="M133.205 187.836L130.681 182.363L127.462 182.006L127.772 185.233L133.205 187.836Z" fill="#F6F4F9"/>
<path d="M139.053 178.025L134.123 174.561L131.155 175.858L133.041 178.49L139.053 178.025Z" fill="#F6F4F9"/>
<path d="M139.209 166.616L133.207 166.076L131.286 168.687L134.24 170.025L139.209 166.616Z" fill="#F6F4F9"/>
<path d="M133.638 156.665L128.165 159.19L127.808 162.408L131.035 162.099L133.638 156.665Z" fill="#F6F4F9"/>
<path d="M123.828 150.818L120.363 155.747L121.66 158.716L124.292 156.829L123.828 150.818Z" fill="#F6F4F9"/>
<path d="M120.704 183.004C126.763 181.42 130.39 175.225 128.806 169.166C127.223 163.108 121.027 159.48 114.969 161.064C108.91 162.648 105.282 168.843 106.866 174.902C108.45 180.96 114.645 184.588 120.704 183.004Z" fill="#F6F4F9"/>
<rect x="31.0634" y="121.23" width="142.122" height="214.114" rx="6.2675" transform="rotate(-14.65 31.0634 121.23)" stroke="#F6F4F9" stroke-width="1.86353"/>
</g>
<g clip-path="url(#clip1_453_643)">
<g clip-path="url(#clip2_453_643)">
<rect x="203.556" y="78.2207" width="151.879" height="224.517" rx="9.89898" transform="rotate(16.12 203.556 78.2207)" fill="#2A2731"/>
<circle cx="331.822" cy="129.253" r="3.26117" transform="rotate(16.12 331.822 129.253)" fill="#F2EFFF"/>
<circle cx="277.066" cy="318.714" r="3.26117" transform="rotate(16.12 277.066 318.714)" fill="#F2EFFF"/>
<circle cx="159.213" cy="284.654" r="3.26117" transform="rotate(16.12 159.213 284.654)" fill="#F2EFFF"/>
<circle cx="213.973" cy="95.1966" r="3.26117" transform="rotate(16.12 213.973 95.1966)" fill="#F2EFFF"/>
<path d="M226.608 98.9355L318.806 125.582" stroke="#F2EFFF" stroke-width="1.86353" stroke-linecap="round"/>
<path d="M172.753 288.516L264.952 315.162" stroke="#F2EFFF" stroke-width="1.86353" stroke-linecap="round"/>
<path d="M210.142 107.291L162.282 272.89" stroke="#F2EFFF" stroke-width="1.86353" stroke-linecap="round"/>
<path d="M328.582 141.521L280.463 308.015" stroke="#F2EFFF" stroke-width="1.86353" stroke-linecap="round"/>
<circle cx="235.006" cy="243.276" r="45.4138" transform="rotate(16.12 235.006 243.276)" stroke="#F2EFFF" stroke-width="1.86281"/>
<circle cx="255.994" cy="170.656" r="45.4138" transform="rotate(16.12 255.994 170.656)" stroke="#F2EFFF" stroke-width="1.86281"/>
<mask id="path-29-outside-2_453_643" maskUnits="userSpaceOnUse" x="186.568" y="161.905" width="113.071" height="104.875" fill="black">
<rect fill="white" x="186.568" y="161.905" width="113.071" height="104.875"/>
<path d="M278.462 231.879C279.004 231.334 279.4 230.661 279.614 229.922L289.749 194.855C289.831 194.605 289.851 194.34 289.809 194.08C289.768 193.821 289.664 193.575 289.509 193.364C289.353 193.152 289.149 192.981 288.913 192.864C288.678 192.748 288.418 192.689 288.156 192.693C286.524 192.793 284.957 193.366 283.646 194.342L276.18 219.373C276.075 219.262 275.973 219.148 275.86 219.043C275.019 218.279 274.102 217.601 273.125 217.02L279.112 196.949C278.051 197.051 277.024 197.379 276.101 197.911C275.177 198.444 274.379 199.168 273.76 200.036C273.062 201.257 272.555 202.578 272.254 203.952C272.042 204.716 269.316 214.037 268.977 215.188C267.809 214.838 266.597 214.661 265.378 214.66L268.45 204.359C266.386 204.915 264.131 205.9 263.663 207.325L261.251 215.671C260.808 215.899 260.385 216.164 259.987 216.464C259.86 216.562 259.737 216.665 259.619 216.774L256.302 219.831L260.224 206.265C261.565 202.17 267.2 200.817 269.643 200.417C269.926 199.642 270.272 198.891 270.676 198.172C271.651 196.74 272.947 195.556 274.46 194.713C275.973 193.87 277.662 193.392 279.392 193.317C281.282 191.126 285.162 188.984 288.285 189.096C289.223 189.095 290.142 189.353 290.943 189.841C291.743 190.329 292.394 191.029 292.822 191.863C293.461 193.093 293.599 194.524 293.207 195.854L283.072 230.922C282.69 232.242 281.981 233.445 281.012 234.42L266.467 249.005C265.747 249.671 265.225 250.522 264.957 251.465L263.458 256.652C263.326 257.11 263.017 257.497 262.599 257.728C262.181 257.958 261.688 258.014 261.23 257.881C260.771 257.748 260.384 257.439 260.153 257.021C259.923 256.603 259.868 256.111 260 255.652L261.499 250.466C261.931 248.939 262.766 247.556 263.917 246.464L278.462 231.879Z"/>
<path d="M262.141 219.321C265.666 216.561 271.342 219.723 273.389 221.588C273.757 221.926 274.049 222.338 274.249 222.796C274.448 223.254 274.55 223.748 274.547 224.247C274.546 224.764 274.437 225.276 274.228 225.748C274.018 226.221 273.712 226.644 273.329 226.992L263.357 236.01C263.003 236.33 262.537 236.495 262.061 236.471C261.585 236.447 261.138 236.234 260.818 235.881C260.498 235.528 260.331 235.062 260.354 234.586C260.378 234.109 260.589 233.662 260.941 233.341L270.914 224.323C270.951 224.29 270.94 224.233 270.964 224.247C269.292 222.723 265.731 221.193 264.409 222.119C264.409 222.119 252.424 233.35 252.383 233.382C251.593 234.009 251.019 234.867 250.74 235.836L246.168 251.654C246.035 252.113 245.726 252.5 245.308 252.731C244.89 252.961 244.398 253.016 243.939 252.884C243.481 252.751 243.093 252.442 242.863 252.024C242.632 251.606 242.577 251.114 242.71 250.655L247.282 234.837C247.764 233.17 248.746 231.692 250.096 230.602C250.096 230.602 262.099 219.354 262.141 219.321Z"/>
<path d="M212.668 168.697C213.475 168.22 214.399 167.976 215.336 167.99C216.274 168.004 217.189 168.277 217.982 168.778C220.683 170.349 222.822 174.23 223.252 177.091C224.675 178.078 225.849 179.384 226.679 180.904C227.509 182.424 227.973 184.117 228.034 185.848C227.992 186.672 227.884 187.491 227.71 188.298C229.563 189.939 233.607 194.09 232.557 198.269L228.637 211.835L227.462 207.481C227.42 207.326 227.372 207.173 227.316 207.022C227.14 206.556 226.924 206.106 226.67 205.677L229.082 197.331C229.447 195.876 228.065 193.84 226.616 192.269L223.72 202.62C222.688 201.971 221.568 201.474 220.394 201.147C220.721 199.993 223.387 190.654 223.615 189.895C224.095 188.572 224.37 187.184 224.431 185.779C224.37 184.715 224.082 183.676 223.585 182.733C223.088 181.79 222.394 180.965 221.551 180.314L215.907 200.483C214.771 200.453 213.635 200.538 212.515 200.736C212.364 200.764 212.217 200.806 212.068 200.844L219.107 175.689C218.518 174.164 217.499 172.844 216.172 171.889C215.952 171.745 215.701 171.656 215.44 171.63C215.178 171.603 214.914 171.639 214.67 171.735C214.425 171.83 214.207 171.983 214.033 172.18C213.86 172.377 213.735 172.613 213.671 172.867L203.536 207.935C203.323 208.673 203.299 209.454 203.467 210.204L207.988 230.299C208.379 231.838 208.348 233.453 207.899 234.975L206.4 240.161C206.267 240.619 205.958 241.007 205.54 241.237C205.122 241.468 204.63 241.523 204.171 241.39C203.712 241.258 203.325 240.948 203.095 240.53C202.864 240.112 202.809 239.62 202.942 239.161L204.441 233.975C204.718 233.035 204.73 232.036 204.476 231.089L199.954 210.993C199.655 209.651 199.697 208.256 200.078 206.935L210.213 171.868C210.591 170.533 211.471 169.397 212.668 168.697Z"/>
<path d="M210.849 205.838C211.113 205.414 211.463 205.05 211.876 204.769C212.289 204.488 212.756 204.297 213.247 204.206C215.974 203.72 222.462 204.074 223.97 208.289C223.989 208.34 228.14 224.256 228.14 224.256C228.701 225.898 228.743 227.673 228.262 229.34L223.69 245.158C223.558 245.617 223.248 246.004 222.831 246.234C222.413 246.465 221.92 246.52 221.462 246.387C221.003 246.255 220.616 245.946 220.385 245.528C220.155 245.11 220.1 244.617 220.232 244.159L224.804 228.34C225.085 227.372 225.057 226.34 224.723 225.388C224.705 225.338 220.56 209.446 220.56 209.446C219.936 207.957 216.107 207.352 213.88 207.749C213.908 207.75 213.868 207.793 213.882 207.84L217.506 220.788C217.633 221.247 217.573 221.738 217.339 222.153C217.104 222.569 216.715 222.874 216.256 223.002C215.797 223.13 215.305 223.071 214.89 222.838C214.474 222.604 214.168 222.216 214.039 221.757L210.415 208.809C210.277 208.311 210.244 207.789 210.319 207.278C210.394 206.766 210.574 206.276 210.849 205.838Z"/>
</mask>
<path d="M278.462 231.879C279.004 231.334 279.4 230.661 279.614 229.922L289.749 194.855C289.831 194.605 289.851 194.34 289.809 194.08C289.768 193.821 289.664 193.575 289.509 193.364C289.353 193.152 289.149 192.981 288.913 192.864C288.678 192.748 288.418 192.689 288.156 192.693C286.524 192.793 284.957 193.366 283.646 194.342L276.18 219.373C276.075 219.262 275.973 219.148 275.86 219.043C275.019 218.279 274.102 217.601 273.125 217.02L279.112 196.949C278.051 197.051 277.024 197.379 276.101 197.911C275.177 198.444 274.379 199.168 273.76 200.036C273.062 201.257 272.555 202.578 272.254 203.952C272.042 204.716 269.316 214.037 268.977 215.188C267.809 214.838 266.597 214.661 265.378 214.66L268.45 204.359C266.386 204.915 264.131 205.9 263.663 207.325L261.251 215.671C260.808 215.899 260.385 216.164 259.987 216.464C259.86 216.562 259.737 216.665 259.619 216.774L256.302 219.831L260.224 206.265C261.565 202.17 267.2 200.817 269.643 200.417C269.926 199.642 270.272 198.891 270.676 198.172C271.651 196.74 272.947 195.556 274.46 194.713C275.973 193.87 277.662 193.392 279.392 193.317C281.282 191.126 285.162 188.984 288.285 189.096C289.223 189.095 290.142 189.353 290.943 189.841C291.743 190.329 292.394 191.029 292.822 191.863C293.461 193.093 293.599 194.524 293.207 195.854L283.072 230.922C282.69 232.242 281.981 233.445 281.012 234.42L266.467 249.005C265.747 249.671 265.225 250.522 264.957 251.465L263.458 256.652C263.326 257.11 263.017 257.497 262.599 257.728C262.181 257.958 261.688 258.014 261.23 257.881C260.771 257.748 260.384 257.439 260.153 257.021C259.923 256.603 259.868 256.111 260 255.652L261.499 250.466C261.931 248.939 262.766 247.556 263.917 246.464L278.462 231.879Z" fill="#F2EFFF"/>
<path d="M262.141 219.321C265.666 216.561 271.342 219.723 273.389 221.588C273.757 221.926 274.049 222.338 274.249 222.796C274.448 223.254 274.55 223.748 274.547 224.247C274.546 224.764 274.437 225.276 274.228 225.748C274.018 226.221 273.712 226.644 273.329 226.992L263.357 236.01C263.003 236.33 262.537 236.495 262.061 236.471C261.585 236.447 261.138 236.234 260.818 235.881C260.498 235.528 260.331 235.062 260.354 234.586C260.378 234.109 260.589 233.662 260.941 233.341L270.914 224.323C270.951 224.29 270.94 224.233 270.964 224.247C269.292 222.723 265.731 221.193 264.409 222.119C264.409 222.119 252.424 233.35 252.383 233.382C251.593 234.009 251.019 234.867 250.74 235.836L246.168 251.654C246.035 252.113 245.726 252.5 245.308 252.731C244.89 252.961 244.398 253.016 243.939 252.884C243.481 252.751 243.093 252.442 242.863 252.024C242.632 251.606 242.577 251.114 242.71 250.655L247.282 234.837C247.764 233.17 248.746 231.692 250.096 230.602C250.096 230.602 262.099 219.354 262.141 219.321Z" fill="#F2EFFF"/>
<path d="M212.668 168.697C213.475 168.22 214.399 167.976 215.336 167.99C216.274 168.004 217.189 168.277 217.982 168.778C220.683 170.349 222.822 174.23 223.252 177.091C224.675 178.078 225.849 179.384 226.679 180.904C227.509 182.424 227.973 184.117 228.034 185.848C227.992 186.672 227.884 187.491 227.71 188.298C229.563 189.939 233.607 194.09 232.557 198.269L228.637 211.835L227.462 207.481C227.42 207.326 227.372 207.173 227.316 207.022C227.14 206.556 226.924 206.106 226.67 205.677L229.082 197.331C229.447 195.876 228.065 193.84 226.616 192.269L223.72 202.62C222.688 201.971 221.568 201.474 220.394 201.147C220.721 199.993 223.387 190.654 223.615 189.895C224.095 188.572 224.37 187.184 224.431 185.779C224.37 184.715 224.082 183.676 223.585 182.733C223.088 181.79 222.394 180.965 221.551 180.314L215.907 200.483C214.771 200.453 213.635 200.538 212.515 200.736C212.364 200.764 212.217 200.806 212.068 200.844L219.107 175.689C218.518 174.164 217.499 172.844 216.172 171.889C215.952 171.745 215.701 171.656 215.44 171.63C215.178 171.603 214.914 171.639 214.67 171.735C214.425 171.83 214.207 171.983 214.033 172.18C213.86 172.377 213.735 172.613 213.671 172.867L203.536 207.935C203.323 208.673 203.299 209.454 203.467 210.204L207.988 230.299C208.379 231.838 208.348 233.453 207.899 234.975L206.4 240.161C206.267 240.619 205.958 241.007 205.54 241.237C205.122 241.468 204.63 241.523 204.171 241.39C203.712 241.258 203.325 240.948 203.095 240.53C202.864 240.112 202.809 239.62 202.942 239.161L204.441 233.975C204.718 233.035 204.73 232.036 204.476 231.089L199.954 210.993C199.655 209.651 199.697 208.256 200.078 206.935L210.213 171.868C210.591 170.533 211.471 169.397 212.668 168.697Z" fill="#F2EFFF"/>
<path d="M210.849 205.838C211.113 205.414 211.463 205.05 211.876 204.769C212.289 204.488 212.756 204.297 213.247 204.206C215.974 203.72 222.462 204.074 223.97 208.289C223.989 208.34 228.14 224.256 228.14 224.256C228.701 225.898 228.743 227.673 228.262 229.34L223.69 245.158C223.558 245.617 223.248 246.004 222.831 246.234C222.413 246.465 221.92 246.52 221.462 246.387C221.003 246.255 220.616 245.946 220.385 245.528C220.155 245.11 220.1 244.617 220.232 244.159L224.804 228.34C225.085 227.372 225.057 226.34 224.723 225.388C224.705 225.338 220.56 209.446 220.56 209.446C219.936 207.957 216.107 207.352 213.88 207.749C213.908 207.75 213.868 207.793 213.882 207.84L217.506 220.788C217.633 221.247 217.573 221.738 217.339 222.153C217.104 222.569 216.715 222.874 216.256 223.002C215.797 223.13 215.305 223.071 214.89 222.838C214.474 222.604 214.168 222.216 214.039 221.757L210.415 208.809C210.277 208.311 210.244 207.789 210.319 207.278C210.394 206.766 210.574 206.276 210.849 205.838Z" fill="#F2EFFF"/>
<path d="M278.462 231.879C279.004 231.334 279.4 230.661 279.614 229.922L289.749 194.855C289.831 194.605 289.851 194.34 289.809 194.08C289.768 193.821 289.664 193.575 289.509 193.364C289.353 193.152 289.149 192.981 288.913 192.864C288.678 192.748 288.418 192.689 288.156 192.693C286.524 192.793 284.957 193.366 283.646 194.342L276.18 219.373C276.075 219.262 275.973 219.148 275.86 219.043C275.019 218.279 274.102 217.601 273.125 217.02L279.112 196.949C278.051 197.051 277.024 197.379 276.101 197.911C275.177 198.444 274.379 199.168 273.76 200.036C273.062 201.257 272.555 202.578 272.254 203.952C272.042 204.716 269.316 214.037 268.977 215.188C267.809 214.838 266.597 214.661 265.378 214.66L268.45 204.359C266.386 204.915 264.131 205.9 263.663 207.325L261.251 215.671C260.808 215.899 260.385 216.164 259.987 216.464C259.86 216.562 259.737 216.665 259.619 216.774L256.302 219.831L260.224 206.265C261.565 202.17 267.2 200.817 269.643 200.417C269.926 199.642 270.272 198.891 270.676 198.172C271.651 196.74 272.947 195.556 274.46 194.713C275.973 193.87 277.662 193.392 279.392 193.317C281.282 191.126 285.162 188.984 288.285 189.096C289.223 189.095 290.142 189.353 290.943 189.841C291.743 190.329 292.394 191.029 292.822 191.863C293.461 193.093 293.599 194.524 293.207 195.854L283.072 230.922C282.69 232.242 281.981 233.445 281.012 234.42L266.467 249.005C265.747 249.671 265.225 250.522 264.957 251.465L263.458 256.652C263.326 257.11 263.017 257.497 262.599 257.728C262.181 257.958 261.688 258.014 261.23 257.881C260.771 257.748 260.384 257.439 260.153 257.021C259.923 256.603 259.868 256.111 260 255.652L261.499 250.466C261.931 248.939 262.766 247.556 263.917 246.464L278.462 231.879Z" stroke="#2A2731" stroke-width="7.19926" mask="url(#path-29-outside-2_453_643)"/>
<path d="M262.141 219.321C265.666 216.561 271.342 219.723 273.389 221.588C273.757 221.926 274.049 222.338 274.249 222.796C274.448 223.254 274.55 223.748 274.547 224.247C274.546 224.764 274.437 225.276 274.228 225.748C274.018 226.221 273.712 226.644 273.329 226.992L263.357 236.01C263.003 236.33 262.537 236.495 262.061 236.471C261.585 236.447 261.138 236.234 260.818 235.881C260.498 235.528 260.331 235.062 260.354 234.586C260.378 234.109 260.589 233.662 260.941 233.341L270.914 224.323C270.951 224.29 270.94 224.233 270.964 224.247C269.292 222.723 265.731 221.193 264.409 222.119C264.409 222.119 252.424 233.35 252.383 233.382C251.593 234.009 251.019 234.867 250.74 235.836L246.168 251.654C246.035 252.113 245.726 252.5 245.308 252.731C244.89 252.961 244.398 253.016 243.939 252.884C243.481 252.751 243.093 252.442 242.863 252.024C242.632 251.606 242.577 251.114 242.71 250.655L247.282 234.837C247.764 233.17 248.746 231.692 250.096 230.602C250.096 230.602 262.099 219.354 262.141 219.321Z" stroke="#2A2731" stroke-width="7.19926" mask="url(#path-29-outside-2_453_643)"/>
<path d="M212.668 168.697C213.475 168.22 214.399 167.976 215.336 167.99C216.274 168.004 217.189 168.277 217.982 168.778C220.683 170.349 222.822 174.23 223.252 177.091C224.675 178.078 225.849 179.384 226.679 180.904C227.509 182.424 227.973 184.117 228.034 185.848C227.992 186.672 227.884 187.491 227.71 188.298C229.563 189.939 233.607 194.09 232.557 198.269L228.637 211.835L227.462 207.481C227.42 207.326 227.372 207.173 227.316 207.022C227.14 206.556 226.924 206.106 226.67 205.677L229.082 197.331C229.447 195.876 228.065 193.84 226.616 192.269L223.72 202.62C222.688 201.971 221.568 201.474 220.394 201.147C220.721 199.993 223.387 190.654 223.615 189.895C224.095 188.572 224.37 187.184 224.431 185.779C224.37 184.715 224.082 183.676 223.585 182.733C223.088 181.79 222.394 180.965 221.551 180.314L215.907 200.483C214.771 200.453 213.635 200.538 212.515 200.736C212.364 200.764 212.217 200.806 212.068 200.844L219.107 175.689C218.518 174.164 217.499 172.844 216.172 171.889C215.952 171.745 215.701 171.656 215.44 171.63C215.178 171.603 214.914 171.639 214.67 171.735C214.425 171.83 214.207 171.983 214.033 172.18C213.86 172.377 213.735 172.613 213.671 172.867L203.536 207.935C203.323 208.673 203.299 209.454 203.467 210.204L207.988 230.299C208.379 231.838 208.348 233.453 207.899 234.975L206.4 240.161C206.267 240.619 205.958 241.007 205.54 241.237C205.122 241.468 204.63 241.523 204.171 241.39C203.712 241.258 203.325 240.948 203.095 240.53C202.864 240.112 202.809 239.62 202.942 239.161L204.441 233.975C204.718 233.035 204.73 232.036 204.476 231.089L199.954 210.993C199.655 209.651 199.697 208.256 200.078 206.935L210.213 171.868C210.591 170.533 211.471 169.397 212.668 168.697Z" stroke="#2A2731" stroke-width="7.19926" mask="url(#path-29-outside-2_453_643)"/>
<path d="M210.849 205.838C211.113 205.414 211.463 205.05 211.876 204.769C212.289 204.488 212.756 204.297 213.247 204.206C215.974 203.72 222.462 204.074 223.97 208.289C223.989 208.34 228.14 224.256 228.14 224.256C228.701 225.898 228.743 227.673 228.262 229.34L223.69 245.158C223.558 245.617 223.248 246.004 222.831 246.234C222.413 246.465 221.92 246.52 221.462 246.387C221.003 246.255 220.616 245.946 220.385 245.528C220.155 245.11 220.1 244.617 220.232 244.159L224.804 228.34C225.085 227.372 225.057 226.34 224.723 225.388C224.705 225.338 220.56 209.446 220.56 209.446C219.936 207.957 216.107 207.352 213.88 207.749C213.908 207.75 213.868 207.793 213.882 207.84L217.506 220.788C217.633 221.247 217.573 221.738 217.339 222.153C217.104 222.569 216.715 222.874 216.256 223.002C215.797 223.13 215.305 223.071 214.89 222.838C214.474 222.604 214.168 222.216 214.039 221.757L210.415 208.809C210.277 208.311 210.244 207.789 210.319 207.278C210.394 206.766 210.574 206.276 210.849 205.838Z" stroke="#2A2731" stroke-width="7.19926" mask="url(#path-29-outside-2_453_643)"/>
<path d="M265.034 155.644L263.786 158.958C259.343 158.147 254.539 159.836 251.675 163.711L251.67 163.718L251.665 163.725C247.482 169.273 248.53 177.004 253.844 181.139C258.104 184.258 263.53 184.399 267.79 181.745L270.149 184.395C263.673 192.514 251.871 194.039 243.628 187.769L243.628 187.769L243.616 187.76C235.288 181.322 233.64 169.22 240.087 160.666L240.092 160.659C246.028 152.851 256.818 150.72 265.034 155.644Z" fill="#F2EFFF" stroke="#2A2731" stroke-width="3.59963"/>
<path d="M278.462 231.879C279.004 231.334 279.4 230.661 279.614 229.922L289.749 194.855C289.831 194.605 289.851 194.34 289.809 194.08C289.768 193.821 289.664 193.575 289.509 193.364C289.353 193.152 289.149 192.981 288.913 192.864C288.678 192.748 288.418 192.689 288.156 192.693C286.524 192.793 284.957 193.366 283.646 194.342L276.18 219.373C276.075 219.262 275.973 219.148 275.86 219.043C275.019 218.279 274.102 217.601 273.125 217.02L279.112 196.949C278.051 197.051 277.024 197.379 276.101 197.911C275.177 198.444 274.379 199.168 273.76 200.036C273.062 201.257 272.555 202.578 272.254 203.952C272.042 204.716 269.316 214.037 268.977 215.188C267.809 214.838 266.597 214.661 265.378 214.66L268.45 204.359C266.386 204.915 264.131 205.9 263.663 207.325L261.251 215.671C260.808 215.899 260.385 216.164 259.987 216.464C259.86 216.562 259.737 216.665 259.619 216.774L256.302 219.831L260.224 206.265C261.565 202.17 267.2 200.817 269.643 200.417C269.926 199.642 270.272 198.891 270.676 198.172C271.651 196.74 272.947 195.556 274.46 194.713C275.973 193.87 277.662 193.392 279.392 193.317C281.282 191.126 285.162 188.984 288.285 189.096C289.223 189.095 290.142 189.353 290.943 189.841C291.743 190.329 292.394 191.029 292.822 191.863C293.461 193.093 293.599 194.524 293.207 195.854L283.072 230.922C282.69 232.242 281.981 233.445 281.012 234.42L266.467 249.005C265.747 249.671 265.225 250.522 264.957 251.465L263.458 256.652C263.326 257.11 263.017 257.497 262.599 257.728C262.181 257.958 261.688 258.014 261.23 257.881C260.771 257.748 260.384 257.439 260.153 257.021C259.923 256.603 259.868 256.111 260 255.652L261.499 250.466C261.931 248.939 262.766 247.556 263.917 246.464L278.462 231.879Z" fill="#F2EFFF"/>
<path d="M262.141 219.321C265.666 216.561 271.342 219.723 273.389 221.588C273.757 221.926 274.049 222.338 274.249 222.796C274.448 223.254 274.55 223.748 274.547 224.247C274.546 224.764 274.437 225.276 274.228 225.748C274.018 226.221 273.712 226.644 273.329 226.992L263.357 236.01C263.003 236.33 262.537 236.495 262.061 236.471C261.585 236.447 261.138 236.234 260.818 235.881C260.498 235.528 260.331 235.062 260.354 234.586C260.378 234.109 260.589 233.662 260.941 233.341L270.914 224.323C270.951 224.29 270.94 224.233 270.964 224.247C269.292 222.723 265.731 221.193 264.409 222.119C264.409 222.119 252.424 233.35 252.383 233.382C251.593 234.009 251.019 234.867 250.74 235.836L246.168 251.654C246.035 252.113 245.726 252.5 245.308 252.731C244.89 252.961 244.398 253.016 243.939 252.884C243.481 252.751 243.093 252.442 242.863 252.024C242.632 251.606 242.577 251.114 242.71 250.655L247.282 234.837C247.764 233.17 248.746 231.692 250.096 230.602C250.096 230.602 262.099 219.354 262.141 219.321Z" fill="#F2EFFF"/>
<path d="M212.668 168.697C213.475 168.22 214.399 167.976 215.336 167.99C216.274 168.004 217.189 168.277 217.982 168.778C220.683 170.349 222.822 174.23 223.252 177.091C224.675 178.078 225.849 179.384 226.679 180.904C227.509 182.424 227.973 184.117 228.034 185.848C227.992 186.672 227.884 187.491 227.71 188.298C229.563 189.939 233.607 194.09 232.557 198.269L228.637 211.835L227.462 207.481C227.42 207.326 227.372 207.173 227.316 207.022C227.14 206.556 226.924 206.106 226.67 205.677L229.082 197.331C229.447 195.876 228.065 193.84 226.616 192.269L223.72 202.62C222.688 201.971 221.568 201.474 220.394 201.147C220.721 199.993 223.387 190.654 223.615 189.895C224.095 188.572 224.37 187.184 224.431 185.779C224.37 184.715 224.082 183.676 223.585 182.733C223.088 181.79 222.394 180.965 221.551 180.314L215.907 200.483C214.771 200.453 213.635 200.538 212.515 200.736C212.364 200.764 212.217 200.806 212.068 200.844L219.107 175.689C218.518 174.164 217.499 172.844 216.172 171.889C215.952 171.745 215.701 171.656 215.44 171.63C215.178 171.603 214.914 171.639 214.67 171.735C214.425 171.83 214.207 171.983 214.033 172.18C213.86 172.377 213.735 172.613 213.671 172.867L203.536 207.935C203.323 208.673 203.299 209.454 203.467 210.204L207.988 230.299C208.379 231.838 208.348 233.453 207.899 234.975L206.4 240.161C206.267 240.619 205.958 241.007 205.54 241.237C205.122 241.468 204.63 241.523 204.171 241.39C203.712 241.258 203.325 240.948 203.095 240.53C202.864 240.112 202.809 239.62 202.942 239.161L204.441 233.975C204.718 233.035 204.73 232.036 204.476 231.089L199.954 210.993C199.655 209.651 199.697 208.256 200.078 206.935L210.213 171.868C210.591 170.533 211.471 169.397 212.668 168.697Z" fill="#F2EFFF"/>
<path d="M210.849 205.838C211.113 205.414 211.463 205.05 211.876 204.769C212.289 204.488 212.756 204.297 213.247 204.206C215.974 203.72 222.462 204.074 223.97 208.289C223.989 208.34 228.14 224.256 228.14 224.256C228.701 225.898 228.743 227.673 228.262 229.34L223.69 245.158C223.558 245.617 223.248 246.004 222.831 246.234C222.413 246.465 221.92 246.52 221.462 246.387C221.003 246.255 220.616 245.946 220.385 245.528C220.155 245.11 220.1 244.617 220.232 244.159L224.804 228.34C225.085 227.372 225.057 226.34 224.723 225.388C224.705 225.338 220.56 209.446 220.56 209.446C219.936 207.957 216.107 207.352 213.88 207.749C213.908 207.75 213.868 207.793 213.882 207.84L217.506 220.788C217.633 221.247 217.573 221.738 217.339 222.153C217.104 222.569 216.715 222.874 216.256 223.002C215.797 223.13 215.305 223.071 214.89 222.838C214.474 222.604 214.168 222.216 214.039 221.757L210.415 208.809C210.277 208.311 210.244 207.789 210.319 207.278C210.394 206.766 210.574 206.276 210.849 205.838Z" fill="#F2EFFF"/>
<path fill-rule="evenodd" clip-rule="evenodd" d="M264.109 157.187C256.699 152.747 246.919 154.653 241.524 161.749C235.667 169.522 237.174 180.505 244.717 186.336C252.173 192.007 262.869 190.636 268.742 183.273C263.848 186.321 257.613 186.142 252.759 182.575C246.64 177.832 245.456 168.97 250.228 162.641C253.522 158.184 259.027 156.26 264.109 157.187Z" fill="#F2EFFF"/>
<rect x="206.401" y="84.6968" width="142.122" height="214.114" rx="6.2675" transform="rotate(16.12 206.401 84.6968)" stroke="#F2EFFF" stroke-width="1.86353"/>
</g>
</g>
<defs>
<linearGradient id="paint0_linear_453_643" x1="187.5" y1="0" x2="187.5" y2="401" gradientUnits="userSpaceOnUse">
<stop stop-color="#3C2F4F"/>
<stop offset="1" stop-color="#080808"/>
</linearGradient>
<clipPath id="clip0_453_643">
<rect x="25.0347" y="117.697" width="151.879" height="224.517" rx="9.89898" transform="rotate(-14.65 25.0347 117.697)" fill="white"/>
</clipPath>
<clipPath id="clip1_453_643">
<rect x="202.906" y="79" width="151.879" height="224.517" rx="9.89898" transform="rotate(16.12 202.906 79)" fill="white"/>
</clipPath>
<clipPath id="clip2_453_643">
<rect x="203.556" y="78.2207" width="151.879" height="224.517" rx="9.89898" transform="rotate(16.12 203.556 78.2207)" fill="white"/>
</clipPath>
</defs>
</svg>
