<?xml version="1.0" encoding="UTF-8"?>
<svg id="Calque_1" data-name="Calque 1" xmlns="http://www.w3.org/2000/svg" viewBox="0 0 78 78">
  <defs>
    <style>
      .cls-1 {
        fill: #f9f3ef;
        fill-rule: evenodd;
      }

      .cls-1, .cls-2 {
        stroke-width: 0px;
      }

      .cls-2 {
        fill: #7979bc;
      }
    </style>
  </defs>
  <circle class="cls-2" cx="39" cy="39" r="37.5"/>
  <path class="cls-1" d="m19,27c0-4.42,3.58-8,8-8h24c4.42,0,8,3.58,8,8v24c0,4.42-3.58,8-8,8h-24c-4.42,0-8-3.58-8-8v-24Zm8-4c-2.21,0-4,1.79-4,4v24c0,2.21,1.79,4,4,4h24c2.21,0,4-1.79,4-4v-24c0-2.21-1.79-4-4-4h-24Zm12,10c-3.31,0-6,2.69-6,6s2.69,6,6,6,6-2.69,6-6-2.69-6-6-6Zm-10,6c0-5.52,4.48-10,10-10s10,4.48,10,10-4.48,10-10,10-10-4.48-10-10Zm21-8c1.66,0,3-1.34,3-3s-1.34-3-3-3-3,1.34-3,3,1.34,3,3,3Z"/>
</svg>