<?xml version="1.0" encoding="UTF-8"?>
<svg id="Calque_1" data-name="Calque 1" xmlns="http://www.w3.org/2000/svg" viewBox="0 0 78 78">
  <defs>
    <style>
      .cls-1 {
        fill: #f9f3ef;
      }

      .cls-1, .cls-2 {
        stroke-width: 0px;
      }

      .cls-2 {
        fill: #7979bc;
      }
    </style>
  </defs>
  <circle class="cls-2" cx="39.5" cy="39" r="37.5"/>
  <path class="cls-1" d="m55.8,19H22.43c-.43-.02-.86.04-1.27.19-.41.15-.78.37-1.1.66-.32.29-.58.64-.76,1.03-.18.39-.29.81-.31,1.24v33.45c.03.9.39,1.76,1.03,2.39.64.64,1.49,1.01,2.39,1.03h33.37c.88-.04,1.7-.42,2.3-1.06s.92-1.49.9-2.37V22.13c0-.42-.07-.83-.23-1.22-.16-.39-.4-.74-.7-1.03-.3-.29-.66-.52-1.05-.67-.39-.15-.81-.22-1.23-.2Zm-24.3,33.35h-5.82v-17.82h5.82v17.82Zm-2.77-20.52c-.41.01-.81-.06-1.19-.21-.38-.15-.72-.38-1.01-.66-.29-.29-.51-.63-.66-1.01-.15-.38-.21-.78-.2-1.19-.02-.41.05-.82.2-1.2.15-.38.38-.73.67-1.02.29-.29.64-.51,1.03-.66.38-.15.79-.21,1.21-.19.41-.01.81.06,1.19.21.38.15.72.38,1.01.66.29.29.51.63.66,1.01.15.38.21.78.2,1.19.02.41-.05.82-.2,1.2-.15.38-.38.73-.67,1.02-.29.29-.64.51-1.03.66-.38.15-.79.21-1.21.19Zm23.62,20.52h-5.85v-9.75c0-2.32-.82-3.92-2.9-3.92-.64,0-1.27.21-1.8.59-.52.38-.92.9-1.13,1.51-.16.46-.23.94-.2,1.42v10.15h-5.75v-17.82h5.75v2.5c.51-.94,1.27-1.72,2.2-2.25.93-.53,1.98-.8,3.05-.77,3.77,0,6.62,2.5,6.62,7.82v10.52Z"/>
</svg>