<svg width="83" height="87" viewBox="0 0 83 87" fill="none" xmlns="http://www.w3.org/2000/svg">
<g clip-path="url(#clip0_429_23)">
<path opacity="0.2" d="M81.339 30.73C80.1489 28.1429 77.5456 26.4733 74.6944 26.4733C74.5208 26.4733 74.3473 26.4733 74.1489 26.4981C73.9423 26.5147 73.744 26.5229 73.5622 26.5229C72.6861 26.5229 72.5539 26.3907 72.2812 26.1179C71.9258 25.7625 70.9837 24.5475 69.9837 21.0761C69.2647 18.5139 67.2068 16.5467 64.6035 15.9351C61.6613 15.2573 60.463 14.3068 60.0911 13.9349C59.7357 13.5795 59.4051 13.2489 59.5126 11.8768C59.6696 9.87663 58.9671 7.86816 57.5787 6.37214C56.1903 4.86786 54.2316 4 52.2233 4C52.1076 4 51.9341 4 51.8184 4.00827C50.0085 4.11571 48.3142 4.88439 47.0746 6.14071C42.8184 10.3973 40.4795 16.0425 40.306 21.8365C34.3638 22.0101 28.8018 24.407 24.5952 28.6141C20.3142 32.8872 17.9754 38.5655 17.8184 44.3925C12.0415 44.7644 6.04151 47.2771 2.19853 51.0047C2.17374 51.0295 2.14895 51.0543 2.12415 51.0791C-0.0163429 53.2281 -0.60312 56.5177 0.661343 59.2783C1.85143 61.8653 4.45473 63.5349 7.30597 63.5349C7.47952 63.5349 7.65308 63.5349 7.85143 63.5101C8.01671 63.4936 8.182 63.4936 8.33076 63.4936C9.27291 63.4936 9.55391 63.7085 9.91754 64.0722C10.2894 64.4441 11.2316 65.6343 11.9258 68.6264C12.5291 71.2134 14.5043 73.2714 17.0332 73.9823C20.5374 74.9824 21.744 75.9246 22.1076 76.2883C22.3804 76.561 22.587 76.7677 22.4795 78.181C22.2647 81.1979 23.9671 84.0825 26.7192 85.347C27.6613 85.7768 28.7027 86.0083 29.7523 86.0083C31.6861 86.0083 33.5704 85.2313 34.9258 83.8758C39.1737 79.6275 41.5208 73.9905 41.6944 68.1883C47.6366 68.023 53.1985 65.6343 57.4051 61.419C61.6696 57.1541 64.0085 51.5089 64.182 45.7067C70.1159 45.5331 75.6613 43.1444 79.868 38.9374C82.0167 36.7884 82.6035 33.4906 81.339 30.7382V30.73Z" fill="#727272"/>
<path d="M82.339 26.73C81.1489 24.1429 78.5456 22.4733 75.6944 22.4733C75.5208 22.4733 75.3473 22.4733 75.1489 22.4981C74.9423 22.5147 74.744 22.5229 74.5622 22.5229C73.6861 22.5229 73.5539 22.3907 73.2812 22.1179C72.9258 21.7625 71.9837 20.5475 70.9837 17.0761C70.2647 14.5139 68.2068 12.5467 65.6035 11.9351C62.6613 11.2573 61.463 10.3068 61.0911 9.93489C60.7357 9.57948 60.4051 9.24887 60.5126 7.87683C60.6696 5.87663 59.9671 3.86816 58.5787 2.37214C57.1903 0.867856 55.2316 0 53.2233 0C53.1076 0 52.9341 0 52.8184 0.0082653C51.0085 0.115714 49.3142 0.884387 48.0746 2.14071C43.8184 6.39734 41.4795 12.0425 41.306 17.8365C35.3638 18.0101 29.8018 20.407 25.5952 24.6141C21.3142 28.8872 18.9754 34.5655 18.8184 40.3925C13.0415 40.7644 7.04151 43.2771 3.19853 47.0047C3.17374 47.0295 3.14895 47.0543 3.12415 47.0791C0.983657 49.2281 0.39688 52.5177 1.66134 55.2783C2.85143 57.8653 5.45473 59.5349 8.30597 59.5349C8.47952 59.5349 8.65308 59.5349 8.85143 59.5101C9.01671 59.4936 9.182 59.4936 9.33076 59.4936C10.2729 59.4936 10.5539 59.7085 10.9175 60.0722C11.2894 60.4441 12.2316 61.6343 12.9258 64.6264C13.5291 67.2134 15.5043 69.2714 18.0332 69.9823C21.5374 70.9824 22.744 71.9246 23.1076 72.2883C23.3804 72.561 23.587 72.7677 23.4795 74.181C23.2647 77.1979 24.9671 80.0825 27.7192 81.347C28.6613 81.7768 29.7027 82.0083 30.7523 82.0083C32.6861 82.0083 34.5704 81.2313 35.9258 79.8758C40.1737 75.6275 42.5208 69.9905 42.6944 64.1883C48.6366 64.023 54.1985 61.6343 58.4051 57.419C62.6696 53.1541 65.0085 47.5089 65.182 41.7067C71.1159 41.5331 76.6613 39.1444 80.868 34.9374C83.0167 32.7884 83.6035 29.4906 82.339 26.7382V26.73Z" fill="#FFFEF3"/>
<path d="M53.157 5.86011C52.8016 5.87664 52.4545 6.03368 52.2065 6.2899C47.19 11.3069 45.909 18.6631 48.347 24.8868C42.1239 22.4486 34.7437 23.7462 29.7272 28.7715C24.7107 33.7885 23.4214 41.1447 25.8677 47.3684C20.0908 44.6243 11.4875 47.137 7.27266 51.2283C6.85944 51.6416 6.74374 52.3193 6.98341 52.8483C7.22308 53.3773 7.81812 53.7327 8.40489 53.6831C11.3718 53.4517 13.4214 54.2947 15.0661 55.9395C16.7107 57.5843 17.909 60.1466 18.6363 63.2957C18.752 63.7916 19.157 64.2214 19.6528 64.3536C23.1156 65.3454 25.6859 66.577 27.2561 68.1474C28.8264 69.7178 29.5619 71.594 29.3305 74.6026C29.2892 75.1811 29.6363 75.7762 30.1652 76.0242C30.6942 76.2639 31.3718 76.1482 31.7851 75.7349C36.8016 70.7179 38.0826 63.3618 35.6446 57.138C41.8677 59.5928 49.2396 58.3034 54.2644 53.2781C59.2892 48.2528 60.5702 40.8884 58.1239 34.6564C64.347 37.0947 71.7024 35.8135 76.7189 30.7965C77.1322 30.3832 77.2479 29.7055 77.0082 29.1765C76.7685 28.6475 76.1735 28.2921 75.5867 28.3417C72.5784 28.5731 70.7024 27.8375 69.1322 26.2671C67.5619 24.6967 66.3305 22.1262 65.3388 18.6631C65.1983 18.1671 64.7768 17.7621 64.2809 17.6464C61.1322 16.9191 58.5867 15.7206 56.9421 14.0841C55.2975 12.4393 54.438 10.3978 54.6611 7.43051C54.7272 6.61225 53.9669 5.83531 53.1487 5.87664L53.157 5.86011ZM52.1404 11.092C52.6198 13.0509 53.5454 14.7701 54.8925 16.1256C56.9008 18.1341 59.7024 19.3656 62.8346 20.1839C63.8512 23.5065 65.0991 26.3332 67.0743 28.3087C68.3718 29.6063 70.0082 30.4411 71.8842 30.8792C68.5867 32.8711 64.6859 33.4166 61.0495 32.5487C61.909 32.4578 62.7603 32.3339 63.6446 32.2099C64.4545 32.1851 65.1404 31.3585 65.0247 30.5651C64.909 29.7633 64.0247 29.1682 63.2396 29.3666C60.2892 29.7881 58.4132 30.1766 55.7685 29.2757L60.3718 24.6719C60.9834 23.8537 60.8842 23.2255 60.3222 22.5312C59.7024 21.994 59.0165 22.1427 58.3388 22.6139L53.7355 27.2176C52.8346 24.5727 53.2231 22.6965 53.6446 19.7458C53.7768 18.9358 53.0661 18.0927 52.2479 18.0762C51.5371 18.0597 50.8677 18.6383 50.7768 19.3408C50.6528 20.2252 50.5289 21.0765 50.438 21.9361C49.5702 18.2911 50.1322 14.3734 52.1322 11.0838L52.1404 11.092ZM43.6776 26.6639C47.3884 27.2838 49.9504 28.2921 52.438 31.0197C55.595 34.3175 56.8677 38.7229 56.2975 42.9382C52.7355 41.4009 51.2396 38.5163 49.5454 35.1275C48.1074 32.2512 46.5619 29.0112 43.6776 26.6639ZM38.4875 27.0441C43.3057 28.6475 44.9173 32.2925 46.9751 36.4086C48.752 39.9627 50.9338 43.8557 55.6198 45.7484C55.0082 47.5007 54.0826 49.162 52.7768 50.625C50.6032 49.9803 49.033 48.7405 47.6776 47.0791C46.157 45.2277 44.9669 42.8308 43.6859 40.3347C42.4049 37.8385 41.0495 35.2515 39.1074 33.0447C37.6942 31.4495 35.9338 30.0692 33.7355 29.16C35.2065 28.0111 37.1487 27.0358 38.4958 27.0358L38.4875 27.0441ZM31.2231 31.3751C33.6942 32.0198 35.4462 33.2844 36.9338 34.9622C38.5619 36.8136 39.8346 39.1858 41.1074 41.6654C42.3801 44.145 43.6363 46.732 45.438 48.9306C46.7272 50.501 48.3305 51.873 50.3388 52.7905C48.7933 53.7906 46.9338 54.6336 45.5289 54.956C40.7272 53.3525 39.3636 49.7571 37.4297 45.6162C36.4627 43.5499 35.3801 41.3761 33.6115 39.5247C32.2975 38.1444 30.595 36.9789 28.3966 36.1855C29.0082 34.4663 29.9256 32.8132 31.2148 31.3751H31.2231ZM27.7024 39.0039C29.3388 39.6404 30.5371 40.5 31.5206 41.5331C32.9173 42.9961 33.8925 44.8475 34.8346 46.856C36.1818 49.724 37.5619 53.0054 40.3884 55.361C37.3388 55.0221 34.3966 53.6996 32.0165 51.4102C28.9173 48.0049 27.1983 43.2192 27.7024 38.9957V39.0039ZM22.9421 49.4513C22.0826 49.5339 21.2313 49.6662 20.347 49.7902C19.595 49.8976 19.0082 50.6745 19.1156 51.4267C19.2231 52.1788 19.9999 52.7657 20.752 52.6582C23.7024 52.2367 25.5784 51.8482 28.2231 52.7491L23.6198 57.3529C23.0743 57.8901 23.0661 58.8737 23.6115 59.4192C24.157 59.9565 25.1487 59.9399 25.6776 59.3862L30.2809 54.7824C31.1818 57.4273 30.7933 59.3035 30.3718 62.2542C30.2644 63.0064 30.8512 63.7833 31.6032 63.8908C32.3553 63.9982 33.1322 63.4114 33.2396 62.6592C33.3636 61.7748 33.4958 60.9235 33.5784 60.0639C34.4545 63.7007 33.8842 67.6184 31.8842 70.9163C31.4462 69.04 30.6115 67.387 29.314 66.0893C27.3388 64.1139 24.5123 62.8659 21.19 61.8492C20.3636 58.7084 19.1404 55.9147 17.1239 53.9063C15.7685 52.5508 14.033 51.6333 12.0661 51.1539C15.7685 48.9554 20.1156 48.3851 22.9421 49.4595V49.4513Z" fill="#A2C997"/>
</g>
<defs>
<clipPath id="clip0_429_23">
<rect width="83" height="87" fill="white"/>
</clipPath>
</defs>
</svg>
