<?xml version="1.0" encoding="UTF-8"?>
<svg id="Calque_1" data-name="Calque 1" xmlns="http://www.w3.org/2000/svg" viewBox="0 0 78 78">
  <defs>
    <style>
      .cls-1 {
        fill: #7979bc;
        fill-rule: evenodd;
      }

      .cls-1, .cls-2 {
        stroke-width: 0px;
      }

      .cls-2 {
        fill: #f9f3ef;
      }
    </style>
  </defs>
  <circle class="cls-2" cx="39.5" cy="39" r="37.5"/>
  <g id="Page-1">
    <g id="Dribbble-Light-Preview">
      <g id="icons">
        <g id="behance-_163_" data-name="behance-[#163]">
          <path class="cls-1" d="m44.96,30.24h10.17v-2.91h-10.17v2.91Zm5.02,5.85c-2.27,0-3.99,1.41-4.16,4h8.14c-.55-3.08-1.92-4-3.98-4h0Zm.32,12.05c2.1,0,3.63-1.32,3.95-2.44h4.41c-1.26,4.03-3.86,6.3-8.53,6.3-5.96,0-9.31-4.24-9.31-9.87,0-13.25,19.12-13.72,18.16,1.24h-13.15c.13,3.04,1.38,4.77,4.48,4.77h0Zm-19.83-.58c2.41,0,4.09-.92,4.09-3.42s-1.49-3.71-3.99-3.71h-6.03v7.14h5.92Zm-.32-11.03c2,0,3.38-.93,3.38-3.1,0-2.28-1.61-2.98-3.81-2.98h-5.18v6.08h5.61Zm.71-10.52c4.74,0,8.04,1.57,8.04,6.44,0,2.41-.97,4.21-3.42,5.43,3.14.93,4.62,3.38,4.62,6.59,0,5.1-4.05,7.54-8.88,7.54h-12.2v-26h11.85Z"/>
        </g>
      </g>
    </g>
  </g>
</svg>