<svg width="85" height="76" viewBox="0 0 85 76" fill="none" xmlns="http://www.w3.org/2000/svg">
<path fill-rule="evenodd" clip-rule="evenodd" d="M83.8399 22.51L70.7299 10.41C67.5399 7.46999 65.1999 5.16999 60.5799 3.69999L52.3299 1.07999C52.1099 0.929993 51.8499 0.839993 51.5899 0.839993C51.3399 0.829993 51.0999 0.899993 50.8899 1.02999C48.1199 1.72999 45.5099 1.96999 42.5199 1.96999C39.5299 1.96999 36.8799 1.71999 34.0299 0.969993C33.8599 0.909993 33.6999 0.879993 33.5299 0.879993C33.3299 0.889993 33.1299 0.939993 32.9599 1.02999L24.5399 3.69999C19.9199 5.16999 17.5699 7.45999 14.3899 10.4L1.26988 22.5C0.74988 22.97 0.68988 23.77 1.13988 24.31L11.5599 37.06C12.0399 37.65 12.9299 37.72 13.4899 37.2L18.4199 32.65V73.73C18.4199 74.46 19.0099 75.06 19.7499 75.06H65.3699C66.0999 75.06 66.6899 74.46 66.6899 73.73V32.65L71.6299 37.2C72.1899 37.72 73.0699 37.65 73.5599 37.06L83.9799 24.31C84.4199 23.77 84.3599 22.98 83.8399 22.51Z" fill="#7979BC"/>
<path fill-rule="evenodd" clip-rule="evenodd" d="M83.3999 22.51L70.2899 10.41C67.0999 7.46999 64.7599 5.16999 60.1399 3.69999L51.8899 1.07999C51.6699 0.929993 51.4099 0.839993 51.1499 0.839993C50.8999 0.829993 50.6599 0.899993 50.4499 1.02999C47.6799 1.72999 45.0699 1.96999 42.0799 1.96999C39.0899 1.96999 36.4399 1.71999 33.5899 0.969993C33.4199 0.909993 33.2599 0.879993 33.0899 0.879993C32.8899 0.889993 32.6899 0.939993 32.5199 1.02999L24.0999 3.69999C19.4799 5.16999 17.1299 7.45999 13.9499 10.4L0.829938 22.5C0.309938 22.97 0.249938 23.77 0.699938 24.31L11.1199 37.06C11.5999 37.65 12.4899 37.72 13.0499 37.2L17.9799 32.65V73.73C17.9799 74.46 18.5699 75.06 19.3099 75.06H64.9299C65.6599 75.06 66.2499 74.46 66.2499 73.73V32.65L71.1899 37.2C71.7499 37.72 72.6299 37.65 73.1199 37.06L83.5399 24.31C83.9799 23.77 83.9199 22.98 83.3999 22.51ZM42.1299 4.59999C44.7399 4.61999 47.1899 4.36999 49.7099 3.83999C49.1299 9.46999 45.5099 12.26 42.1199 12.3C38.7199 12.26 35.1099 9.46999 34.5199 3.82999C37.0399 4.35999 39.5099 4.60999 42.1299 4.59999ZM71.9499 34.3L66.2499 29.06V22.18C66.3499 20.33 63.5099 20.33 63.6099 22.18V72.42H20.6299V22.18C20.6399 21.43 20.0299 20.82 19.2799 20.84C18.5599 20.84 17.9699 21.45 17.9799 22.18V29.06L12.2899 34.29L3.53994 23.6L15.7399 12.35C18.9599 9.37999 20.7699 7.53999 24.8999 6.21999L31.8899 3.98999C32.5899 10.77 37.2299 14.89 42.1099 14.95H42.1299C46.9999 14.9 51.6499 10.78 52.3499 3.99999L59.3399 6.22999C63.4699 7.53999 65.2799 9.37999 68.4899 12.35L80.6999 23.6L71.9499 34.3Z" fill="#BFBFBF"/>
<path fill-rule="evenodd" clip-rule="evenodd" d="M49.71 3.84002C49.13 9.47002 45.51 12.26 42.12 12.3C38.72 12.26 35.11 9.47002 34.52 3.83002C37.04 4.36002 39.51 4.61002 42.13 4.60002C44.74 4.62002 47.19 4.37002 49.71 3.84002Z" fill="#F3E7DF"/>
<path fill-rule="evenodd" clip-rule="evenodd" d="M80.69 23.6L71.94 34.3L66.24 29.06V22.18C66.34 20.33 63.5 20.33 63.6 22.18V72.42H20.62V22.18C20.63 21.43 20.02 20.82 19.27 20.84C18.55 20.84 17.96 21.45 17.97 22.18V29.06L12.28 34.29L3.53003 23.6L15.73 12.35C18.95 9.37999 20.76 7.53999 24.89 6.21999L31.88 3.98999C32.58 10.77 37.22 14.89 42.1 14.95H42.12C46.99 14.9 51.64 10.78 52.34 3.99999L59.33 6.22999C63.46 7.53999 65.27 9.37999 68.48 12.35L80.69 23.6Z" fill="#F9F3EF"/>
<path fill-rule="evenodd" clip-rule="evenodd" d="M42.11 38.16L37.67 46.23C39.4 47.91 39.81 49.53 39.81 51.62H44.38C44.38 49.53 44.82 47.91 46.55 46.23L42.11 38.16ZM44.95 56.88H39.27V52.39H44.95V56.88ZM42.11 45.8C42.61 45.8 43.02 45.39 43.02 44.89C43.02 44.39 42.61 43.98 42.11 43.98C41.61 43.98 41.2 44.39 41.2 44.89C41.2 45.39 41.61 45.8 42.11 45.8ZM32.5 42.76H33.35C33.49 40.57 34.44 38.59 35.9 37.13C36.25 36.78 36.64 36.45 37.05 36.16H33.74C33.45 36.71 32.87 37.09 32.21 37.09C31.26 37.09 30.48 36.32 30.48 35.36C30.48 34.4 31.25 33.63 32.21 33.63C32.87 33.63 33.45 34 33.74 34.56H40.28V33.63H43.93V34.56H50.47C50.76 34.01 51.34 33.63 52 33.63C52.95 33.63 53.73 34.4 53.73 35.36C53.73 36.32 52.96 37.09 52 37.09C51.34 37.09 50.76 36.72 50.47 36.16H47.16C47.57 36.45 47.95 36.77 48.31 37.13C49.77 38.59 50.72 40.56 50.86 42.76H51.71V45.81H48.66V42.76H49.4C49.26 40.97 48.47 39.35 47.28 38.16C46.37 37.25 45.22 36.58 43.93 36.25V37.3H40.28V36.25C38.99 36.58 37.84 37.25 36.93 38.16C35.73 39.36 34.95 40.97 34.81 42.76H35.55V45.81H32.5V42.76Z" fill="#EE7F5B"/>
</svg>
