<?xml version="1.0" encoding="UTF-8"?>
<svg id="Calque_1" data-name="Calque 1" xmlns="http://www.w3.org/2000/svg" viewBox="0 0 78 78">
  <defs>
    <style>
      .cls-1 {
        fill: #7979bc;
        fill-rule: evenodd;
      }

      .cls-1, .cls-2 {
        stroke-width: 0px;
      }

      .cls-2 {
        fill: #f2e9e4;
      }
    </style>
  </defs>
  <circle class="cls-2" cx="39" cy="39" r="37.5"/>
  <path class="cls-1" d="m19.83,24.83h0c-.53.53-.83,1.26-.83,2.01v24.31c0,.75.3,1.48.83,2.01h0c.53.53,1.26.83,2.01.83h34.31c.75,0,1.48-.3,2.01-.83h0c.53-.53.83-1.26.83-2.01v-24.31c0-.75-.3-1.48-.83-2.01h0c-.53-.53-1.26-.83-2.01-.83H21.85c-.75,0-1.48.3-2.01.83Zm2.5,4.6v21.23h33.33v-21.23l-15.58,14.17c-.61.56-1.55.56-2.17,0l-15.58-14.17Zm30.69-2.1h-28.04l13.15,11.95c.5.45,1.25.45,1.75,0l13.15-11.95Z"/>
</svg>