<?xml version="1.0" encoding="UTF-8"?>
<svg id="Calque_1" data-name="Calque 1" xmlns="http://www.w3.org/2000/svg" viewBox="0 0 78 78">
  <defs>
    <style>
      .cls-1 {
        fill: #f2e9e4;
      }

      .cls-1, .cls-2 {
        stroke-width: 0px;
      }

      .cls-2 {
        fill: #7979bc;
      }
    </style>
  </defs>
  <circle class="cls-1" cx="39" cy="39" r="37.5"/>
  <path class="cls-2" d="m39.88,19.03c2.18-.03,4.35-.02,6.52-.03.07,2.71,1.17,5.15,2.92,6.95h0c1.88,1.69,4.33,2.79,7.03,2.98h.04v6.72c-2.55-.06-4.95-.65-7.11-1.66l.11.05c-1.05-.5-1.93-1.02-2.77-1.6l.07.05c-.02,4.87.02,9.74-.03,14.59-.14,2.47-.96,4.73-2.28,6.61l.03-.04c-2.2,3.16-5.77,5.23-9.83,5.35h-.02c-.16,0-.36.01-.55.01-2.31,0-4.46-.64-6.3-1.76l.05.03c-3.35-2.01-5.65-5.46-6.08-9.46v-.05c-.04-.83-.05-1.67-.02-2.48.65-6.37,5.99-11.31,12.49-11.31.73,0,1.44.06,2.14.18h-.07c.03,2.46-.07,4.92-.07,7.39-.56-.2-1.22-.32-1.89-.32-2.49,0-4.61,1.59-5.4,3.82v.04c-.19.57-.29,1.22-.29,1.9,0,.27.02.55.05.81v-.03c.44,2.73,2.78,4.79,5.6,4.79.08,0,.16,0,.24,0h-.01c1.95-.06,3.65-1.11,4.6-2.66v-.02c.37-.5.61-1.1.69-1.75v-.02c.17-2.98.1-5.95.12-8.93.02-6.72-.02-13.42.03-20.12h0Z"/>
</svg>