<?xml version="1.0" encoding="UTF-8"?>
<svg id="Calque_2" data-name="Calque 2" xmlns="http://www.w3.org/2000/svg" viewBox="0 0 831.25 391.58">
  <defs>
    <style>
      .cls-1 {
        fill: #7979bc;
        stroke-width: 0px;
      }
    </style>
  </defs>
  <g id="Calque_1-2" data-name="Calque 1">
    <g>
      <path class="cls-1" d="m0,6.38h134.68v38.25C169.75,12.75,200.83,0,243.87,0c53.39,0,90.85,19.93,119.54,64.56C392.1,21.52,431.95,0,482.96,0c43.83,0,82.88,19.13,104.4,52.61,14.34,21.52,20.72,49.41,20.72,88.46v247.06h-135.48v-203.88c0-31.89-15.94-47.03-49.41-47.03h-3.19c-34.27,0-49.41,14.34-49.41,46.23v204.68h-134.69v-203.88c0-31.09-15.94-47.03-48.61-47.03h-3.19c-34.27,0-49.41,13.55-49.41,46.23v204.68H0V6.38Z"/>
      <path class="cls-1" d="m764.59,263.11h-4.09c-46.24,0-67.29,21.74-67.29,63.89s21.74,64.58,66.6,64.58h4.09c45.55,0,67.34-21.04,67.34-63.19s-22.49-65.27-66.65-65.27Z"/>
    </g>
  </g>
</svg>