<svg width="178" height="34" viewBox="0 0 178 34" fill="none" xmlns="http://www.w3.org/2000/svg">
<path d="M0 10.1774H8.40192V12.5642C10.5892 10.5763 12.5289 9.77856 15.2148 9.77856C18.5473 9.77856 20.8826 11.0234 22.671 13.8058C24.4595 11.1199 26.946 9.77856 30.1305 9.77856C32.8646 9.77856 35.2996 10.9719 36.6442 13.0596C37.5384 14.4009 37.9373 16.1411 37.9373 18.5793V33.9936H29.4839V21.2749C29.4839 19.287 28.49 18.3413 26.4023 18.3413H26.2029C24.0638 18.3413 23.1214 19.2355 23.1214 21.2267V33.9968H14.7194V21.2781C14.7194 19.3385 13.7255 18.3445 11.6861 18.3445H11.4867C9.34761 18.3445 8.40513 19.1905 8.40513 21.2299V34H0V10.1774Z" fill="#7979BC"/>
<path d="M41.4242 21.1174C41.5239 11.1232 49.1795 8.83618 54.0045 8.83618C64.7932 8.83618 66.5849 18.5827 66.038 23.7518H49.6299C49.7296 25.2926 51.1224 27.4317 53.9048 27.4317H54.3519C57.1375 27.4317 57.9803 25.6915 57.9803 25.6915H65.7871C64.1467 31.6069 59.1737 33.9454 54.2522 33.9937C50.3247 34.0419 41.3244 32.3017 41.4242 21.1174ZM58.08 18.4315C57.9321 16.1444 56.2916 15.0508 53.9531 15.0508H53.8533C51.6145 15.0508 49.8261 16.1444 49.6781 18.4315H58.08Z" fill="#7979BC"/>
<path d="M70.5605 10.1777H79.0139V13.211C81.3492 9.83032 84.9808 9.83032 86.1742 9.83032V17.5374H84.1349C80.7027 17.5374 79.0139 19.5768 79.0139 23.752V33.9939H70.5605V10.1777Z" fill="#7979BC"/>
<path d="M109.193 30.8027C104.57 34.6305 96.712 35.6244 92.0897 30.3555C85.428 22.9476 89.3041 8.72672 100.196 8.67847C103.676 8.67847 105.365 9.77213 106.709 11.1649V9.42473H115.111V24.141C115.111 25.1285 115.912 25.9294 116.9 25.9294V33.4371H114.712C112.573 33.4371 110.537 32.4914 109.193 30.8027ZM102.032 25.3826H102.332C105.365 25.3826 106.758 23.9898 106.758 21.2074C106.758 18.4249 105.317 16.9324 102.383 16.9324H102.084C99.0505 16.9324 97.6577 18.3252 97.6577 21.1076C97.6577 23.8901 99.0988 25.3826 102.032 25.3826Z" fill="#7979BC"/>
<path d="M138.783 33.994L132.249 28.2266V33.994H122.809V1.47681H132.249V18.033L139.876 10.1779H149.343L139.252 23.0059C141.375 26.1872 148.986 33.3121 149.549 33.994" fill="#7979BC"/>
<path d="M157.25 0.00321666H157.504C160.261 0.00321666 161.66 1.40246 161.66 4.07551C161.66 6.74855 160.302 8.01914 157.459 8.01914H157.205C154.406 8.01914 153.049 6.66171 153.049 3.98866C153.049 1.31561 154.364 0 157.247 0L157.25 0.00321666ZM153.155 10.1775H161.557V33.9937H153.155V10.1775Z" fill="#7979BC"/>
<path d="M173.699 25.9812H173.445C170.56 25.9812 169.248 27.3387 169.248 29.9667C169.248 32.5947 170.605 33.9939 173.403 33.9939H173.658C176.498 33.9939 177.859 32.6816 177.859 30.0503C177.859 27.4191 176.456 25.978 173.699 25.978V25.9812Z" fill="#7979BC"/>
</svg>
