<svg width="59" height="60" viewBox="0 0 59 60" fill="none" xmlns="http://www.w3.org/2000/svg">
<path opacity="0.2" d="M36.0422 7.95288C22.3922 2.70288 7.02224 9.54288 1.78224 23.1929C-3.45776 36.8329 3.37224 52.2029 17.0222 57.4529C30.6622 62.6929 46.0322 55.8629 51.2822 42.2129C56.5222 28.5729 49.6922 13.2029 36.0522 7.95288H36.0422Z" fill="#727272"/>
<path d="M54.2637 39.0229C49.0237 52.6629 33.6537 59.5029 20.0037 54.2629C6.35369 49.0129 -0.476317 33.6429 4.76368 20.0029C10.0037 6.3629 25.3737 -0.477095 39.0237 4.76291C52.6637 10.0029 59.4937 25.3829 54.2537 39.0229H54.2637Z" fill="#F9F3EF"/>
<path d="M29.6602 6.79238C17.1249 6.71243 6.87152 16.8444 6.80092 29.3762C6.73032 41.9079 16.8529 52.1648 29.3882 52.2448C41.9235 52.3247 52.1769 42.1928 52.2475 29.661C52.3274 17.1257 42.1955 6.87232 29.6637 6.80172L29.6602 6.79238ZM29.3942 49.3995C18.4354 49.3339 9.56542 40.3572 9.62748 29.3891C9.69308 18.4304 18.6698 9.56041 29.6285 9.62601C40.5872 9.6916 49.4572 18.6683 49.3916 29.627C49.326 40.5857 40.3493 49.4557 29.3906 49.3901L29.3942 49.3995Z" fill="#F191BA"/>
<path d="M26.0172 25.0722C26.0346 22.2943 24.9876 20.0356 23.6787 20.0275C22.3698 20.0193 21.2946 22.2647 21.2773 25.0426C21.2599 27.8205 22.3069 30.0791 23.6158 30.0873C24.9247 30.0955 25.9998 27.8501 26.0172 25.0722Z" fill="#F191BA"/>
<path d="M37.8586 25.158C37.876 22.38 36.829 20.1214 35.5201 20.1133C34.2112 20.1051 33.1361 22.3504 33.1187 25.1284C33.1013 27.9063 34.1484 30.1649 35.4573 30.1731C36.7661 30.1812 37.8413 27.9359 37.8586 25.158Z" fill="#F191BA"/>
<path d="M46.2292 30.8202L42.6743 29.5002C41.9423 29.2313 41.1214 29.6051 40.8525 30.3372C40.5743 31.0727 40.9575 31.8901 41.6895 32.159L42.2131 32.3569C40.8921 38.317 35.5929 42.5716 29.4423 42.5302C23.2917 42.4889 18.0406 38.1748 16.7914 32.2012L17.3154 32.0035C18.0522 31.7469 18.4415 30.9373 18.1755 30.204C17.9095 29.4707 17.0999 29.0814 16.3631 29.3381L12.7924 30.6105C12.0591 30.8765 11.6698 31.6861 11.9265 32.4229C12.1325 32.9972 12.6751 33.3589 13.2545 33.3647C13.416 33.3679 13.5763 33.3395 13.7353 33.2795L14.5283 33.0017C16.127 39.9015 22.2478 44.8494 29.4049 44.8957C36.5715 44.9386 42.7484 40.0641 44.4292 33.1881L45.2222 33.4767C45.3826 33.5338 45.5454 33.5685 45.7034 33.5624C46.2828 33.5682 46.8321 33.2113 47.044 32.6397C47.3222 31.9041 46.939 31.0868 46.207 30.8179L46.2292 30.8202Z" fill="#F191BA"/>
</svg>
