<svg width="103" height="103" viewBox="0 0 103 103" fill="none" xmlns="http://www.w3.org/2000/svg">
<g clip-path="url(#clip0_355_2)">
<path d="M53.28 102.56C49.75 102.56 46.86 99.91 46.56 96.39C45.19 80.11 43.03 72.4 38.59 67.97C34.16 63.54 26.45 61.38 10.17 60C6.65 59.7 4 56.82 4 53.28C4 49.74 6.65 46.86 10.17 46.56C26.45 45.19 34.16 43.03 38.59 38.59C43.02 34.16 45.18 26.45 46.56 10.17C46.86 6.65 49.74 4 53.28 4C56.82 4 59.7 6.65 60 10.17C61.37 26.45 63.53 34.16 67.97 38.59C72.4 43.02 80.11 45.18 96.39 46.56C99.91 46.86 102.56 49.74 102.56 53.28C102.56 56.82 99.91 59.7 96.39 60C80.11 61.37 72.4 63.53 67.97 67.97C63.54 72.41 61.38 80.11 60 96.39C59.7 99.91 56.82 102.56 53.28 102.56Z" fill="#5D5DA3"/>
<path d="M50.27 99.54C46.74 99.54 43.85 96.89 43.55 93.37C42.18 77.09 40.02 69.38 35.58 64.95C31.15 60.52 23.44 58.36 7.15999 56.98C3.63999 56.68 0.98999 53.8 0.98999 50.26C0.98999 46.72 3.63999 43.84 7.15999 43.54C23.44 42.17 31.15 40.01 35.58 35.57C40.01 31.14 42.17 23.43 43.55 7.14998C43.85 3.62998 46.73 0.97998 50.27 0.97998C53.81 0.97998 56.69 3.62998 56.99 7.14998C58.36 23.43 60.52 31.14 64.96 35.57C69.39 40 77.1 42.16 93.38 43.54C96.9 43.84 99.55 46.72 99.55 50.26C99.55 53.8 96.9 56.68 93.38 56.98C77.1 58.35 69.39 60.51 64.96 64.95C60.53 69.39 58.37 77.09 56.99 93.37C56.69 96.89 53.81 99.54 50.27 99.54Z" fill="white"/>
<path d="M92.91 49.09C60.43 46.35 54.2 40.12 51.46 7.63999C51.34 6.18999 49.21 6.18999 49.09 7.63999C46.35 40.12 40.12 46.35 7.63999 49.09C6.18999 49.21 6.18999 51.34 7.63999 51.46C40.12 54.2 46.35 60.43 49.09 92.91C49.21 94.36 51.34 94.36 51.46 92.91C54.2 60.43 60.43 54.2 92.91 51.46C94.36 51.34 94.36 49.21 92.91 49.09Z" fill="#F3DC76"/>
</g>
<defs>
<clipPath id="clip0_355_2">
<rect width="103" height="103" fill="white"/>
</clipPath>
</defs>
</svg>
